<svg xmlns="http://www.w3.org/2000/svg" xmlns:xlink="http://www.w3.org/1999/xlink" preserveAspectRatio="xMidYMid" width="20" height="20" viewBox="0 0 20 20">
  <defs>
    <style>
      .cls-1 {
        fill: #f668ff;
        fill-rule: evenodd;
      }
    </style>
  </defs>
  <path d="M10.000,19.999 C4.478,19.999 0.001,15.522 0.001,10.000 C0.001,4.478 4.478,0.001 10.000,0.001 C15.522,0.001 19.999,4.478 19.999,10.000 C19.999,15.522 15.522,19.999 10.000,19.999 ZM15.131,3.546 L10.693,3.546 C10.693,3.546 6.315,7.121 4.869,9.972 C4.829,10.053 4.789,10.113 4.769,10.193 C4.769,10.213 4.748,10.233 4.748,10.253 C4.487,10.836 4.347,11.539 4.347,12.282 C4.347,14.390 5.512,16.097 6.957,16.097 C7.178,16.097 7.439,16.097 7.721,16.097 C7.721,16.138 7.700,16.158 7.700,16.198 C7.700,16.820 8.223,17.342 8.845,17.342 C9.468,17.342 9.990,16.820 9.990,16.198 C9.990,16.158 9.990,16.138 9.990,16.097 C10.773,16.097 11.516,16.097 12.018,16.097 C13.464,16.097 14.629,14.390 14.629,12.282 C14.629,11.097 14.267,10.053 13.725,9.370 L15.653,4.811 L15.131,3.546 ZM7.862,7.738 L8.645,6.954 L12.360,6.934 L11.557,7.738 L7.862,7.738 ZM9.509,16.092 C9.509,16.132 9.529,16.152 9.529,16.192 C9.549,16.554 9.247,16.875 8.866,16.875 C8.484,16.875 8.183,16.574 8.183,16.192 C8.183,16.152 8.203,16.132 8.203,16.092 C8.625,16.092 9.067,16.092 9.509,16.092 Z" class="cls-1"/>
</svg>
