<svg xmlns="http://www.w3.org/2000/svg" xmlns:xlink="http://www.w3.org/1999/xlink" preserveAspectRatio="xMidYMid" width="20" height="20" viewBox="0 0 20 20">
  <defs>
    <style>
      .cls-1 {
        fill: #fb5c76;
        fill-rule: evenodd;
      }
    </style>
  </defs>
  <path d="M10.000,19.999 C4.478,19.999 0.001,15.522 0.001,10.000 C0.001,4.478 4.478,0.001 10.000,0.001 C15.522,0.001 19.999,4.478 19.999,10.000 C19.999,15.522 15.522,19.999 10.000,19.999 ZM13.899,6.087 C11.959,6.087 11.891,6.334 10.591,6.456 C10.530,6.136 10.250,5.895 9.913,5.895 C9.575,5.895 9.295,6.136 9.234,6.456 C7.934,6.334 8.056,6.087 6.116,6.087 C3.545,6.087 3.607,6.282 3.607,6.522 C3.607,6.762 3.545,6.957 6.116,6.957 C8.049,6.957 7.915,6.711 9.220,6.589 C9.221,6.675 9.238,6.755 9.267,6.831 C6.079,7.154 3.591,9.846 3.591,13.120 C3.591,13.120 5.074,13.699 7.463,13.969 C8.189,14.052 9.000,14.105 9.877,14.105 C10.780,14.105 11.615,14.049 12.363,13.962 C14.737,13.690 16.235,13.120 16.235,13.120 C16.235,9.846 13.747,7.154 10.559,6.831 C10.587,6.755 10.604,6.674 10.604,6.589 C11.910,6.711 11.966,6.956 13.899,6.956 C16.470,6.956 16.409,6.762 16.409,6.522 C16.409,6.282 16.470,6.087 13.899,6.087 ZM12.195,13.956 C11.448,14.035 10.693,14.075 9.946,14.075 C9.220,14.075 8.489,14.038 7.768,13.964 C7.819,10.444 8.686,7.933 9.589,7.361 C9.701,7.438 9.836,7.484 9.981,7.484 C10.126,7.484 10.261,7.439 10.372,7.363 C11.278,7.937 12.143,10.444 12.195,13.956 Z" class="cls-1"/>
</svg>
