<svg xmlns="http://www.w3.org/2000/svg" xmlns:xlink="http://www.w3.org/1999/xlink" preserveAspectRatio="xMidYMid" width="20" height="20" viewBox="0 0 20 20">
  <defs>
    <style>
      .cls-1 {
        fill: #765cfb;
        fill-rule: evenodd;
      }
    </style>
  </defs>
  <path d="M10.000,19.999 C4.478,19.999 0.001,15.522 0.001,10.000 C0.001,4.478 4.478,0.001 10.000,0.001 C15.522,0.001 19.999,4.478 19.999,10.000 C19.999,15.522 15.522,19.999 10.000,19.999 ZM16.797,10.819 C16.053,7.882 13.032,6.475 12.742,7.633 L12.701,7.799 C12.701,7.799 11.294,10.736 11.294,7.343 C11.294,3.950 12.370,4.819 10.259,3.992 C8.149,3.164 5.501,3.330 3.845,6.061 C2.190,8.792 3.887,14.957 9.225,16.199 C14.563,17.440 17.543,13.757 16.797,10.819 ZM13.094,15.153 C12.520,15.379 11.929,15.243 11.774,14.849 C11.620,14.456 11.960,13.954 12.534,13.728 C13.108,13.503 13.699,13.638 13.854,14.032 C14.008,14.425 13.668,14.928 13.094,15.153 ZM12.336,12.105 C11.809,11.948 11.542,11.287 11.738,10.627 C11.935,9.968 12.521,9.561 13.047,9.718 C13.573,9.875 13.841,10.536 13.645,11.195 C13.448,11.855 12.862,12.262 12.336,12.105 ZM10.000,15.206 C9.383,15.206 8.883,14.864 8.883,14.441 C8.883,14.018 9.383,13.675 10.000,13.675 C10.617,13.675 11.117,14.018 11.117,14.441 C11.117,14.864 10.617,15.206 10.000,15.206 ZM9.690,6.310 C9.244,6.310 8.883,5.958 8.883,5.524 C8.883,5.089 9.244,4.737 9.690,4.737 C10.135,4.737 10.496,5.089 10.496,5.524 C10.496,5.958 10.135,6.310 9.690,6.310 ZM7.581,14.211 C7.111,14.211 6.731,13.850 6.731,13.405 C6.731,12.960 7.111,12.599 7.581,12.599 C8.051,12.599 8.431,12.960 8.431,13.405 C8.431,13.850 8.051,14.211 7.581,14.211 ZM7.124,6.310 C6.564,6.310 6.110,6.013 6.110,5.647 C6.110,5.282 6.564,4.986 7.124,4.986 C7.684,4.986 8.138,5.282 8.138,5.647 C8.138,6.013 7.684,6.310 7.124,6.310 ZM5.179,7.468 C4.756,7.468 4.413,7.126 4.413,6.703 C4.413,6.280 4.756,5.937 5.179,5.937 C5.602,5.937 5.944,6.280 5.944,6.703 C5.944,7.126 5.602,7.468 5.179,7.468 ZM5.531,9.289 C5.531,9.815 5.206,10.241 4.806,10.241 C4.407,10.241 4.082,9.815 4.082,9.289 C4.082,8.763 4.407,8.337 4.806,8.337 C5.206,8.337 5.531,8.763 5.531,9.289 ZM5.737,10.745 C6.126,10.745 6.441,11.160 6.441,11.672 C6.441,12.184 6.126,12.599 5.737,12.599 C5.349,12.599 5.034,12.184 5.034,11.672 C5.034,11.160 5.349,10.745 5.737,10.745 Z" class="cls-1"/>
</svg>
