<svg xmlns="http://www.w3.org/2000/svg" xmlns:xlink="http://www.w3.org/1999/xlink" preserveAspectRatio="xMidYMid" width="20" height="20" viewBox="0 0 20 20">
  <defs>
    <style>
      .cls-1 {
        fill: #fb985c;
        fill-rule: evenodd;
      }
    </style>
  </defs>
  <path d="M10.000,0.001 C4.478,0.001 0.001,4.478 0.001,10.000 C0.001,15.522 4.478,19.999 10.000,19.999 C15.522,19.999 19.999,15.522 19.999,10.000 C19.999,4.478 15.522,0.001 10.000,0.001 ZM15.822,13.080 C15.822,13.785 15.251,14.357 14.546,14.357 L5.454,14.357 C4.749,14.357 4.177,13.786 4.177,13.080 L4.177,12.180 L5.585,12.180 L6.913,13.306 L8.912,12.180 L11.754,12.180 C11.754,12.180 11.158,13.144 11.385,13.244 C11.543,13.313 12.363,12.775 12.850,12.438 C12.883,12.734 12.973,13.177 13.217,13.177 C13.583,13.177 14.031,12.180 14.031,12.180 L15.822,12.180 L15.822,13.080 ZM15.822,11.156 L4.177,11.156 L4.177,9.360 C4.177,9.318 4.180,9.276 4.183,9.235 L4.972,9.235 C4.972,9.235 4.862,10.539 5.089,10.639 C5.233,10.702 5.734,10.123 6.082,9.689 C6.122,9.947 6.209,10.218 6.401,10.218 C6.766,10.218 7.249,9.235 7.249,9.235 L9.936,9.235 L11.599,10.516 L13.263,9.235 L15.816,9.235 C15.820,9.276 15.822,9.318 15.822,9.360 L15.822,11.156 ZM10.664,9.235 L12.535,9.235 L11.599,9.956 L10.664,9.235 ZM15.813,8.211 L4.187,8.211 C4.181,8.150 4.177,8.088 4.177,8.026 C4.177,6.219 6.784,4.754 10.000,4.754 C13.215,4.754 15.822,6.219 15.822,8.026 C15.822,8.088 15.819,8.150 15.813,8.211 Z" class="cls-1"/>
</svg>
