<svg xmlns="http://www.w3.org/2000/svg" xmlns:xlink="http://www.w3.org/1999/xlink" preserveAspectRatio="xMidYMid" width="20" height="20" viewBox="0 0 20 20">
  <defs>
    <style>
      .cls-1 {
        fill: #5cde7b;
        fill-rule: evenodd;
      }
    </style>
  </defs>
  <path d="M10.000,19.999 C4.478,19.999 0.001,15.522 0.001,10.000 C0.001,4.478 4.478,0.001 10.000,0.001 C15.522,0.001 19.999,4.478 19.999,10.000 C19.999,15.522 15.522,19.999 10.000,19.999 ZM13.694,5.168 L12.972,4.445 L12.892,4.441 C12.622,4.424 12.120,4.360 11.921,4.254 C11.793,4.185 11.617,4.140 11.413,4.087 C11.082,4.002 10.669,3.896 10.511,3.681 C10.270,3.350 10.059,3.359 9.845,3.397 C9.753,3.414 9.674,3.429 9.558,3.392 C9.345,3.325 9.225,3.304 9.120,3.285 C9.010,3.266 8.916,3.250 8.716,3.182 C8.450,3.092 8.437,2.757 8.437,2.745 L8.435,2.659 L7.753,1.977 L7.803,2.555 C7.803,2.562 7.861,3.293 7.452,3.645 C7.394,3.695 7.322,3.751 7.242,3.814 C6.616,4.300 5.452,5.205 6.125,6.847 C6.392,7.499 6.669,8.001 6.914,8.444 C7.306,9.158 7.590,9.673 7.590,10.364 C7.590,11.403 6.043,12.066 6.028,12.073 L5.898,12.127 L5.898,12.903 L7.020,12.903 L7.023,13.306 C6.998,13.355 6.830,13.453 6.720,13.519 C6.364,13.728 5.877,14.015 5.877,14.595 C5.877,15.055 6.006,15.221 6.150,15.363 C6.189,15.403 6.218,15.431 6.236,15.479 C5.918,15.587 5.686,15.909 5.686,16.288 C5.686,16.754 6.037,17.134 6.469,17.134 L12.943,17.134 C13.375,17.134 13.726,16.754 13.726,16.288 C13.726,15.909 13.494,15.587 13.176,15.479 C13.194,15.431 13.222,15.403 13.262,15.363 C13.406,15.221 13.535,15.055 13.535,14.595 C13.535,14.015 13.048,13.728 12.692,13.519 C12.581,13.453 12.414,13.355 12.393,13.326 L12.393,12.865 C12.761,12.769 13.514,12.424 13.514,11.210 C13.514,9.924 11.496,7.673 10.878,7.014 C11.068,6.906 11.395,6.767 11.821,6.767 C11.948,6.767 12.005,6.786 12.026,6.796 C12.018,6.850 11.950,6.967 11.877,7.048 L11.554,7.402 L12.732,7.402 L13.698,6.758 L12.586,6.091 L12.614,6.062 L14.314,6.716 L13.694,5.168 ZM9.918,4.528 L9.644,4.801 L9.345,4.502 L9.918,3.929 L10.490,4.502 L10.191,4.801 L9.918,4.528 Z" class="cls-1"/>
</svg>
