<svg xmlns="http://www.w3.org/2000/svg" xmlns:xlink="http://www.w3.org/1999/xlink" preserveAspectRatio="xMidYMid" width="20" height="20" viewBox="0 0 20 20">
  <defs>
    <style>
      .cls-1 {
        fill: #5ca5de;
        fill-rule: evenodd;
      }
    </style>
  </defs>
  <path d="M9.895,20.003 C4.373,19.945 -0.057,15.421 0.001,9.899 C0.059,4.376 4.583,-0.054 10.106,0.004 C15.628,0.062 20.058,4.586 20.000,10.109 C19.942,15.632 15.418,20.061 9.895,20.003 ZM10.069,3.448 C6.448,3.409 3.483,6.314 3.444,9.935 C3.406,13.556 6.311,16.522 9.932,16.560 C13.553,16.598 16.518,13.694 16.556,10.073 C16.595,6.452 13.690,3.486 10.069,3.448 ZM12.913,13.358 C12.244,12.964 12.024,12.101 12.419,11.434 C12.815,10.766 13.675,10.544 14.344,10.940 C15.012,11.335 15.233,12.196 14.838,12.865 C14.443,13.532 13.582,13.754 12.913,13.358 ZM14.363,9.159 C13.685,9.540 12.829,9.300 12.448,8.625 C12.068,7.948 12.306,7.092 12.983,6.711 C13.660,6.329 14.515,6.569 14.897,7.245 C15.278,7.921 15.039,8.778 14.363,9.159 ZM10.030,7.194 C9.255,7.186 8.632,6.551 8.640,5.774 C8.648,4.998 9.284,4.376 10.060,4.384 C10.836,4.392 11.458,5.027 11.450,5.804 C11.442,6.580 10.807,7.202 10.030,7.194 ZM9.971,12.813 C10.748,12.822 11.369,13.456 11.361,14.233 C11.353,15.010 10.718,15.631 9.942,15.623 C9.166,15.615 8.543,14.980 8.551,14.203 C8.560,13.427 9.196,12.805 9.971,12.813 ZM5.658,9.067 C4.989,8.672 4.769,7.810 5.164,7.143 C5.559,6.474 6.420,6.254 7.089,6.649 C7.756,7.044 7.977,7.905 7.583,8.573 C7.188,9.241 6.326,9.462 5.658,9.067 ZM5.640,10.849 C6.316,10.467 7.171,10.707 7.553,11.383 C7.934,12.058 7.694,12.916 7.019,13.296 C6.342,13.678 5.485,13.438 5.104,12.762 C4.723,12.086 4.962,11.229 5.640,10.849 Z" class="cls-1"/>
</svg>
