<svg xmlns="http://www.w3.org/2000/svg" xmlns:xlink="http://www.w3.org/1999/xlink" preserveAspectRatio="xMidYMid" width="20" height="20" viewBox="0 0 20 20">
  <defs>
    <style>
      .cls-1 {
        fill: #00bff3;
        fill-rule: evenodd;
      }
    </style>
  </defs>
  <path d="M10.000,0.001 C4.478,0.001 0.001,4.478 0.001,10.000 C0.001,15.522 4.478,19.999 10.000,19.999 C15.522,19.999 19.999,15.522 19.999,10.000 C19.999,4.478 15.522,0.001 10.000,0.001 ZM14.441,3.638 C15.199,3.638 15.815,4.253 15.815,5.012 C15.815,5.771 15.199,6.386 14.441,6.386 C13.682,6.386 13.067,5.771 13.067,5.012 C13.067,4.253 13.682,3.638 14.441,3.638 ZM5.868,3.638 C6.627,3.638 7.243,4.253 7.243,5.012 C7.243,5.771 6.627,6.386 5.868,6.386 C5.109,6.386 4.494,5.771 4.494,5.012 C4.494,4.253 5.109,3.638 5.868,3.638 ZM8.922,10.916 C8.922,11.253 8.648,11.527 8.311,11.527 C7.974,11.527 7.701,11.253 7.701,10.916 L7.701,8.371 C7.701,8.287 7.632,8.219 7.548,8.219 C7.463,8.219 7.395,8.287 7.395,8.371 L7.395,15.675 C7.395,16.054 7.088,16.362 6.708,16.362 C6.329,16.362 6.021,16.054 6.021,15.675 L6.021,11.679 C6.021,11.595 5.953,11.527 5.868,11.527 C5.784,11.527 5.716,11.595 5.716,11.679 L5.716,15.675 C5.716,16.054 5.408,16.362 5.029,16.362 C4.649,16.362 4.342,16.054 4.342,15.675 L4.342,8.371 C4.342,8.287 4.273,8.219 4.189,8.219 C4.105,8.219 4.036,8.287 4.036,8.371 L4.036,10.916 C4.036,11.253 3.763,11.527 3.425,11.527 C3.088,11.527 2.815,11.253 2.815,10.916 L2.815,8.219 C2.815,7.375 3.498,6.692 4.342,6.692 L7.395,6.692 C8.238,6.692 8.922,7.375 8.922,8.219 L8.922,10.916 ZM10.576,16.022 C10.576,16.210 10.424,16.362 10.236,16.362 C10.049,16.362 9.897,16.210 9.897,16.022 L9.897,3.977 C9.897,3.790 10.049,3.638 10.236,3.638 C10.424,3.638 10.576,3.790 10.576,3.977 L10.576,16.022 ZM17.298,11.526 C17.044,11.590 16.787,11.436 16.724,11.182 L16.111,8.732 C16.091,8.651 16.008,8.600 15.928,8.620 C15.847,8.640 15.797,8.723 15.818,8.804 L16.971,13.418 L15.891,13.419 L15.891,15.751 C15.891,16.088 15.618,16.362 15.281,16.362 C14.943,16.362 14.670,16.088 14.670,15.751 L14.670,13.419 L14.212,13.419 L14.212,15.751 C14.212,16.088 13.938,16.362 13.601,16.362 C13.264,16.362 12.990,16.088 12.990,15.751 L12.990,13.419 L11.910,13.418 L13.064,8.805 C13.084,8.723 13.035,8.641 12.954,8.620 C12.873,8.600 12.791,8.650 12.771,8.732 L12.158,11.182 C12.095,11.436 11.837,11.590 11.582,11.526 C11.329,11.463 11.175,11.206 11.238,10.952 L12.169,7.227 C12.266,6.917 12.556,6.692 12.898,6.692 L15.983,6.692 C16.326,6.692 16.615,6.917 16.712,7.227 L17.644,10.952 C17.707,11.206 17.553,11.463 17.298,11.526 Z" class="cls-1"/>
</svg>
