<?xml version="1.0" encoding="utf-8"?>
<!-- Generator: Adobe Illustrator 19.2.1, SVG Export Plug-In . SVG Version: 6.00 Build 0)  -->
<svg version="1.1" id="Layer_1" xmlns="http://www.w3.org/2000/svg" xmlns:xlink="http://www.w3.org/1999/xlink" x="0px" y="0px"
	 viewBox="0 0 20 20" style="enable-background:new 0 0 20 20;" xml:space="preserve">
<style type="text/css">
	.st0{fill:#F668FF;}
	.st1{fill:#FFFFFF;}
</style>
<circle class="st0" cx="10" cy="10" r="10"/>
<path class="st1" d="M13.5,8.2C13.5,8.2,13.4,8.2,13.5,8.2c0-0.1,0.2-0.5,0.5-1c0.3-0.5,0.6-1.2,0.5-1.7C14.3,4.7,13.7,4,13,3.8
	c-0.9-0.3-1.9-0.5-3-0.5s-2.2,0.1-3,0.5C6.2,4,5.6,4.7,5.5,5.5C5.4,6.1,5.7,6.7,5.9,7.2s0.5,0.9,0.5,0.9c0,0,0,0,0,0
	c0,0,0,0-0.1,0.1C5.5,9.2,5,10.5,5,11.8s0.5,2.6,1.5,3.5s2.2,1.5,3.5,1.5s2.6-0.5,3.5-1.5s1.5-2.2,1.5-3.5S14.4,9.2,13.5,8.2z
	 M7.9,7.2C7.9,7.1,7.8,7,7.7,6.9C7.6,6.6,7.4,6.3,7.5,6.2c0-0.2,0.4-0.6,0.7-0.7c1-0.3,2.6-0.3,3.6,0c0.3,0.1,0.6,0.4,0.7,0.7
	c0,0.1-0.1,0.4-0.3,0.7C12.1,7,12,7.1,12,7.2c-0.6-0.3-1.3-0.4-2-0.4C9.3,6.8,8.6,6.9,7.9,7.2z"/>
</svg>
