<svg xmlns="http://www.w3.org/2000/svg" xmlns:xlink="http://www.w3.org/1999/xlink" preserveAspectRatio="xMidYMid" width="20" height="20" viewBox="0 0 20 20">
  <defs>
    <style>
      .cls-1 {
        fill: #ff8f8b;
        fill-rule: evenodd;
      }
    </style>
  </defs>
  <path d="M10.000,19.999 C4.478,19.999 0.001,15.522 0.001,10.000 C0.001,4.478 4.478,0.001 10.000,0.001 C15.522,0.001 19.999,4.478 19.999,10.000 C19.999,15.522 15.522,19.999 10.000,19.999 ZM15.294,3.867 C14.637,3.500 13.896,3.307 13.148,3.307 C11.549,3.307 10.072,4.173 9.294,5.569 C8.754,6.537 8.597,7.978 8.874,9.424 C9.084,10.520 9.498,11.425 10.023,11.982 L9.316,12.182 C9.194,12.217 9.104,12.322 9.089,12.449 C9.075,12.576 9.138,12.699 9.249,12.761 L9.964,13.160 L9.050,16.816 L8.460,14.457 L8.968,14.360 C9.093,14.336 9.191,14.239 9.217,14.114 C9.242,13.990 9.191,13.862 9.086,13.790 L8.475,13.376 C8.544,13.335 8.596,13.271 8.618,13.194 C8.641,13.112 8.631,13.024 8.588,12.951 C8.484,12.768 8.442,12.569 8.464,12.375 C8.490,12.151 8.609,11.939 8.796,11.777 C8.906,11.683 8.937,11.527 8.872,11.397 C8.489,10.631 8.312,9.845 8.255,9.544 C7.946,7.932 8.124,6.371 8.743,5.262 C8.804,5.154 8.874,5.053 8.943,4.953 L8.985,4.891 C9.036,4.816 9.053,4.723 9.031,4.635 C9.009,4.547 8.950,4.474 8.870,4.432 C7.995,3.982 6.986,3.832 6.030,4.016 C4.873,4.237 3.870,4.895 3.208,5.869 C2.546,6.844 2.304,8.018 2.525,9.176 C2.933,11.313 5.444,13.403 7.204,13.621 L6.791,14.228 C6.720,14.333 6.718,14.472 6.788,14.578 C6.847,14.668 6.947,14.721 7.052,14.721 C7.071,14.721 7.091,14.719 7.111,14.715 L7.840,14.576 L8.744,18.191 C8.779,18.331 8.905,18.430 9.050,18.430 C9.195,18.430 9.321,18.331 9.355,18.191 L10.533,13.478 L10.899,13.682 C10.947,13.709 11.000,13.722 11.053,13.722 C11.122,13.722 11.191,13.699 11.248,13.654 C11.348,13.575 11.391,13.443 11.357,13.321 L11.156,12.615 C11.359,12.656 11.580,12.679 11.820,12.679 C13.563,12.679 16.058,11.549 16.997,9.868 C18.181,7.744 17.418,5.052 15.294,3.867 ZM14.019,5.517 C13.431,5.189 12.750,5.110 12.103,5.294 C11.455,5.477 10.918,5.902 10.590,6.490 C10.532,6.593 10.425,6.651 10.315,6.651 C10.262,6.651 10.210,6.638 10.161,6.612 C10.010,6.527 9.955,6.335 10.040,6.183 C10.450,5.448 11.122,4.917 11.932,4.687 C12.740,4.458 13.591,4.557 14.327,4.967 C14.478,5.052 14.533,5.244 14.448,5.396 C14.362,5.548 14.170,5.600 14.019,5.517 ZM6.031,5.873 C4.666,6.133 3.767,7.456 4.027,8.821 C4.060,8.992 3.948,9.157 3.777,9.189 C3.757,9.193 3.737,9.195 3.717,9.195 C3.570,9.195 3.438,9.090 3.409,8.939 C3.083,7.232 4.206,5.579 5.912,5.254 C6.078,5.223 6.247,5.333 6.281,5.504 C6.314,5.675 6.201,5.840 6.031,5.873 Z" class="cls-1"/>
</svg>
