<?xml version="1.0" encoding="utf-8"?>
<!-- Generator: Adobe Illustrator 19.2.1, SVG Export Plug-In . SVG Version: 6.00 Build 0)  -->
<svg version="1.1" id="Layer_1" xmlns="http://www.w3.org/2000/svg" xmlns:xlink="http://www.w3.org/1999/xlink" x="0px" y="0px"
	 viewBox="0 0 20 20" style="enable-background:new 0 0 20 20;" xml:space="preserve">
<style type="text/css">
	.st0{fill:#FF8F8B;}
	.st1{fill:#FFFFFF;}
</style>
<circle class="st0" cx="10" cy="10" r="10"/>
<path class="st1" d="M10,4c-3.3,0-6,2.7-6,6c0,3.3,2.7,6,6,6c3.3,0,6-2.7,6-6C16,6.7,13.3,4,10,4z M12,6c0.6,0,1,0.4,1,1s-0.4,1-1,1
	s-1-0.4-1-1S11.4,6,12,6z M8,6c0.6,0,1,0.4,1,1S8.6,8,8,8S7,7.6,7,7S7.4,6,8,6z M10,14c-2.2,0-4-1.3-4-3c0-0.6,0.4-1,1-1h6
	c0.6,0,1,0.4,1,1C14,12.7,12.2,14,10,14z"/>
</svg>
