<?xml version="1.0" encoding="utf-8"?>
<!-- Generator: Adobe Illustrator 19.2.1, SVG Export Plug-In . SVG Version: 6.00 Build 0)  -->
<svg version="1.1" id="Layer_1" xmlns="http://www.w3.org/2000/svg" xmlns:xlink="http://www.w3.org/1999/xlink" x="0px" y="0px"
	 viewBox="0 0 20 20" style="enable-background:new 0 0 20 20;" xml:space="preserve">
<style type="text/css">
	.st0{fill:#5CA5DE;}
	.st1{fill:#FFFFFF;}
</style>
<circle class="st0" cx="10" cy="10" r="10"/>
<path class="st1" d="M16,8.6c-0.1-0.1-0.2-0.1-0.4,0l-1.6,1V9c0-0.4-0.2-0.8-0.6-1C13.8,7.6,14,7.1,14,6.6c0-1.2-0.9-2.1-2.1-2.1
	C11,4.5,10.3,5,9.9,5.8C9.7,4.6,8.7,3.7,7.5,3.7c-1.4,0-2.5,1.1-2.5,2.5c0,0.7,0.3,1.3,0.8,1.7C5.3,8.1,5,8.5,5,9v4.2
	C5,13.8,5.4,15,6,15h7c0.6,0,1-1.2,1-1.8v-0.5l1.7,1c0.1,0,0.2,0.1,0.2,0.1c0.1,0,0,0,0-0.1c0.1-0.1,0-0.2,0-0.4V8.9
	C16,8.8,16.1,8.6,16,8.6z M7.6,7C7.1,7,6.6,6.6,6.6,6.1s0.4-0.9,0.9-0.9c0.5,0,0.9,0.4,0.9,0.9S8.1,7,7.6,7z M9.3,7.9
	c0.2-0.2,0.4-0.5,0.5-0.8c0.1,0.3,0.2,0.6,0.4,0.8H9.3z M11.9,7.2c-0.4,0-0.7-0.3-0.7-0.7s0.3-0.7,0.7-0.7c0.4,0,0.7,0.3,0.7,0.7
	S12.2,7.2,11.9,7.2z"/>
</svg>
