<?xml version="1.0" encoding="utf-8"?>
<!-- Generator: Adobe Illustrator 19.2.1, SVG Export Plug-In . SVG Version: 6.00 Build 0)  -->
<svg version="1.1" id="Layer_1" xmlns="http://www.w3.org/2000/svg" xmlns:xlink="http://www.w3.org/1999/xlink" x="0px" y="0px"
	 viewBox="0 0 20 20" style="enable-background:new 0 0 20 20;" xml:space="preserve">
<style type="text/css">
	.st0{fill:#FB985C;}
	.st1{fill:#FFFFFF;}
</style>
<circle class="st0" cx="10" cy="10" r="10"/>
<g>
	<path class="st1" d="M15.8,10H4.2c-0.5,0-0.8,0.4-0.8,0.8c0,0.5,0.4,0.8,0.8,0.8h11.7c0.5,0,0.8-0.4,0.8-0.8
		C16.7,10.4,16.3,10,15.8,10z"/>
	<path class="st1" d="M11.7,5H8.3C6,5,4.2,6.9,4.2,9.2h11.7C15.8,6.9,14,5,11.7,5z M7.9,8.3c-0.2,0-0.4-0.2-0.4-0.4
		c0-0.2,0.2-0.4,0.4-0.4s0.4,0.2,0.4,0.4C8.3,8.1,8.1,8.3,7.9,8.3z M9.6,6.7c-0.2,0-0.4-0.2-0.4-0.4c0-0.2,0.2-0.4,0.4-0.4
		C9.8,5.8,10,6,10,6.3C10,6.5,9.8,6.7,9.6,6.7z M12.1,7.5c-0.2,0-0.4-0.2-0.4-0.4c0-0.2,0.2-0.4,0.4-0.4c0.2,0,0.4,0.2,0.4,0.4
		C12.5,7.3,12.3,7.5,12.1,7.5z"/>
	<path class="st1" d="M4.2,14.2C4.2,14.6,4.5,15,5,15h10c0.5,0,0.8-0.4,0.8-0.8v-1.7H4.2V14.2z"/>
</g>
</svg>
