<?xml version="1.0" encoding="utf-8"?>
<!-- Generator: Adobe Illustrator 19.2.1, SVG Export Plug-In . SVG Version: 6.00 Build 0)  -->
<svg version="1.1" id="Layer_1" xmlns="http://www.w3.org/2000/svg" xmlns:xlink="http://www.w3.org/1999/xlink" x="0px" y="0px"
	 viewBox="0 0 20 20" style="enable-background:new 0 0 20 20;" xml:space="preserve">
<style type="text/css">
	.st0{fill:#00BFF3;}
	.st1{fill:#FFFFFF;}
</style>
<circle class="st0" cx="10" cy="10" r="10"/>
<g>
	<path class="st1" d="M6.8,8.6c0.8-0.2,1.5-0.9,1.5-1.7c0-1-0.8-1.8-1.8-1.8S4.7,5.9,4.7,6.9c0,0.9,0.6,1.6,1.5,1.7L3,13.9
		C3,14,3,14,3,14.1s0.1,0.1,0.2,0.1h6.5c0.1,0,0.1,0,0.2-0.1c0-0.1,0-0.1,0-0.2L6.8,8.6z"/>
	<path class="st1" d="M17,8.4c0-0.1-0.1-0.1-0.2-0.1h-2.1c0.4-0.3,0.7-0.8,0.7-1.4c0-1-0.8-1.8-1.8-1.8s-1.8,0.8-1.8,1.8
		c0,0.6,0.3,1,0.7,1.4h-2.1c-0.1,0-0.1,0-0.2,0.1s0,0.1,0,0.2l3.2,5.5c0,0.1,0.1,0.1,0.2,0.1s0.1,0,0.2-0.1L17,8.6
		C17,8.5,17,8.4,17,8.4z"/>
</g>
</svg>
