<?xml version="1.0" encoding="utf-8"?>
<!-- Generator: Adobe Illustrator 19.2.1, SVG Export Plug-In . SVG Version: 6.00 Build 0)  -->
<svg version="1.1" id="Layer_1" xmlns="http://www.w3.org/2000/svg" xmlns:xlink="http://www.w3.org/1999/xlink" x="0px" y="0px"
	 viewBox="0 0 26 32" style="enable-background:new 0 0 26 32;" xml:space="preserve" width="39" height="48">
<style type="text/css">
	.st0{fill:#FF8F8B;}
	.st1{fill:#FFFFFF;}
</style>
<path class="st0" d="M13.1,0C13,0,13,0,13.1,0C13,0,13,0,12.9,0C6.1,0.1,0.6,5.6,0.6,12.5c0,2.9,1,5.6,2.7,7.7
	C5.5,23,9,25.4,12.9,31.9c0,0,0,0.1,0.1,0.1c0,0,0-0.1,0.1-0.1c4-6.6,7.5-8.9,9.7-11.7c1.7-2.1,2.7-4.8,2.7-7.7
	C25.4,5.6,19.9,0.1,13.1,0z"/>
<path class="st1" d="M13.3,4.8c-4.1,0-7.5,3.4-7.5,7.5c0,4.1,3.4,7.5,7.5,7.5c4.1,0,7.5-3.4,7.5-7.5C20.8,8.2,17.4,4.8,13.3,4.8z
	 M15.8,7.3c0.7,0,1.3,0.6,1.3,1.3s-0.6,1.3-1.3,1.3s-1.3-0.6-1.3-1.3S15.1,7.3,15.8,7.3z M10.8,7.3c0.7,0,1.3,0.6,1.3,1.3
	s-0.6,1.3-1.3,1.3S9.6,9.3,9.6,8.6S10.1,7.3,10.8,7.3z M13.3,17.3c-2.8,0-5-1.7-5-3.7c0-0.7,0.6-1.3,1.3-1.3h7.5
	c0.7,0,1.3,0.6,1.3,1.3C18.3,15.7,16.1,17.3,13.3,17.3z"/>
</svg>
