<svg xmlns="http://www.w3.org/2000/svg" xmlns:xlink="http://www.w3.org/1999/xlink" preserveAspectRatio="xMidYMid" width="39.88" height="56.94" viewBox="0 0 39.88 56.94">
  <defs>
    <style>
      .cls-1 {
        fill: #5cde7b;
        stroke: #f7f7f7;
        stroke-width: 2px;
        fill-rule: evenodd;
      }
    </style>
  </defs>
  <path d="M21.940,57.932 C21.940,57.932 3.006,32.388 3.006,21.936 C3.006,11.484 11.483,3.011 21.940,3.011 C32.397,3.011 40.874,11.484 40.874,21.936 C40.874,32.388 21.940,57.932 21.940,57.932 ZM30.766,12.725 L29.228,11.196 L29.057,11.187 C28.482,11.153 27.413,11.016 26.990,10.791 C26.717,10.646 26.342,10.550 25.908,10.439 C25.201,10.258 24.322,10.033 23.986,9.578 C23.472,8.880 23.021,8.897 22.566,8.979 C22.370,9.015 22.202,9.045 21.955,8.968 C21.501,8.825 21.246,8.781 21.022,8.742 C20.789,8.701 20.588,8.666 20.161,8.523 C19.594,8.333 19.567,7.625 19.566,7.597 L19.563,7.416 L18.111,5.974 L18.216,7.195 C18.217,7.211 18.339,8.757 17.469,9.503 C17.345,9.609 17.192,9.727 17.021,9.860 C15.688,10.888 13.208,12.803 14.642,16.280 C15.211,17.659 15.801,18.722 16.322,19.659 C17.158,21.168 17.763,22.259 17.763,23.721 C17.763,25.921 14.467,27.324 14.434,27.338 L14.158,27.453 L14.158,29.094 L16.549,29.094 L16.554,29.948 C16.501,30.051 16.145,30.259 15.908,30.397 C15.151,30.841 14.113,31.447 14.113,32.675 C14.113,33.649 14.388,34.000 14.694,34.301 C14.779,34.384 14.840,34.445 14.878,34.547 C14.200,34.775 13.707,35.455 13.707,36.257 C13.707,37.245 14.455,38.048 15.375,38.048 L29.166,38.048 C30.086,38.048 30.833,37.245 30.833,36.257 C30.833,35.455 30.340,34.775 29.662,34.547 C29.700,34.445 29.762,34.384 29.846,34.301 C30.153,34.000 30.428,33.649 30.428,32.675 C30.428,31.447 29.390,30.841 28.632,30.398 C28.396,30.259 28.040,30.051 27.994,29.989 L27.994,29.015 C28.779,28.810 30.382,28.080 30.382,25.512 C30.382,22.791 26.083,18.027 24.766,16.632 C25.171,16.404 25.869,16.110 26.777,16.110 C27.047,16.110 27.167,16.150 27.212,16.171 C27.196,16.285 27.051,16.533 26.895,16.704 L26.207,17.454 L28.716,17.454 L30.774,16.091 L28.405,14.679 L28.466,14.618 L32.086,16.001 L30.766,12.725 ZM22.721,11.371 L22.138,11.950 L21.501,11.317 L22.721,10.105 L23.941,11.317 L23.304,11.950 L22.721,11.371 Z" class="cls-1"/>
</svg>
