<svg id="Layer_1" data-name="Layer 1" xmlns="http://www.w3.org/2000/svg" viewBox="0 0 24.9 32" width="39" height="48"><defs><style>.cls-1{fill:#ac9dfc;}.cls-2{fill:#fff;}</style></defs><title>art-pin</title><path class="cls-1" d="M13.1,0H12.9A12.46,12.46,0,0,0,.6,12.5a12.22,12.22,0,0,0,2.7,7.7C5.5,23,9,25.4,12.9,31.9a0.1,0.1,0,0,0,.1.1,0.1,0.1,0,0,1,.1-0.1c4-6.6,7.5-8.9,9.7-11.7a12.22,12.22,0,0,0,2.7-7.7A12.62,12.62,0,0,0,13.1,0Z" transform="translate(-0.6)"/><path class="cls-2" d="M18.7,7.3a8,8,0,0,0-11.2,0C5,9.7,4,14,6.3,16.3a4.19,4.19,0,0,0,2.9,1.4,5.32,5.32,0,0,0,2.6-.8,3.32,3.32,0,0,1,1.5-.5,0.86,0.86,0,0,1,.6.3,1.21,1.21,0,0,1,.3,1,1.63,1.63,0,0,0,.5,1.5,2,2,0,0,0,1.5.6,5.1,5.1,0,0,0,2.6-1.2A8.12,8.12,0,0,0,18.7,7.3ZM9,15.1a2.2,2.2,0,1,1,2.2-2.2A2.22,2.22,0,0,1,9,15.1Zm3.1-4.2A1.9,1.9,0,0,1,10.2,9a2,2,0,0,1,1.9-2A1.9,1.9,0,0,1,14,8.9,2,2,0,0,1,12.1,10.9Zm3.1-.6a1.6,1.6,0,1,1,1.6,1.6A1.58,1.58,0,0,1,15.2,10.3Zm2.3,5.8A1.5,1.5,0,1,1,19,14.6,1.47,1.47,0,0,1,17.5,16.1Z" transform="translate(-0.6)"/></svg>