<?xml version="1.0" encoding="utf-8"?>
<!-- Generator: Adobe Illustrator 19.2.1, SVG Export Plug-In . SVG Version: 6.00 Build 0)  -->
<svg version="1.1" id="Layer_1" xmlns="http://www.w3.org/2000/svg" xmlns:xlink="http://www.w3.org/1999/xlink" x="0px" y="0px"
	 viewBox="0 0 26 32" style="enable-background:new 0 0 26 32;" xml:space="preserve" width="39" height="48">
<style type="text/css">
	.st0{fill:#00BFF3;}
	.st1{fill:#FFFFFF;}
</style>
<path class="st0" d="M13.1,0C13,0,13,0,13.1,0C13,0,13,0,12.9,0C6.1,0.1,0.6,5.6,0.6,12.5c0,2.9,1,5.6,2.7,7.7
	C5.5,23,9,25.4,12.9,31.9c0,0,0,0.1,0.1,0.1c0,0,0-0.1,0.1-0.1c4-6.6,7.5-8.9,9.7-11.7c1.7-2.1,2.7-4.8,2.7-7.7
	C25.4,5.6,19.9,0.1,13.1,0z"/>
<g>
	<path class="st1" d="M8.8,10.6c1.1-0.2,1.9-1.1,1.9-2.2c0-1.2-1-2.3-2.3-2.3s-2.3,1-2.3,2.3c0,1.1,0.8,2,1.9,2.2l-4,6.8
		C4,17.4,4,17.5,4,17.6c0.1,0.1,0.1,0.1,0.2,0.1h8.3c0.1,0,0.2-0.1,0.2-0.1c0.1-0.1,0.1-0.2,0-0.3L8.8,10.6z"/>
	<path class="st1" d="M22,10.2c-0.1-0.1-0.1-0.1-0.2-0.1H19c0.5-0.4,0.8-1,0.8-1.7c0-1.2-1-2.3-2.3-2.3c-1.3,0-2.3,1-2.3,2.3
		c0,0.7,0.3,1.3,0.8,1.7h-2.7c-0.1,0-0.2,0.1-0.2,0.1c-0.1,0.1-0.1,0.2,0,0.3l4.2,7.1c0.1,0.1,0.1,0.1,0.2,0.1s0.2-0.1,0.2-0.1
		l4.1-7.1C22,10.4,22,10.3,22,10.2z"/>
</g>
</svg>
