<svg xmlns="http://www.w3.org/2000/svg" xmlns:xlink="http://www.w3.org/1999/xlink" preserveAspectRatio="xMidYMid" width="24" height="15" viewBox="0 0 24 15">
  <defs>
    <style>
      .cls-1 {
        fill: #7686ff;
        fill-rule: evenodd;
      }
    </style>
  </defs>
  <path d="M20.301,14.062 C18.917,14.062 17.994,15.000 16.610,15.000 C15.226,15.000 14.303,14.062 12.919,14.062 C11.535,14.062 10.612,15.000 9.228,15.000 C7.844,15.000 6.921,14.062 5.537,14.062 C4.153,14.062 3.230,15.000 1.846,15.000 C1.154,15.000 0.577,14.766 0.000,14.531 L0.000,11.716 C0.577,11.951 1.154,12.184 1.846,12.184 C3.230,12.184 4.153,11.246 5.537,11.246 C6.921,11.246 7.844,12.184 9.228,12.184 C10.612,12.184 11.535,11.246 12.919,11.246 C14.303,11.246 15.226,12.184 16.610,12.184 C17.994,12.184 18.917,11.246 20.301,11.246 C21.684,11.246 22.608,12.184 23.991,12.184 L23.991,15.000 C23.991,15.000 21.684,14.062 20.301,14.062 ZM16.610,9.369 C15.226,9.369 14.303,8.430 12.919,8.430 C11.535,8.430 10.612,9.369 9.228,9.369 C7.844,9.369 6.921,8.430 5.537,8.430 C4.153,8.430 3.230,9.369 1.846,9.369 C1.154,9.369 0.577,9.135 0.000,8.900 L0.000,6.085 C0.577,6.320 1.154,6.553 1.846,6.553 C3.230,6.553 4.153,5.615 5.537,5.615 C6.921,5.615 7.844,6.553 9.228,6.553 C10.612,6.553 11.535,5.615 12.919,5.615 C14.303,5.615 15.226,6.553 16.610,6.553 C17.994,6.553 18.917,5.615 20.301,5.615 C21.684,5.615 22.608,6.553 23.991,6.553 L23.991,9.369 C23.991,9.369 21.684,8.430 20.301,8.430 C18.917,8.430 17.994,9.369 16.610,9.369 ZM16.610,3.755 C15.226,3.755 14.303,2.817 12.919,2.817 C11.534,2.817 10.612,3.755 9.227,3.755 C7.844,3.755 6.921,2.817 5.537,2.817 C4.152,2.817 3.230,3.755 1.846,3.755 C1.153,3.755 0.577,3.522 -0.000,3.287 L-0.000,0.472 C0.577,0.707 1.154,0.940 1.846,0.940 C3.230,0.940 4.153,0.002 5.537,0.002 C6.921,0.002 7.844,0.940 9.228,0.940 C10.612,0.940 11.535,0.002 12.919,0.002 C14.303,0.002 15.226,0.940 16.610,0.940 C17.994,0.940 18.917,0.002 20.301,0.002 C21.684,0.002 22.608,0.940 23.991,0.940 L23.991,3.755 C23.991,3.755 21.684,2.817 20.300,2.817 C18.916,2.817 17.994,3.755 16.610,3.755 Z" class="cls-1"/>
</svg>
