<svg xmlns="http://www.w3.org/2000/svg" xmlns:xlink="http://www.w3.org/1999/xlink" preserveAspectRatio="xMidYMid" width="49" height="58" viewBox="0 0 49 58">
  <defs>
    <style>
      .cls-1 {
        fill: #ff471a;
        fill-rule: evenodd;
      }
    </style>
  </defs>
  <path d="M48.120,2.503 L40.143,5.170 L37.585,13.494 L43.124,13.494 C43.495,13.494 43.849,13.655 44.092,13.936 C44.337,14.217 44.448,14.590 44.398,14.959 L38.662,56.879 C38.574,57.518 38.030,57.994 37.388,57.994 L17.312,57.994 C16.670,57.994 16.125,57.518 16.038,56.879 L11.346,22.590 C10.853,22.665 10.355,22.707 9.855,22.707 C4.425,22.707 0.008,18.276 0.008,12.830 C0.008,7.384 4.425,2.953 9.854,2.953 C13.663,2.953 17.167,5.191 18.780,8.656 C19.080,9.301 18.802,10.069 18.159,10.370 C17.516,10.671 16.751,10.392 16.450,9.747 C15.258,7.186 12.669,5.532 9.854,5.532 C5.843,5.532 2.580,8.806 2.580,12.830 C2.580,16.854 5.843,20.127 9.854,20.127 C10.237,20.127 10.617,20.088 10.994,20.028 L10.301,14.959 C10.250,14.590 10.361,14.218 10.606,13.936 C10.850,13.655 11.203,13.494 11.575,13.494 L34.894,13.494 L37.881,3.776 C38.003,3.378 38.309,3.064 38.702,2.932 L47.306,0.055 C47.982,-0.170 48.709,0.196 48.933,0.871 C49.157,1.547 48.793,2.278 48.120,2.503 ZM18.188,20.127 L32.855,20.127 L34.101,16.074 L13.049,16.074 L18.432,55.414 L36.266,55.414 L40.742,22.707 L18.188,22.707 C17.478,22.707 16.902,22.129 16.902,21.417 C16.902,20.705 17.478,20.127 18.188,20.127 ZM35.546,20.127 L41.095,20.127 L41.650,16.074 L36.792,16.074 L35.546,20.127 ZM22.769,29.354 C25.276,29.354 27.315,31.400 27.315,33.915 C27.315,36.431 25.276,38.476 22.769,38.476 C20.262,38.476 18.223,36.431 18.223,33.915 C18.223,31.400 20.262,29.354 22.769,29.354 ZM22.769,35.897 C23.857,35.897 24.744,35.008 24.744,33.915 C24.744,32.823 23.857,31.934 22.769,31.934 C21.680,31.934 20.794,32.823 20.794,33.915 C20.794,35.008 21.680,35.897 22.769,35.897 ZM29.615,40.280 C31.594,40.280 33.204,41.895 33.204,43.881 C33.204,45.867 31.594,47.482 29.615,47.482 C27.636,47.482 26.026,45.866 26.026,43.881 C26.026,41.895 27.636,40.280 29.615,40.280 ZM29.615,44.902 C30.176,44.902 30.633,44.444 30.633,43.881 C30.633,43.318 30.176,42.860 29.615,42.860 C29.054,42.860 28.598,43.318 28.598,43.881 C28.598,44.444 29.054,44.902 29.615,44.902 ZM31.229,35.214 C31.229,34.309 31.960,33.576 32.862,33.576 C33.765,33.576 34.496,34.309 34.496,35.214 C34.496,36.120 33.765,36.853 32.862,36.853 C31.960,36.853 31.229,36.120 31.229,35.214 Z" class="cls-1"/>
</svg>
