<svg xmlns="http://www.w3.org/2000/svg" xmlns:xlink="http://www.w3.org/1999/xlink" preserveAspectRatio="xMidYMid" width="18" height="23" viewBox="0 0 18 23">
  <defs>
    <style>
      .cls-1 {
        fill: #000;
        opacity: 0.4;
        fill-rule: evenodd;
      }
    </style>
  </defs>
  <path d="M17.992,13.972 L16.888,12.650 C16.236,11.869 15.205,11.554 14.250,11.752 C14.658,10.899 14.564,9.862 13.911,9.081 L12.808,7.760 L12.035,12.672 L10.943,13.452 L10.204,12.127 C10.080,11.903 10.056,11.652 10.066,11.399 L10.072,3.683 C10.072,3.683 10.809,3.823 11.233,3.827 C12.037,3.835 12.724,3.347 12.985,2.661 L10.072,2.633 L10.073,1.731 C10.073,1.731 11.010,1.412 11.430,1.320 C13.330,0.906 15.221,1.373 16.647,2.439 L16.711,2.381 C15.265,0.561 12.808,-0.388 10.335,0.152 C9.827,0.263 9.348,0.431 8.902,0.647 C8.616,0.785 8.346,0.953 8.084,1.131 L4.105,3.791 L4.413,4.552 L5.757,4.554 C5.521,5.122 5.197,5.432 4.734,5.728 L4.756,5.803 C5.768,5.784 6.657,5.298 7.202,4.555 L8.096,4.556 L5.152,8.073 L4.441,6.690 L2.729,6.672 C1.417,6.659 0.343,7.671 0.330,8.933 L1.987,8.948 L1.777,7.885 L3.599,7.903 L3.576,10.132 L1.109,10.074 L0.297,11.523 C-0.326,12.632 0.107,14.017 1.261,14.616 L2.047,13.213 L0.970,12.897 L1.834,11.353 L3.776,12.359 C3.976,12.914 4.319,13.418 4.783,13.818 L7.863,16.477 L7.239,15.948 L6.773,16.296 C5.783,16.971 5.189,18.062 5.177,19.230 C5.155,21.283 6.867,22.964 9.002,22.985 L9.116,22.986 C11.188,23.007 12.886,21.408 12.908,19.416 L12.909,19.306 C12.925,17.808 12.548,16.330 11.812,15.011 L11.654,14.727 L12.967,13.632 L17.992,13.972 ZM7.668,2.941 C7.671,2.682 7.892,2.473 8.163,2.477 C8.433,2.478 8.650,2.691 8.647,2.951 C8.644,3.211 8.422,3.419 8.152,3.417 C7.882,3.414 7.666,3.202 7.668,2.941 ZM9.927,19.230 C9.920,19.930 9.323,20.492 8.583,20.484 L8.520,20.483 C7.795,20.477 7.213,19.906 7.221,19.209 L7.221,19.167 C7.228,18.547 7.525,17.964 8.029,17.579 L8.626,17.136 L9.218,17.647 C9.675,18.042 9.934,18.607 9.928,19.196 L9.927,19.230 Z" class="cls-1"/>
</svg>
