<?xml version="1.0" encoding="utf-8"?>
<!-- Generator: Adobe Illustrator 19.2.1, SVG Export Plug-In . SVG Version: 6.00 Build 0)  -->
<svg version="1.1" id="Layer_1" xmlns="http://www.w3.org/2000/svg" xmlns:xlink="http://www.w3.org/1999/xlink" x="0px" y="0px"
	 viewBox="0 0 36.3 48.2" style="enable-background:new 0 0 36.3 48.2;" xml:space="preserve">
<style type="text/css">
	.st0{fill:#FFFFFF;}
</style>
<path class="st0" d="M3.3,31.2l1.5-3.1l-2.2-0.6l1.5-3.1l2.4,1.2c-0.1-0.7-0.1-2.6-0.1-4.1H2.6L1,24.6c-1.2,2.4-0.2,5.3,2.1,6.5
	L3.3,31.2z"/>
<path class="st0" d="M1,24.6l1.6-3.1h3.8c0,1.5,0.1,3.4,0.1,4.1l-2.4-1.2l-1.5,3.1l2.2,0.6l-1.5,3.1l-0.1-0.1
	C0.7,29.9-0.2,27,1,24.6L1,24.6z"/>
<path class="st0" d="M10.6,41.7c-0.1-0.3-0.2-0.7-0.2-1.1v-0.1l0-0.1l-0.1,0c-1.2-0.1-2.2-1.1-2.2-2.3V38H6.6v0.1
	c0,1.3-1.1,2.4-2.5,2.3c-0.6,0-1.2-0.3-1.6-0.7c-0.4-0.4-0.7-1-0.7-1.6V38H0.5v0.1c0,2.1,1.7,3.7,3.8,3.7c1.2,0,2.4-0.6,3.1-1.5
	c0.7,1,1.9,1.6,3.1,1.6h0l0.1,0L10.6,41.7z"/>
<path class="st0" d="M24.6,32.6l2.2-1.3l9,2.6l-1.6-3.3c-0.8-1.6-2.4-2.7-4.2-2.8c1-1.5,1.1-3.4,0.3-4.9l-1.7-3.3l-3.4,8.7l-2.3,1
	l-1.8-3.6c-0.2-0.4-0.3-0.9-0.3-1.4l0-16.1l0.1,0c0.7,0.1,1.4,0.2,2.1,0.3h0c1.6,0,3.1-1,3.7-2.6l0.1-0.2h-6V4.4l0,0
	c0.5-0.2,1.9-0.7,2.6-0.8c3.6-0.8,7.5,0,10.4,2.3L34.1,6l0.3-0.3l-0.1-0.1c-3.1-3.9-8.2-5.8-13.1-4.7c-1,0.2-2,0.6-2.9,1
	c-0.6,0.3-1.1,0.6-1.7,1L8.5,8.5l0.9,1.7h2.2l0,0.1c-0.3,1-1.1,1.9-2,2.4l0.1,0.2l0.1,0c2-0.1,3.9-1.1,5-2.7l0,0h1.8l-5,6.1l1.8,3.5
	h2.4v1.1h-3.1l0,0l-3.2-6.4H5.8c-2.7,0-4.8,2.1-4.9,4.8l0,0.1h3.5L4,17.1h3.5v4.2c0,4.1,0.3,4.8,0.3,4.8c0,0.1,0.1,0.2,0.1,0.4
	c0.5,1.2,1.2,2.2,2.2,3.1l4.4,3.9l3.2,2.9l1.9,1.6c0.4,0.3,0.6,0.7,0.7,1.2c0.1,0.2,0.1,0.4,0.1,0.6c0,0.6-0.3,1.3-0.8,1.7
	c-0.5,0.4-1.1,0.7-1.8,0.6c-1.3-0.2-2.2-1.3-2.1-2.5c0.1-1,0.5-1.9,1.2-2.5l-3.2-2.8c-1.7,1.6-2.6,3.9-2.4,6.3c0,0,0,0,0,0.1
	c0.4,4,3.8,7,7.8,7h0c2.3,0,4.6-1,6.1-2.8c1-1.2,1.7-2.8,1.8-4.4c0.1-1.4-0.1-2.7-0.6-4L24.6,32.6z M17.6,7.8L17.6,7.8
	c-0.2,0.2-0.5,0.3-0.8,0.3c-0.3,0-0.6-0.1-0.8-0.3c-0.2-0.2-0.3-0.5-0.3-0.8c0-0.3,0.1-0.6,0.3-0.8c0.2-0.2,0.5-0.3,0.8-0.3
	c0.3,0,0.6,0.1,0.8,0.3c0.2,0.2,0.3,0.5,0.3,0.8C17.9,7.3,17.8,7.6,17.6,7.8z"/>
</svg>
