<?xml version="1.0" encoding="utf-8"?>
<!-- Generator: Adobe Illustrator 19.2.1, SVG Export Plug-In . SVG Version: 6.00 Build 0)  -->
<svg version="1.1" id="Layer_1" xmlns="http://www.w3.org/2000/svg" xmlns:xlink="http://www.w3.org/1999/xlink" x="0px" y="0px"
	 viewBox="0 0 62 53.8" style="enable-background:new 0 0 62 53.8;" xml:space="preserve">
<path d="M0.6,10c0.1-2.2,2.1-4.4,5.7-6.1C9.9,2.1,15,1,20.7,1l0,0C26.3,1,31.4,2.1,35,3.8c3.5,1.7,5.6,3.9,5.7,6.2c0,0,0,0.1,0,0.1
	c0,0,0,0,0,0.1c0,1.6-1,3.3-2.9,4.7c0,0,0,0,0,0c-2.4,0.6-4.7,1.7-6.6,3.1c-3.1,0.9-6.6,1.4-10.4,1.4c-5.7,0-10.8-1.1-14.4-2.8
	c-3.4-1.6-5.4-3.7-5.6-5.9"/>
<path d="M0.7,14.3C1.8,15.7,3.5,17,5.6,18c3.9,1.9,9.2,3,15.1,3c2.7,0,5.3-0.2,7.7-0.7c-2.1,2.2-3.8,4.8-4.7,7.7c-1,0.1-2,0.1-3,0.1
	C15,28.1,9.9,27,6.3,25.3c-3.6-1.7-5.6-4-5.6-6.3c0,0,0-0.1,0-0.4V14V14.3z"/>
<path d="M42.7,15.8c10.3,0,18.5,8.3,18.5,18.6C61.3,44.7,53,53,42.7,53c-10.2,0-18.5-8.3-18.5-18.6C24.2,24.1,32.5,15.8,42.7,15.8
	L42.7,15.8z"/>
<path d="M0.7,23.1c1.1,1.4,2.9,2.7,4.9,3.7c3.9,1.9,9.2,3,15.1,3c0.9,0,1.7,0,2.5-0.1c-0.4,1.5-0.6,3.2-0.6,4.8c0,1,0.1,2,0.2,3
	c-0.7,0.1-1.4,0.1-2.2,0.1c-5.7,0-10.7-1.1-14.4-2.8c-3.6-1.7-5.6-4-5.6-6.4c0,0,0-0.1,0-0.1L0.7,23.1L0.7,23.1z"/>
<path d="M0.7,32.4C1.8,33.8,3.5,35,5.6,36c3.9,1.9,9.2,3,15.1,3c0.8,0,1.6,0,2.5-0.1c0.6,2.4,1.5,4.6,2.9,6.6
	c-1.7,0.2-3.4,0.4-5.3,0.4C15,45.9,9.9,44.8,6.3,43c-3.6-1.7-5.6-4-5.6-6.3L0.7,32.4L0.7,32.4z"/>
</svg>
