<svg xmlns="http://www.w3.org/2000/svg" xmlns:xlink="http://www.w3.org/1999/xlink" preserveAspectRatio="xMidYMid" width="16.68" height="18" viewBox="0 0 16.68 18">
  <defs>
    <style>
      .cls-1 {
        fill: #282828;
        fill-rule: evenodd;
      }
    </style>
  </defs>
  <path d="M14.234,8.540 L6.625,15.940 C6.016,16.540 5.201,16.860 4.347,16.860 C3.493,16.860 2.679,16.540 2.069,15.940 C0.807,14.700 0.807,12.700 2.069,11.460 L11.386,1.840 C11.854,1.380 12.464,1.140 13.095,1.140 C13.725,1.140 14.356,1.380 14.804,1.840 C15.760,2.780 15.760,4.280 14.804,5.220 L6.422,13.380 C6.198,13.600 5.872,13.740 5.547,13.740 C5.221,13.740 4.917,13.620 4.673,13.380 C4.448,13.160 4.306,12.840 4.306,12.520 C4.306,12.200 4.428,11.900 4.673,11.660 L11.081,5.440 L10.267,4.640 L3.858,10.860 C2.923,11.780 2.923,13.260 3.858,14.180 C4.327,14.640 4.937,14.860 5.547,14.860 C6.158,14.860 6.768,14.640 7.235,14.180 L15.638,6.020 C17.042,4.640 17.042,2.420 15.638,1.040 C14.946,0.340 14.031,-0.000 13.115,-0.000 C12.200,-0.000 11.284,0.340 10.572,1.040 L1.254,10.660 C-0.454,12.340 -0.454,15.060 1.254,16.740 C2.109,17.580 3.228,18.000 4.347,18.000 C5.466,18.000 6.584,17.580 7.440,16.740 L15.048,9.340 L14.234,8.540 Z" class="cls-1"/>
</svg>
