<?xml version="1.0" encoding="utf-8"?>
<!-- Generator: Adobe Illustrator 19.2.1, SVG Export Plug-In . SVG Version: 6.00 Build 0)  -->
<svg version="1.1" id="Layer_1" xmlns="http://www.w3.org/2000/svg" xmlns:xlink="http://www.w3.org/1999/xlink" x="0px" y="0px"
	 viewBox="0 0 80 80" style="enable-background:new 0 0 80 80;" xml:space="preserve">
<style type="text/css">
	.st0{fill:#FBD746;}
</style>
<g>
	<path class="st0" d="M40.1,52.9c-1.8,0-3.6-0.4-5.3-1.2c-6.5-2.9-9.4-10.6-6.4-17.1C30.5,30,35.1,27,40.2,27c1.8,0,3.6,0.4,5.3,1.2
		c6.5,2.9,9.4,10.6,6.4,17.1C49.8,49.9,45.2,52.9,40.1,52.9z"/>
</g>
<g>
	<path class="st0" d="M62.4,51.1c-0.1,0-0.3,0-0.4-0.1l-5.9-2.7c-0.5-0.2-0.8-0.9-0.5-1.4c0.2-0.5,0.9-0.8,1.4-0.5l5.9,2.7
		c0.5,0.2,0.8,0.9,0.5,1.4C63.1,50.9,62.8,51.1,62.4,51.1z"/>
</g>
<g>
	<path class="st0" d="M23.7,33.6c-0.1,0-0.3,0-0.4-0.1l-5.9-2.7c-0.5-0.2-0.8-0.9-0.5-1.4c0.2-0.5,0.9-0.8,1.4-0.5l5.9,2.7
		c0.5,0.2,0.8,0.9,0.5,1.4C24.5,33.4,24.1,33.6,23.7,33.6z"/>
</g>
<g>
	<path class="st0" d="M47.5,24.7c-0.1,0-0.3,0-0.4-0.1c-0.5-0.2-0.8-0.9-0.5-1.4l2.7-5.9c0.2-0.5,0.9-0.8,1.4-0.5
		c0.5,0.2,0.8,0.9,0.5,1.4l-2.7,5.9C48.3,24.4,47.9,24.7,47.5,24.7z"/>
</g>
<g>
	<path class="st0" d="M30,63.3c-0.1,0-0.3,0-0.4-0.1c-0.5-0.2-0.8-0.9-0.5-1.4l2.7-5.9c0.2-0.5,0.9-0.8,1.4-0.5
		c0.5,0.2,0.8,0.9,0.5,1.4L31,62.7C30.8,63.1,30.4,63.3,30,63.3z"/>
</g>
<g>
	<path class="st0" d="M56.9,34.7c-0.4,0-0.8-0.3-1-0.7c-0.2-0.5,0.1-1.1,0.6-1.3l6-2.3c0.5-0.2,1.1,0.1,1.3,0.6
		c0.2,0.5-0.1,1.1-0.6,1.3l-6,2.3C57.2,34.7,57,34.7,56.9,34.7z"/>
</g>
<g>
	<path class="st0" d="M17.2,49.7c-0.4,0-0.8-0.3-1-0.7c-0.2-0.5,0.1-1.1,0.6-1.3l6-2.3c0.5-0.2,1.1,0.1,1.3,0.6s-0.1,1.1-0.6,1.3
		l-6,2.3C17.5,49.6,17.4,49.7,17.2,49.7z"/>
</g>
<g>
	<path class="st0" d="M33.8,24.2c-0.4,0-0.8-0.3-1-0.7l-2.3-6c-0.2-0.5,0.1-1.1,0.6-1.3c0.5-0.2,1.1,0.1,1.3,0.6l2.3,6
		c0.2,0.5-0.1,1.1-0.6,1.3C34,24.2,33.9,24.2,33.8,24.2z"/>
</g>
<g>
	<path class="st0" d="M48.7,63.9c-0.4,0-0.8-0.3-1-0.7l-2.3-6c-0.2-0.5,0.1-1.1,0.6-1.3s1.1,0.1,1.3,0.6l2.3,6
		c0.2,0.5-0.1,1.1-0.6,1.3C49,63.9,48.8,63.9,48.7,63.9z"/>
</g>
</svg>
