<?xml version="1.0" encoding="utf-8"?>
<!-- Generator: Adobe Illustrator 19.2.1, SVG Export Plug-In . SVG Version: 6.00 Build 0)  -->
<svg version="1.1" id="Layer_1" xmlns="http://www.w3.org/2000/svg" xmlns:xlink="http://www.w3.org/1999/xlink" x="0px" y="0px"
	 viewBox="0 0 80 80" style="enable-background:new 0 0 80 80;" xml:space="preserve">
<style type="text/css">
	.st0{fill:#ABDDDA;}
	.st1{fill:#FBD746;}
</style>
<g>
	<g>
		<path class="st0" d="M47.5,63.5h-30c-5,0-9-4-9-9s4-9,9-9c0.2,0,0.3,0,0.5,0c1.5-6.7,7.5-11.7,14.5-11.7s13,4.9,14.5,11.7
			c0.2,0,0.4,0,0.5,0c5,0,9,4,9,9S52.5,63.5,47.5,63.5z"/>
	</g>
</g>
<g>
	<path class="st1" d="M70.1,51.5c-0.1,0-0.3,0-0.4-0.1l-5.9-2.7c-0.5-0.2-0.8-0.9-0.5-1.4c0.2-0.5,0.9-0.8,1.4-0.5l5.9,2.7
		c0.5,0.2,0.8,0.9,0.5,1.4C70.9,51.3,70.5,51.5,70.1,51.5z"/>
</g>
<g>
	<path class="st1" d="M55.2,25.1c-0.1,0-0.3,0-0.4-0.1c-0.5-0.2-0.8-0.9-0.5-1.4l2.7-5.9c0.2-0.5,0.9-0.8,1.4-0.5
		c0.5,0.2,0.8,0.9,0.5,1.4l-2.7,5.9C56,24.8,55.6,25.1,55.2,25.1z"/>
</g>
<g>
	<path class="st1" d="M64.6,35.1c-0.4,0-0.8-0.3-1-0.7c-0.2-0.5,0.1-1.1,0.6-1.3l6-2.3c0.5-0.2,1.1,0.1,1.3,0.6
		c0.2,0.5-0.1,1.1-0.6,1.3l-6,2.3C64.9,35.1,64.8,35.1,64.6,35.1z"/>
</g>
<g>
	<path class="st1" d="M41.5,24.6c-0.4,0-0.8-0.3-1-0.7l-2.3-6c-0.2-0.5,0.1-1.1,0.6-1.3c0.5-0.2,1.1,0.1,1.3,0.6l2.3,6
		c0.2,0.5-0.1,1.1-0.6,1.3C41.7,24.6,41.6,24.6,41.5,24.6z"/>
</g>
<path class="st1" d="M49.3,42.6c3.7,0.6,6.9,2.9,8.7,6c1.8-2.2,2.9-5.1,2.9-8.2c0-7.2-5.8-13-13-13c-3.8,0-7.2,1.6-9.6,4.2
	C43.3,33.4,47.4,37.4,49.3,42.6z"/>
</svg>
