<?xml version="1.0" encoding="utf-8"?>
<!-- Generator: Adobe Illustrator 19.2.1, SVG Export Plug-In . SVG Version: 6.00 Build 0)  -->
<svg version="1.1" id="Layer_1" xmlns="http://www.w3.org/2000/svg" xmlns:xlink="http://www.w3.org/1999/xlink" x="0px" y="0px"
	 viewBox="0 0 80 80" style="enable-background:new 0 0 80 80;" xml:space="preserve">
<style type="text/css">
	.st0{fill:#ABDDDA;}
	.st1{fill:#25336D;}
</style>
<g>
	<path class="st0" d="M48.7,62.7h-30c-5,0-9-4-9-9s4-9,9-9c0.2,0,0.3,0,0.5,0C20.7,38,26.7,33,33.7,33s13,4.9,14.5,11.7
		c0.2,0,0.4,0,0.5,0c5,0,9,4,9,9S53.7,62.7,48.7,62.7z"/>
</g>
<path class="st1" d="M70.2,46.5c-0.1-0.4-0.6-0.6-1-0.6c-0.5,0.1-1,0.1-1.5,0.1c-6,0-11.6-3.6-14.2-9.1c-2.8-6-1.5-13.1,3.2-17.8
	c0.3-0.3,0.4-0.8,0.2-1.2c-0.1-0.4-0.6-0.6-1-0.6c-2,0.2-4,0.7-5.8,1.6c-4.3,2-7.6,5.5-9.2,10c-0.3,0.9-0.6,1.9-0.7,2.9
	c4.7,1.8,8.3,5.6,9.9,10.6c5.4,0.5,9.6,4.9,9.9,10.3c1.8-0.2,3.5-0.8,5.1-1.5c1.8-0.8,3.5-2,4.9-3.4C70.3,47.4,70.4,46.9,70.2,46.5z
	"/>
</svg>
