<?xml version="1.0" encoding="utf-8"?>
<!-- Generator: Adobe Illustrator 19.2.1, SVG Export Plug-In . SVG Version: 6.00 Build 0)  -->
<svg version="1.1" id="Layer_1" xmlns="http://www.w3.org/2000/svg" xmlns:xlink="http://www.w3.org/1999/xlink" x="0px" y="0px"
	 viewBox="0 0 80 80" style="enable-background:new 0 0 80 80;" xml:space="preserve">
<style type="text/css">
	.st0{fill:#ABDDDA;}
	.st1{fill:#95B5B2;}
</style>
<g>
	<path class="st0" d="M25.5,67.2c-0.1,0-0.3,0-0.4-0.1c-0.5-0.2-0.8-0.8-0.6-1.4L26,62c0.2-0.5,0.8-0.8,1.4-0.6
		c0.5,0.2,0.8,0.8,0.6,1.4l-1.5,3.7C26.3,66.9,25.9,67.2,25.5,67.2z"/>
</g>
<g>
	<path class="st0" d="M28.8,59.2c-0.1,0-0.3,0-0.4-0.1c-0.5-0.2-0.8-0.8-0.6-1.4l4-9.7c0.2-0.5,0.8-0.8,1.4-0.6
		c0.5,0.2,0.8,0.8,0.6,1.4l-4,9.7C29.6,58.9,29.2,59.2,28.8,59.2z"/>
</g>
<g>
	<path class="st0" d="M39.7,65.2c-0.1,0-0.3,0-0.4-0.1c-0.5-0.2-0.8-0.8-0.6-1.4l2.3-5.5c0.2-0.5,0.8-0.8,1.4-0.6
		c0.5,0.2,0.8,0.8,0.6,1.4l-2.3,5.5C40.5,65,40.1,65.2,39.7,65.2z"/>
</g>
<g>
	<path class="st0" d="M43.7,55.7c-0.1,0-0.3,0-0.4-0.1c-0.5-0.2-0.8-0.8-0.6-1.4l2.6-6.2c0.2-0.5,0.8-0.8,1.4-0.6
		c0.5,0.2,0.8,0.8,0.6,1.4L44.7,55C44.5,55.4,44.1,55.7,43.7,55.7z"/>
</g>
<g>
	<path class="st0" d="M14.4,61.6c-0.1,0-0.3,0-0.4-0.1c-0.5-0.2-0.8-0.8-0.6-1.4l2.4-5.8c0.2-0.5,0.8-0.8,1.4-0.6
		c0.5,0.2,0.8,0.8,0.6,1.4l-2.4,5.8C15.2,61.4,14.8,61.6,14.4,61.6z"/>
</g>
<g>
	<path class="st0" d="M18.6,51.4c-0.1,0-0.3,0-0.4-0.1c-0.5-0.2-0.8-0.8-0.6-1.4l0.8-1.9c0.2-0.5,0.8-0.8,1.4-0.6
		c0.5,0.2,0.8,0.8,0.6,1.4l-0.8,1.9C19.4,51.1,19,51.4,18.6,51.4z"/>
</g>
<g>
	<g>
		<path class="st0" d="M48.5,44.7h-30c-5,0-9-4-9-9s4-9,9-9c0.2,0,0.3,0,0.5,0c1.5-6.7,7.5-11.6,14.5-11.6S46.5,20,48,26.8
			c0.2,0,0.4,0,0.5,0c5,0,9,4,9,9S53.5,44.7,48.5,44.7z"/>
	</g>
</g>
<path class="st1" d="M63.5,21.9c-0.1,0-0.2,0-0.4,0c-1.2-5.3-5.8-9.1-11.3-9.1c-2.5,0-4.9,0.8-6.8,2.2c2.6,2,4.7,4.8,6,8
	c6,1.2,10.5,6.4,10.5,12.8c0,0,0,0,0,0.1h2c3.9,0,7-3,7-6.9C70.5,25,67.4,21.9,63.5,21.9z"/>
</svg>
