<?xml version="1.0" encoding="utf-8"?>
<!-- Generator: Adobe Illustrator 19.2.1, SVG Export Plug-In . SVG Version: 6.00 Build 0)  -->
<svg version="1.1" id="Layer_1" xmlns="http://www.w3.org/2000/svg" xmlns:xlink="http://www.w3.org/1999/xlink" x="0px" y="0px"
	 viewBox="0 0 80 80" style="enable-background:new 0 0 80 80;" xml:space="preserve">
<style type="text/css">
	.st0{fill:#ABDDDA;}
	.st1{fill:#25336D;}
</style>
<g>
	<path class="st0" d="M26.5,76.7c-0.1,0-0.3,0-0.4-0.1c-0.5-0.2-0.8-0.8-0.6-1.4l1.5-3.7c0.2-0.5,0.8-0.8,1.4-0.6
		c0.5,0.2,0.8,0.8,0.6,1.4L27.5,76C27.3,76.5,26.9,76.7,26.5,76.7z"/>
</g>
<g>
	<path class="st0" d="M29.8,68.7c-0.1,0-0.3,0-0.4-0.1c-0.5-0.2-0.8-0.8-0.6-1.4l4-9.7c0.2-0.5,0.8-0.8,1.4-0.6
		c0.5,0.2,0.8,0.8,0.6,1.4l-4,9.7C30.6,68.5,30.2,68.7,29.8,68.7z"/>
</g>
<g>
	<path class="st0" d="M40.7,74.8c-0.1,0-0.3,0-0.4-0.1c-0.5-0.2-0.8-0.8-0.6-1.4l2.3-5.5c0.2-0.5,0.8-0.8,1.4-0.6
		c0.5,0.2,0.8,0.8,0.6,1.4l-2.3,5.5C41.5,74.6,41.1,74.8,40.7,74.8z"/>
</g>
<g>
	<path class="st0" d="M44.7,65.2c-0.1,0-0.3,0-0.4-0.1c-0.5-0.2-0.8-0.8-0.6-1.4l2.6-6.2c0.2-0.5,0.8-0.8,1.4-0.6
		c0.5,0.2,0.8,0.8,0.6,1.4l-2.6,6.2C45.5,65,45.1,65.2,44.7,65.2z"/>
</g>
<g>
	<path class="st0" d="M15.4,71.2c-0.1,0-0.3,0-0.4-0.1c-0.5-0.2-0.8-0.8-0.6-1.4l2.4-5.8c0.2-0.5,0.8-0.8,1.4-0.6
		c0.5,0.2,0.8,0.8,0.6,1.4l-2.4,5.8C16.2,70.9,15.8,71.2,15.4,71.2z"/>
</g>
<g>
	<path class="st0" d="M19.6,60.9c-0.1,0-0.3,0-0.4-0.1c-0.5-0.2-0.8-0.8-0.6-1.4l0.8-1.9c0.2-0.5,0.8-0.8,1.4-0.6
		c0.5,0.2,0.8,0.8,0.6,1.4l-0.8,1.9C20.4,60.7,20.1,60.9,19.6,60.9z"/>
</g>
<g>
	<path class="st0" d="M49.5,54.3h-30c-5,0-9-4-9-9s4-9,9-9c0.2,0,0.3,0,0.5,0c1.5-6.7,7.5-11.7,14.5-11.7s13,4.9,14.5,11.7
		c0.2,0,0.4,0,0.5,0c5,0,9,4,9,9S54.5,54.3,49.5,54.3z"/>
</g>
<path class="st1" d="M71,38.1c-0.1-0.4-0.6-0.6-1-0.6c-0.5,0.1-1,0.1-1.5,0.1c-6,0-11.6-3.6-14.2-9.1c-2.8-6-1.5-13.1,3.2-17.8
	c0.3-0.3,0.4-0.8,0.2-1.2c-0.1-0.4-0.6-0.6-1-0.6c-2,0.2-4,0.7-5.8,1.6c-4.3,2-7.6,5.5-9.2,10c-0.3,0.9-0.6,1.9-0.7,2.9
	c4.7,1.8,8.3,5.6,9.9,10.6c5.4,0.5,9.6,4.9,9.9,10.3c1.8-0.2,3.5-0.8,5.1-1.5c1.8-0.8,3.5-2,4.9-3.4C71.1,39,71.2,38.5,71,38.1z"/>
</svg>
