<?xml version="1.0" encoding="utf-8"?>
<!-- Generator: Adobe Illustrator 19.2.1, SVG Export Plug-In . SVG Version: 6.00 Build 0)  -->
<svg version="1.1" id="Layer_1" xmlns="http://www.w3.org/2000/svg" xmlns:xlink="http://www.w3.org/1999/xlink" x="0px" y="0px"
	 viewBox="0 0 80 80" style="enable-background:new 0 0 80 80;" xml:space="preserve">
<style type="text/css">
	.st0{fill:#ABDDDA;}
	.st1{fill:#FBD746;}
</style>
<g>
	<path class="st0" d="M51.1,61.9c-0.1,0-0.3,0-0.4-0.1c-0.5-0.2-0.8-0.8-0.6-1.4l2.3-5.5c0.2-0.5,0.8-0.8,1.4-0.6
		c0.5,0.2,0.8,0.8,0.6,1.4L52,61.2C51.9,61.6,51.5,61.9,51.1,61.9z"/>
</g>
<g>
	<path class="st0" d="M55,52.3c-0.1,0-0.3,0-0.4-0.1c-0.5-0.2-0.8-0.8-0.6-1.4l2.6-6.2c0.2-0.5,0.8-0.8,1.4-0.6
		c0.5,0.2,0.8,0.8,0.6,1.4L56,51.7C55.8,52.1,55.4,52.3,55,52.3z"/>
</g>
<g>
	<path class="st0" d="M20.2,58.9c-0.1,0-0.3,0-0.4-0.1c-0.5-0.2-0.8-0.8-0.6-1.4l2.4-5.8c0.2-0.5,0.8-0.8,1.4-0.6
		c0.5,0.2,0.8,0.8,0.6,1.4l-2.4,5.8C21,58.7,20.6,58.9,20.2,58.9z"/>
</g>
<g>
	<path class="st0" d="M24.4,48.7c-0.1,0-0.3,0-0.4-0.1c-0.5-0.2-0.8-0.8-0.6-1.4l0.8-1.9c0.2-0.5,0.8-0.8,1.4-0.6
		c0.5,0.2,0.8,0.8,0.6,1.4L25.4,48C25.2,48.5,24.9,48.7,24.4,48.7z"/>
</g>
<g>
	<path class="st0" d="M55,41.2H25c-5,0-9-4-9-9s4-9,9-9c0.2,0,0.3,0,0.5,0C27,16.4,33,11.5,40,11.5s13,4.9,14.5,11.7
		c0.2,0,0.4,0,0.5,0c5,0,9,4,9,9S60,41.2,55,41.2z"/>
</g>
<g>
	<path class="st1" d="M31.8,43.1l11.6,0.1c0.6,0.1,0.9,0.7,0.7,1.3l-0.8,2.9l4.9,4.7c0.4,0.4,0.4,1,0.1,1.4L37.2,68.1
		c-0.2,0.3-0.5,0.4-0.8,0.4c-0.1,0-0.3,0-0.4-0.1c-0.4-0.2-0.7-0.6-0.6-1.1l1.4-12.5l-4.8-2c-0.3-0.1-0.6-0.4-0.6-0.8l-1.2-7.7
		c-0.1-0.6,0.3-1.1,0.9-1.2H31.8z"/>
</g>
</svg>
