<?xml version="1.0" encoding="utf-8"?>
<!-- Generator: Adobe Illustrator 19.2.1, SVG Export Plug-In . SVG Version: 6.00 Build 0)  -->
<svg version="1.1" id="Layer_1" xmlns="http://www.w3.org/2000/svg" xmlns:xlink="http://www.w3.org/1999/xlink" x="0px" y="0px"
	 viewBox="0 0 80 80" style="enable-background:new 0 0 80 80;" xml:space="preserve">
<style type="text/css">
	.st0{fill:#25336D;}
</style>
<path class="st0" d="M60.7,39h-4l2.6-1.7c0.5-0.3,0.6-1,0.3-1.4c-0.3-0.5-1-0.6-1.4-0.3L52.8,39H42.5l7.2-7.2l6.2-1.4
	c0.6-0.1,0.9-0.7,0.8-1.2c-0.1-0.6-0.7-0.9-1.2-0.8l-3,0.7l2.8-2.8c0.4-0.4,0.4-1.1,0-1.5s-1.1-0.4-1.5,0L51,27.6l0.7-3
	c0.1-0.6-0.2-1.1-0.8-1.2c-0.6-0.1-1.1,0.2-1.2,0.8l-1.4,6.2L41,37.6V27.3l3.4-5.4c0.3-0.5,0.2-1.1-0.3-1.4s-1.1-0.2-1.4,0.3
	L41,23.4v-4c0-0.6-0.5-1-1-1s-1,0.5-1,1v4l-1.7-2.6c-0.3-0.5-1-0.6-1.4-0.3c-0.5,0.3-0.6,1-0.3,1.4l3.4,5.4v10.3l-7.2-7.2l-1.4-6.2
	c-0.1-0.6-0.7-0.9-1.2-0.8c-0.6,0.1-0.9,0.7-0.8,1.2l0.7,3l-2.8-2.8c-0.4-0.4-1.1-0.4-1.5,0s-0.4,1.1,0,1.5l2.8,2.8l-3-0.7
	c-0.6-0.1-1.1,0.2-1.2,0.8c-0.1,0.6,0.2,1.1,0.8,1.2l6.2,1.4l7.2,7.2H27.2l-5.3-3.4c-0.5-0.3-1.1-0.2-1.4,0.3s-0.2,1.1,0.3,1.4
	l2.6,1.7h-4c-0.6,0-1,0.5-1,1s0.5,1,1,1h4l-2.6,1.7c-0.5,0.3-0.6,1-0.3,1.4c0.2,0.3,0.5,0.5,0.9,0.5c0.2,0,0.4-0.1,0.6-0.2l5.4-3.4
	h10.2l-7.2,7.2L24,49.7c-0.6,0.1-0.9,0.7-0.8,1.2c0.1,0.5,0.5,0.8,1,0.8c0.1,0,0.2,0,0.2,0l3-0.7l-2.8,2.8c-0.4,0.4-0.4,1.1,0,1.5
	c0.2,0.2,0.5,0.3,0.7,0.3s0.5-0.1,0.7-0.3l3-2.7l-0.7,3c-0.1,0.6,0.2,1.1,0.8,1.2c0.1,0,0.2,0,0.2,0c0.5,0,0.9-0.3,1-0.8l1.4-6.2
	l7.3-7.2v10.2l-3.4,5.4c-0.3,0.5-0.2,1.1,0.3,1.4c0.2,0.1,0.4,0.2,0.6,0.2c0.3,0,0.7-0.2,0.9-0.5l1.7-2.6v4c0,0.6,0.5,1,1,1
	s1-0.5,1-1v-4l1.7,2.6c0.2,0.3,0.5,0.5,0.9,0.5c0.2,0,0.4-0.1,0.6-0.2c0.5-0.3,0.6-1,0.3-1.4L41,52.8V42.6l7.2,7.2l1.4,6.2
	c0.1,0.5,0.5,0.8,1,0.8c0.1,0,0.2,0,0.2,0c0.6-0.1,0.9-0.7,0.8-1.2l-0.6-3l2.8,2.8c0.2,0.2,0.5,0.3,0.7,0.3s0.5-0.1,0.7-0.3
	c0.4-0.4,0.4-1.1,0-1.5l-2.8-2.8l3,0.7c0.1,0,0.2,0,0.2,0c0.5,0,0.9-0.3,1-0.8c0.1-0.6-0.2-1.1-0.8-1.2l-6.2-1.4l-7.2-7.2h10.2
	l5.4,3.4c0.2,0.1,0.4,0.2,0.6,0.2c0.3,0,0.7-0.2,0.9-0.5c0.3-0.5,0.2-1.1-0.3-1.4l-2.6-1.7h4c0.6,0,1-0.5,1-1
	C61.6,39.7,61.2,39,60.7,39z"/>
</svg>
