<?xml version="1.0" encoding="utf-8"?>
<!-- Generator: Adobe Illustrator 19.2.1, SVG Export Plug-In . SVG Version: 6.00 Build 0)  -->
<svg version="1.1" id="Layer_1" xmlns="http://www.w3.org/2000/svg" xmlns:xlink="http://www.w3.org/1999/xlink" x="0px" y="0px"
	 viewBox="0 0 80 80" style="enable-background:new 0 0 80 80;" xml:space="preserve">
<style type="text/css">
	.st0{fill:#ABDDDA;}
</style>
<path class="st0" d="M63.5,54.2c0,0.6-0.5,1.1-1.1,1.1H16.3c-0.6,0-1.1-0.5-1.1-1.1c0-0.6,0.5-1.1,1.1-1.1h46.1
	C63,53.1,63.5,53.6,63.5,54.2z M67.4,48.3H12.6c-0.6,0-1.1,0.5-1.1,1.1c0,0.6,0.5,1.1,1.1,1.1h54.8c0.6,0,1.1-0.5,1.1-1.1
	C68.5,48.8,68,48.3,67.4,48.3z M69.3,43.6H10.7c-0.6,0-1.1,0.5-1.1,1.1c0,0.6,0.5,1.1,1.1,1.1h58.5c0.6,0,1.1-0.5,1.1-1.1
	C70.4,44.1,69.9,43.6,69.3,43.6z M11.8,41.1h57.5c0.6,0,1.1-0.5,1.1-1.1c0-0.6-0.5-1.1-1.1-1.1H11.8c-0.6,0-1.1,0.5-1.1,1.1
	C10.7,40.6,11.1,41.1,11.8,41.1z M19,36.4H65c0.6,0,1.1-0.5,1.1-1.1s-0.5-1.1-1.1-1.1H19c-0.6,0-1.1,0.5-1.1,1.1
	C17.9,35.9,18.4,36.4,19,36.4z M22.6,31.7h35.5c0.6,0,1.1-0.5,1.1-1.1c0-0.6-0.5-1.1-1.1-1.1H22.6c-0.6,0-1.1,0.5-1.1,1.1
	S22,31.7,22.6,31.7z M27.1,26.9h24.6c0.6,0,1.1-0.5,1.1-1.1c0-0.6-0.5-1.1-1.1-1.1H27.1c-0.6,0-1.1,0.5-1.1,1.1
	C26,26.4,26.5,26.9,27.1,26.9z"/>
</svg>
