<svg xmlns="http://www.w3.org/2000/svg" xmlns:xlink="http://www.w3.org/1999/xlink" preserveAspectRatio="xMidYMid" width="44" height="62.44" viewBox="0 0 44 62.44">
  <defs>
    <style>
      .cls-1 {
        fill: #fb985c;
        stroke: #f7f7f7;
        stroke-width: 2px;
        fill-rule: evenodd;
      }
    </style>
  </defs>
  <path d="M22.000,58.092 C22.000,58.092 3.011,32.474 3.011,21.991 C3.011,11.508 11.512,3.010 22.000,3.010 C32.487,3.010 40.989,11.508 40.989,21.991 C40.989,32.474 22.000,58.092 22.000,58.092 ZM22.344,9.944 C15.474,9.944 9.904,13.053 9.904,16.887 C9.904,17.019 9.911,17.151 9.924,17.281 L34.764,17.281 C34.777,17.151 34.784,17.019 34.784,16.887 C34.784,13.053 29.214,9.944 22.344,9.944 ZM23.762,19.454 L25.761,20.983 L27.761,19.454 L23.762,19.454 ZM34.784,19.719 C34.784,19.630 34.779,19.542 34.771,19.454 L29.316,19.454 L25.761,22.172 L22.207,19.454 L16.466,19.454 C16.466,19.454 15.436,21.540 14.654,21.540 C14.244,21.540 14.058,20.964 13.974,20.418 C13.229,21.338 12.159,22.568 11.852,22.433 C11.366,22.221 11.602,19.454 11.602,19.454 L9.917,19.454 C9.908,19.542 9.904,19.630 9.904,19.719 L9.904,23.531 L34.784,23.531 L34.784,19.719 ZM34.784,25.704 L30.956,25.704 C30.956,25.704 29.999,27.820 29.218,27.820 C28.697,27.820 28.504,26.879 28.434,26.252 C27.392,26.966 25.640,28.109 25.303,27.961 C24.817,27.749 26.092,25.704 26.092,25.704 L20.020,25.704 L15.749,28.095 L12.912,25.704 L9.904,25.704 L9.904,27.613 C9.904,29.113 11.125,30.324 12.632,30.324 L32.056,30.324 C33.563,30.324 34.784,29.111 34.784,27.613 L34.784,25.704 ZM29.619,14.865 C29.300,14.950 28.977,14.784 28.899,14.494 C28.821,14.204 29.016,13.900 29.335,13.815 C29.460,13.782 29.586,13.787 29.697,13.823 L30.694,14.010 L29.884,14.722 C29.812,14.787 29.722,14.838 29.619,14.865 ZM25.676,12.716 C25.567,12.646 25.487,12.549 25.440,12.443 L24.913,11.583 L25.997,11.705 L25.997,11.705 C26.091,11.716 26.185,11.749 26.272,11.804 C26.549,11.983 26.640,12.332 26.476,12.584 C26.311,12.836 25.953,12.895 25.676,12.716 ZM22.653,14.845 C22.454,15.107 22.097,15.173 21.856,14.992 C21.615,14.812 21.580,14.453 21.779,14.191 C21.857,14.088 21.958,14.016 22.068,13.976 L22.970,13.513 L22.774,14.567 C22.758,14.663 22.718,14.759 22.653,14.845 ZM17.758,12.651 C17.429,12.680 17.141,12.460 17.115,12.161 C17.089,11.862 17.334,11.597 17.663,11.568 C17.792,11.557 17.915,11.584 18.018,11.639 L18.967,11.994 L18.042,12.558 C17.960,12.609 17.863,12.642 17.758,12.651 ZM15.382,14.941 C15.157,15.142 14.796,15.107 14.575,14.863 C14.488,14.768 14.436,14.654 14.418,14.539 L14.133,13.572 L15.148,13.969 L15.148,13.969 C15.236,14.004 15.319,14.060 15.388,14.136 C15.609,14.380 15.607,14.740 15.382,14.941 Z" class="cls-1"/>
</svg>
