<svg xmlns="http://www.w3.org/2000/svg" xmlns:xlink="http://www.w3.org/1999/xlink" preserveAspectRatio="xMidYMid" width="39.68" height="56.65" viewBox="0 0 39.68 56.65">
  <defs>
    <style>
      .cls-1 {
        fill: #ff8f8b;
        stroke: #f7f7f7;
        stroke-width: 2px;
        fill-rule: evenodd;
      }
    </style>
  </defs>
  <path d="M21.840,57.646 C21.840,57.646 2.995,32.222 2.995,21.819 C2.995,11.416 11.432,2.983 21.840,2.983 C32.248,2.983 40.685,11.416 40.685,21.819 C40.685,32.222 21.840,57.646 21.840,57.646 ZM33.065,11.027 C31.673,10.254 30.100,9.847 28.515,9.847 C25.124,9.847 21.992,11.672 20.342,14.611 C19.197,16.650 18.864,19.687 19.452,22.732 C19.899,25.041 20.776,26.946 21.888,28.119 L20.390,28.541 C20.131,28.614 19.940,28.836 19.909,29.103 C19.879,29.370 20.012,29.628 20.247,29.760 L21.763,30.600 L19.825,38.300 L18.575,33.332 L19.651,33.128 C19.916,33.078 20.124,32.873 20.180,32.610 C20.234,32.349 20.124,32.078 19.901,31.928 L18.607,31.055 C18.752,30.968 18.863,30.834 18.910,30.671 C18.959,30.499 18.938,30.314 18.847,30.159 C18.627,29.774 18.536,29.356 18.584,28.948 C18.639,28.475 18.890,28.028 19.287,27.688 C19.520,27.490 19.587,27.160 19.450,26.888 C18.636,25.273 18.262,23.619 18.140,22.983 C17.486,19.588 17.862,16.301 19.176,13.965 C19.304,13.738 19.452,13.526 19.599,13.313 L19.689,13.183 C19.797,13.025 19.832,12.830 19.785,12.645 C19.738,12.460 19.614,12.305 19.444,12.217 C17.589,11.268 15.450,10.954 13.422,11.340 C10.969,11.806 8.843,13.192 7.440,15.244 C6.036,17.298 5.522,19.770 5.991,22.208 C6.856,26.710 12.180,31.112 15.912,31.571 L15.037,32.849 C14.884,33.071 14.882,33.363 15.030,33.587 C15.156,33.777 15.367,33.887 15.589,33.887 C15.630,33.887 15.673,33.883 15.714,33.875 L17.261,33.582 L19.177,41.196 C19.251,41.492 19.519,41.699 19.825,41.699 C20.132,41.699 20.400,41.492 20.473,41.196 L22.971,31.270 L23.746,31.700 C23.848,31.756 23.960,31.784 24.072,31.784 C24.219,31.784 24.366,31.735 24.487,31.640 C24.699,31.474 24.790,31.197 24.716,30.940 L24.292,29.452 C24.722,29.539 25.189,29.587 25.698,29.587 C29.394,29.587 34.686,27.207 36.675,23.667 C39.187,19.193 37.568,13.523 33.065,11.027 ZM31.111,14.502 C29.864,13.811 28.421,13.645 27.049,14.031 C25.676,14.419 24.536,15.313 23.841,16.552 C23.718,16.769 23.491,16.891 23.257,16.891 C23.146,16.891 23.034,16.864 22.931,16.808 C22.611,16.630 22.495,16.225 22.675,15.905 C23.543,14.358 24.969,13.239 26.686,12.755 C28.400,12.272 30.205,12.480 31.764,13.344 C32.084,13.523 32.201,13.927 32.020,14.246 C31.839,14.568 31.431,14.678 31.111,14.502 ZM14.174,15.251 C11.280,15.801 9.375,18.586 9.927,21.461 C9.996,21.821 9.758,22.168 9.396,22.237 C9.353,22.245 9.311,22.249 9.269,22.249 C8.957,22.249 8.676,22.027 8.615,21.710 C7.924,18.115 10.305,14.634 13.923,13.948 C14.274,13.883 14.633,14.114 14.704,14.475 C14.774,14.836 14.536,15.183 14.174,15.251 Z" class="cls-1"/>
</svg>
