<?xml version="1.0" encoding="utf-8"?>
<!-- Generator: Adobe Illustrator 19.2.1, SVG Export Plug-In . SVG Version: 6.00 Build 0)  -->
<svg version="1.1" id="Layer_1" xmlns="http://www.w3.org/2000/svg" xmlns:xlink="http://www.w3.org/1999/xlink" x="0px" y="0px"
	 viewBox="0 0 26 32" style="enable-background:new 0 0 26 32;" xml:space="preserve"  width="39" height="48">
<style type="text/css">
	.st0{fill:#F668FF;}
	.st1{fill:#FFFFFF;}
</style>
<path class="st0" d="M13.1,0C13,0,13,0,13.1,0C13,0,13,0,12.9,0C6.1,0.1,0.6,5.6,0.6,12.5c0,2.9,1,5.6,2.7,7.7
	C5.5,23,9,25.4,12.9,31.9c0,0,0,0.1,0.1,0.1c0,0,0-0.1,0.1-0.1c4-6.6,7.5-8.9,9.7-11.7c1.7-2.1,2.7-4.8,2.7-7.7
	C25.4,5.6,19.9,0.1,13.1,0z"/>
<path class="st1" d="M17.2,10.2c0,0-0.1-0.1-0.1-0.1c0.1-0.1,0.4-0.5,0.7-1.1c0.3-0.6,0.7-1.4,0.6-2.1c-0.1-0.9-0.9-1.8-1.8-2.1
	c-1-0.4-2.3-0.6-3.6-0.6s-2.6,0.2-3.6,0.6C8.5,5.1,7.8,6,7.6,6.9C7.5,7.6,7.8,8.3,8.2,9c0.3,0.6,0.7,1.1,0.7,1.1c0,0,0,0,0,0
	c0,0-0.1,0-0.1,0.1C7.6,11.3,7,12.9,7,14.4s0.6,3.1,1.8,4.2c1.1,1.1,2.7,1.8,4.2,1.8s3.1-0.6,4.2-1.8c1.1-1.1,1.8-2.7,1.8-4.2
	S18.4,11.3,17.2,10.2z M10.6,9c-0.1-0.1-0.2-0.2-0.3-0.4C10.1,8.3,10,7.9,10,7.7c0.1-0.3,0.4-0.7,0.8-0.8c1.2-0.4,3.2-0.4,4.4,0
	c0.4,0.1,0.8,0.5,0.8,0.8c0,0.1-0.1,0.5-0.3,0.8c-0.1,0.2-0.2,0.3-0.3,0.4c-0.8-0.3-1.6-0.5-2.4-0.5C12.2,8.4,11.3,8.6,10.6,9z"/>
</svg>
