<svg xmlns="http://www.w3.org/2000/svg" xmlns:xlink="http://www.w3.org/1999/xlink" preserveAspectRatio="xMidYMid" width="40" height="57.09" viewBox="0 0 40 57.09">
  <defs>
    <style>
      .cls-1 {
        fill: #fb5c76;
        stroke: #f7f7f7;
        stroke-width: 2px;
        fill-rule: evenodd;
      }
    </style>
  </defs>
  <path d="M22.000,58.092 C22.000,58.092 3.011,32.474 3.011,21.991 C3.011,11.508 11.512,3.010 22.000,3.010 C32.487,3.010 40.989,11.508 40.989,21.991 C40.989,32.474 22.000,58.092 22.000,58.092 ZM31.086,12.228 C26.942,12.228 26.796,12.753 24.019,13.011 C23.888,12.333 23.290,11.820 22.569,11.820 C21.848,11.820 21.249,12.332 21.118,13.011 C18.342,12.753 18.602,12.228 14.458,12.228 C8.965,12.228 9.096,12.641 9.096,13.151 C9.096,13.661 8.965,14.073 14.458,14.073 C18.588,14.073 18.301,13.553 21.090,13.294 C21.091,13.475 21.128,13.647 21.189,13.807 C14.379,14.493 9.062,20.206 9.062,27.154 C9.062,27.154 12.231,28.384 17.335,28.957 C17.503,28.976 17.681,28.991 17.853,29.008 C18.024,21.727 19.838,15.688 21.732,14.497 C21.970,14.661 22.258,14.757 22.570,14.757 C22.879,14.757 23.166,14.662 23.404,14.500 C25.302,15.695 27.114,21.728 27.286,28.995 C27.458,28.977 27.636,28.962 27.804,28.942 C32.875,28.363 36.077,27.154 36.077,27.154 C36.077,20.206 30.760,14.493 23.949,13.806 C24.010,13.646 24.047,13.474 24.047,13.293 C26.837,13.553 26.956,14.073 31.086,14.073 C36.578,14.073 36.448,13.660 36.448,13.151 C36.448,12.641 36.580,12.228 31.086,12.228 Z" class="cls-1"/>
</svg>
