<svg xmlns="http://www.w3.org/2000/svg" xmlns:xlink="http://www.w3.org/1999/xlink" preserveAspectRatio="xMidYMid" width="39.82" height="56.88" viewBox="0 0 39.82 56.88">
  <defs>
    <style>
      .cls-1 {
        fill: #765cfb;
        stroke: #f7f7f7;
        stroke-width: 2px;
        fill-rule: evenodd;
      }
    </style>
  </defs>
  <path d="M21.910,57.874 C21.910,57.874 2.992,32.353 2.992,21.909 C2.992,11.466 11.462,3.000 21.910,3.000 C32.358,3.000 40.828,11.466 40.828,21.909 C40.828,32.353 21.910,57.874 21.910,57.874 ZM36.221,22.893 C34.636,16.682 28.206,13.706 27.590,16.156 L27.502,16.506 C27.502,16.506 24.508,22.718 24.508,15.544 C24.508,8.370 26.797,10.207 22.305,8.457 C17.813,6.707 12.177,7.057 8.654,12.832 C5.130,18.607 8.741,31.642 20.103,34.268 C31.465,36.892 37.807,29.105 36.221,22.893 ZM28.187,32.116 C26.965,32.593 25.708,32.307 25.377,31.474 C25.049,30.642 25.773,29.581 26.994,29.103 C28.216,28.626 29.474,28.912 29.804,29.744 C30.133,30.577 29.409,31.638 28.187,32.116 ZM26.574,25.670 C25.452,25.339 24.883,23.941 25.301,22.546 C25.720,21.153 26.967,20.292 28.087,20.623 C29.207,20.955 29.777,22.353 29.359,23.746 C28.940,25.141 27.693,26.002 26.574,25.670 ZM21.601,32.228 C20.288,32.228 19.223,31.503 19.223,30.609 C19.223,29.715 20.288,28.991 21.601,28.991 C22.914,28.991 23.979,29.715 23.979,30.609 C23.979,31.503 22.914,32.228 21.601,32.228 ZM20.941,13.417 C19.992,13.417 19.223,12.673 19.223,11.755 C19.223,10.837 19.992,10.093 20.941,10.093 C21.889,10.093 22.658,10.837 22.658,11.755 C22.658,12.673 21.889,13.417 20.941,13.417 ZM16.452,30.124 C15.453,30.124 14.643,29.360 14.643,28.420 C14.643,27.479 15.453,26.715 16.452,26.715 C17.452,26.715 18.262,27.479 18.262,28.420 C18.262,29.360 17.452,30.124 16.452,30.124 ZM15.480,13.417 C14.288,13.417 13.322,12.790 13.322,12.017 C13.322,11.244 14.288,10.618 15.480,10.618 C16.671,10.618 17.638,11.244 17.638,12.017 C17.638,12.790 16.671,13.417 15.480,13.417 ZM11.340,15.867 C10.440,15.867 9.711,15.143 9.711,14.248 C9.711,13.354 10.440,12.630 11.340,12.630 C12.240,12.630 12.969,13.354 12.969,14.248 C12.969,15.143 12.240,15.867 11.340,15.867 ZM12.089,19.716 C12.089,20.828 11.399,21.729 10.547,21.729 C9.696,21.729 9.006,20.828 9.006,19.716 C9.006,18.605 9.696,17.704 10.547,17.704 C11.399,17.704 12.089,18.605 12.089,19.716 ZM12.528,22.795 C13.355,22.795 14.025,23.672 14.025,24.754 C14.025,25.838 13.355,26.715 12.528,26.715 C11.702,26.715 11.032,25.838 11.032,24.754 C11.032,23.672 11.702,22.795 12.528,22.795 Z" class="cls-1"/>
</svg>
