<svg xmlns="http://www.w3.org/2000/svg" xmlns:xlink="http://www.w3.org/1999/xlink" preserveAspectRatio="xMidYMid" width="39.88" height="56.94" viewBox="0 0 39.88 56.94">
  <defs>
    <style>
      .cls-1 {
        fill: #5ca5de;
        stroke: #f7f7f7;
        stroke-width: 2px;
        fill-rule: evenodd;
      }
    </style>
  </defs>
  <path d="M21.940,57.932 C21.940,57.932 3.006,32.388 3.006,21.936 C3.006,11.484 11.483,3.011 21.940,3.011 C32.397,3.011 40.874,11.484 40.874,21.936 C40.874,32.388 21.940,57.932 21.940,57.932 ZM21.940,7.388 C14.227,7.388 7.975,13.599 7.975,21.261 C7.975,28.923 14.227,35.134 21.940,35.134 C29.653,35.134 35.905,28.923 35.905,21.261 C35.905,13.599 29.653,7.388 21.940,7.388 ZM28.219,28.294 C26.785,27.474 26.296,25.654 27.122,24.234 C27.950,22.811 29.778,22.323 31.212,23.146 C32.644,23.967 33.133,25.784 32.307,27.206 C31.481,28.627 29.651,29.117 28.219,28.294 ZM31.212,19.376 C29.778,20.198 27.948,19.710 27.122,18.289 C26.296,16.866 26.785,15.049 28.219,14.227 C29.651,13.405 31.479,13.893 32.307,15.315 C33.133,16.736 32.644,18.555 31.212,19.376 ZM21.940,33.152 C20.288,33.152 18.947,31.822 18.947,30.179 C18.947,28.536 20.288,27.206 21.940,27.206 C23.594,27.206 24.932,28.536 24.932,30.179 C24.932,31.822 23.594,33.152 21.940,33.152 ZM21.940,15.315 C20.288,15.315 18.947,13.986 18.947,12.343 C18.947,10.699 20.288,9.370 21.940,9.370 C23.594,9.370 24.932,10.699 24.932,12.343 C24.932,13.986 23.594,15.315 21.940,15.315 ZM15.663,28.294 C14.229,29.117 12.399,28.629 11.573,27.206 C10.745,25.784 11.236,23.967 12.670,23.146 C14.102,22.323 15.930,22.811 16.758,24.234 C17.584,25.654 17.093,27.474 15.663,28.294 ZM12.670,19.376 C11.236,18.554 10.747,16.737 11.573,15.315 C12.401,13.892 14.229,13.406 15.663,14.228 C17.093,15.049 17.584,16.865 16.757,18.288 C15.931,19.710 14.100,20.197 12.670,19.376 Z" class="cls-1"/>
</svg>
