<?xml version="1.0" encoding="utf-8"?>
<!-- Generator: Adobe Illustrator 19.2.1, SVG Export Plug-In . SVG Version: 6.00 Build 0)  -->
<svg version="1.1" id="Layer_1" xmlns="http://www.w3.org/2000/svg" xmlns:xlink="http://www.w3.org/1999/xlink" x="0px" y="0px"
	 viewBox="0 0 26 32" style="enable-background:new 0 0 26 32;" xml:space="preserve" width="39" height="48">
<style type="text/css">
	.st0{fill:#FB5C76;}
	.st1{fill:#FFFFFF;}
</style>
<path class="st0" d="M13.1,0C13,0,13,0,13.1,0C13,0,13,0,12.9,0C6.1,0.1,0.6,5.6,0.6,12.5c0,2.9,1,5.6,2.7,7.7
	C5.5,23,9,25.4,12.9,31.9c0,0,0,0.1,0.1,0.1c0,0,0-0.1,0.1-0.1c4-6.6,7.5-8.9,9.7-11.7c1.7-2.1,2.7-4.8,2.7-7.7
	C25.4,5.6,19.9,0.1,13.1,0z"/>
<path class="st1" d="M19,6.5V5.3h-6v1.2h0.6v3h-3v-3H9.4v3H7.6v4.2H7v1.2h1.3c-0.1,0.2-0.1,0.4-0.1,0.6c0,1,0.8,1.8,1.8,1.8
	s1.8-0.8,1.8-1.8c0-0.2-0.1-0.4-0.1-0.6H13c0,1.3,1.1,2.4,2.4,2.4c1.3,0,2.4-1.1,2.4-2.4H19v-1.2h-0.6V6.5H19z M10,16.1
	c-0.4,0-0.6-0.2-0.6-0.6s0.2-0.6,0.6-0.6s0.6,0.2,0.6,0.6S10.4,16.1,10,16.1z M15.4,16.1c-0.7,0-1.2-0.5-1.2-1.2
	c0-0.7,0.5-1.1,1.1-1.2h0.1c0.7,0,1.1,0.5,1.1,1.2C16.6,15.6,16.1,16.1,15.4,16.1z M17.2,9.5h-2.4v-3h2.4V9.5z"/>
</svg>
