<svg xmlns="http://www.w3.org/2000/svg" xmlns:xlink="http://www.w3.org/1999/xlink" preserveAspectRatio="xMidYMid" width="39.96" height="57.1" viewBox="0 0 39.96 57.1">
  <defs>
    <style>
      .cls-1 {
        fill: #f668ff;
        stroke: #f7f7f7;
        stroke-width: 2px;
        fill-rule: evenodd;
      }
    </style>
  </defs>
  <path d="M21.984,58.094 C21.984,58.094 2.995,32.476 2.995,21.993 C2.995,11.510 11.496,3.012 21.984,3.012 C32.472,3.012 40.973,11.510 40.973,21.993 C40.973,32.476 21.984,58.094 21.984,58.094 ZM31.551,8.152 L22.069,8.152 C22.069,8.152 12.716,15.738 9.626,21.790 C9.541,21.961 9.455,22.089 9.412,22.259 C9.412,22.302 9.369,22.345 9.369,22.387 C8.811,23.623 8.511,25.115 8.511,26.692 C8.511,31.167 11.000,34.790 14.089,34.790 C14.561,34.790 15.118,34.790 15.719,34.790 C15.719,34.875 15.676,34.918 15.676,35.003 C15.676,36.324 16.792,37.432 18.122,37.432 C19.452,37.432 20.567,36.324 20.567,35.003 C20.567,34.918 20.567,34.875 20.567,34.790 C22.241,34.790 23.828,34.790 24.901,34.790 C27.990,34.790 30.478,31.167 30.478,26.692 C30.478,24.177 29.706,21.961 28.548,20.512 L32.667,10.837 L31.551,8.152 ZM15.977,17.017 L17.650,15.355 L25.587,15.312 L23.871,17.017 L15.977,17.017 ZM19.495,34.747 C19.495,34.832 19.538,34.875 19.538,34.960 C19.581,35.728 18.937,36.410 18.122,36.410 C17.307,36.410 16.663,35.770 16.663,34.960 C16.663,34.875 16.706,34.832 16.706,34.747 C17.607,34.747 18.551,34.747 19.495,34.747 Z" class="cls-1"/>
</svg>
