<svg xmlns="http://www.w3.org/2000/svg" xmlns:xlink="http://www.w3.org/1999/xlink" preserveAspectRatio="xMidYMid" width="40" height="57.09" viewBox="0 0 40 57.09">
  <defs>
    <style>
      .cls-1 {
        fill: #00bff3;
        stroke: #f7f7f7;
        stroke-width: 2px;
        fill-rule: evenodd;
      }
    </style>
  </defs>
  <path d="M22.000,2.994 C11.508,2.994 3.002,11.495 3.002,21.983 C3.002,32.470 22.000,58.099 22.000,58.099 C22.000,58.099 40.997,32.470 40.997,21.983 C40.997,11.495 32.492,2.994 22.000,2.994 ZM29.474,10.852 C30.823,10.852 31.917,11.938 31.917,13.278 C31.917,14.618 30.823,15.705 29.474,15.705 C28.125,15.705 27.032,14.618 27.032,13.278 C27.032,11.938 28.125,10.852 29.474,10.852 ZM14.235,10.852 C15.584,10.852 16.678,11.938 16.678,13.278 C16.678,14.618 15.584,15.705 14.235,15.705 C12.886,15.705 11.792,14.618 11.792,13.278 C11.792,11.938 12.886,10.852 14.235,10.852 ZM19.664,23.704 C19.664,24.300 19.178,24.783 18.578,24.783 C17.979,24.783 17.492,24.300 17.492,23.704 L17.492,19.210 C17.492,19.061 17.371,18.941 17.221,18.941 C17.071,18.941 16.949,19.061 16.949,19.210 L16.949,32.108 C16.949,32.777 16.403,33.321 15.728,33.321 C15.054,33.321 14.507,32.777 14.507,32.108 L14.507,25.052 C14.507,24.903 14.385,24.783 14.235,24.783 C14.086,24.783 13.964,24.903 13.964,25.052 L13.964,32.108 C13.964,32.777 13.417,33.321 12.743,33.321 C12.068,33.321 11.521,32.777 11.521,32.108 L11.521,19.210 C11.521,19.061 11.400,18.941 11.250,18.941 C11.100,18.941 10.978,19.061 10.978,19.210 L10.978,23.704 C10.978,24.300 10.492,24.783 9.892,24.783 C9.293,24.783 8.807,24.300 8.807,23.704 L8.807,18.941 C8.807,17.452 10.022,16.244 11.521,16.244 L16.949,16.244 C18.448,16.244 19.664,17.452 19.664,18.941 L19.664,23.704 ZM22.603,32.722 C22.603,33.052 22.333,33.321 22.000,33.321 C21.667,33.321 21.397,33.052 21.397,32.722 L21.397,11.451 C21.397,11.120 21.667,10.852 22.000,10.852 C22.333,10.852 22.603,11.120 22.603,11.451 L22.603,32.722 ZM34.553,24.782 C34.102,24.894 33.645,24.622 33.533,24.174 L32.444,19.848 C32.407,19.703 32.261,19.615 32.118,19.650 C31.973,19.685 31.886,19.831 31.922,19.975 L33.973,28.123 L32.053,28.124 L32.053,32.242 C32.053,32.838 31.567,33.321 30.967,33.321 C30.368,33.321 29.881,32.838 29.881,32.242 L29.881,28.124 L29.067,28.124 L29.067,32.242 C29.067,32.838 28.581,33.321 27.982,33.321 C27.382,33.321 26.896,32.838 26.896,32.242 L26.896,28.124 L24.976,28.123 L27.026,19.977 C27.062,19.832 26.975,19.686 26.831,19.650 C26.688,19.615 26.542,19.703 26.505,19.847 L25.416,24.174 C25.304,24.622 24.846,24.894 24.393,24.781 C23.942,24.670 23.668,24.216 23.781,23.768 L25.436,17.189 C25.609,16.642 26.124,16.244 26.733,16.244 L32.217,16.244 C32.825,16.244 33.340,16.642 33.513,17.189 L35.168,23.768 C35.280,24.216 35.006,24.669 34.553,24.782 Z" class="cls-1"/>
</svg>
