<?xml version="1.0" encoding="utf-8"?>
<!-- Generator: Adobe Illustrator 19.2.1, SVG Export Plug-In . SVG Version: 6.00 Build 0)  -->
<svg version="1.1" id="Layer_1" xmlns="http://www.w3.org/2000/svg" xmlns:xlink="http://www.w3.org/1999/xlink" x="0px" y="0px"
	 viewBox="0 0 26 32" style="enable-background:new 0 0 26 32;" xml:space="preserve" width="39" height="48">
<style type="text/css">
	.st0{fill:#5CA5DE;}
	.st1{fill:#FFFFFF;}
</style>
<path class="st0" d="M13.1,0C13,0,13,0,13.1,0C13,0,13,0,12.9,0C6.1,0.1,0.6,5.6,0.6,12.5c0,2.9,1,5.6,2.7,7.7
	C5.5,23,9,25.4,12.9,31.9c0,0,0,0.1,0.1,0.1c0,0,0-0.1,0.1-0.1c4-6.6,7.5-8.9,9.7-11.7c1.7-2.1,2.7-4.8,2.7-7.7
	C25.4,5.6,19.9,0.1,13.1,0z"/>
<path class="st1" d="M21.6,11.8c-0.2-0.1-0.7-0.1-0.9,0L18,13.1v-0.8c0-0.6-0.1-1.1-0.6-1.4c0.5-0.5,0.9-1.2,0.9-2
	c0-1.6-1.3-2.9-2.9-2.9c-1.2,0-2.2,0.7-2.7,1.8C12.4,6.3,11,5,9.3,5C7.4,5,5.9,6.6,5.9,8.5c0,0.9,0.5,1.8,1.1,2.4
	c-0.6,0.2-1,0.8-1,1.5v5.9C6,19.1,6.4,20,7.3,20H17c0.9,0,1-0.9,1-1.7v-0.8l2.6,1.4c0.1,0.1,0.3,0.1,0.4,0.1c0.1,0,0.4,0,0.5-0.1
	c0.2-0.1,0.5-0.3,0.5-0.5v-6.1C22,12.1,21.8,11.9,21.6,11.8z M9.5,9.7c-0.7,0-1.3-0.6-1.3-1.3s0.6-1.3,1.3-1.3
	c0.7,0,1.3,0.6,1.3,1.3S10.2,9.7,9.5,9.7z M11.9,10.8c0.3-0.3,0.5-0.7,0.7-1.1c0.1,0.4,0.3,0.8,0.5,1.1H11.9z M15.5,9.9
	c-0.5,0-0.9-0.4-0.9-0.9s0.4-0.9,0.9-0.9s0.9,0.4,0.9,0.9S16,9.9,15.5,9.9z"/>
</svg>
