<?xml version="1.0" encoding="utf-8"?>
<!-- Generator: Adobe Illustrator 19.2.1, SVG Export Plug-In . SVG Version: 6.00 Build 0)  -->
<svg version="1.1" id="Layer_1" xmlns="http://www.w3.org/2000/svg" xmlns:xlink="http://www.w3.org/1999/xlink" x="0px" y="0px"
	 viewBox="0 0 20 20" style="enable-background:new 0 0 20 20;" xml:space="preserve">
<style type="text/css">
	.st0{fill:#AC9DFC;}
	.st1{fill:#FFFFFF;}
</style>
<circle class="st0" cx="10" cy="10" r="10"/>
<path class="st1" d="M14.3,6.2c-1.1-1.1-2.6-1.8-4.2-1.8c-1.6,0-3.1,0.6-4.2,1.8C4,8,3.3,11.2,4.9,12.9C5.7,13.6,6.4,14,7.1,14
	c0.7,0,1.4-0.3,2-0.6c0.4-0.2,0.8-0.4,1.1-0.4c0.2,0,0.3,0.1,0.5,0.2c0.3,0.3,0.2,0.5,0.2,0.8c0,0.3,0,0.8,0.4,1.2
	c0.3,0.3,0.7,0.5,1.1,0.5c1,0,1.9-0.9,1.9-0.9C16.6,12.3,16.6,8.5,14.3,6.2z M7,12c-0.9,0-1.6-0.7-1.6-1.6c0-0.9,0.7-1.6,1.6-1.6
	c0.9,0,1.6,0.7,1.6,1.6C8.7,11.3,7.9,12,7,12z M9.3,8.9c-0.8,0-1.4-0.6-1.4-1.4S8.5,6,9.3,6c0.8,0,1.4,0.6,1.4,1.4S10.1,8.9,9.3,8.9
	z M11.7,8.5c0-0.7,0.5-1.2,1.2-1.2c0.7,0,1.2,0.5,1.2,1.2c0,0.7-0.5,1.2-1.2,1.2C12.2,9.7,11.7,9.1,11.7,8.5z M13.4,12.8
	c-0.6,0-1.1-0.5-1.1-1.1c0-0.6,0.5-1.1,1.1-1.1c0.6,0,1.1,0.5,1.1,1.1C14.5,12.3,14,12.8,13.4,12.8z"/>
</svg>
