<?xml version="1.0" encoding="utf-8"?>
<!-- Generator: Adobe Illustrator 19.2.1, SVG Export Plug-In . SVG Version: 6.00 Build 0)  -->
<svg version="1.1" id="Layer_1" xmlns="http://www.w3.org/2000/svg" xmlns:xlink="http://www.w3.org/1999/xlink" x="0px" y="0px"
	 viewBox="0 0 20 20" style="enable-background:new 0 0 20 20;" xml:space="preserve">
<style type="text/css">
	.st0{fill:#FB5C76;}
	.st1{fill:#FFFFFF;}
</style>
<circle class="st0" cx="10" cy="10" r="10"/>
<path class="st1" d="M15,6V5h-5v1h0.5v2.5H8V6H7v2.5H5.5V12H5v1h1.1c0,0.1-0.1,0.3-0.1,0.5C6,14.4,6.7,15,7.5,15S9,14.4,9,13.5
	c0-0.1-0.1-0.4-0.1-0.5H10c0,1.1,0.9,2,2,2s2-0.9,2-2h1v-1h-0.5V6H15z M7.5,14C7.2,14,7,13.8,7,13.5S7.2,13,7.5,13S8,13.2,8,13.5
	S7.8,14,7.5,14z M12,14c-0.6,0-1-0.4-1-1s0.4-0.9,0.9-1h0.1c0.6,0,0.9,0.4,0.9,1S12.6,14,12,14z M13.5,8.5h-2V6h2V8.5z"/>
</svg>
