<?xml version="1.0" encoding="utf-8"?>
<!-- Generator: Adobe Illustrator 19.2.1, SVG Export Plug-In . SVG Version: 6.00 Build 0)  -->
<svg version="1.1" id="Layer_1" xmlns="http://www.w3.org/2000/svg" xmlns:xlink="http://www.w3.org/1999/xlink" x="0px" y="0px"
	 viewBox="0 0 125 125" style="enable-background:new 0 0 125 125;" xml:space="preserve">
<path d="M47.3,53l14.3,46.8c0.3,0.8,1,1.4,1.9,1.4s1.7-0.6,1.9-1.4l14.2-46.5c2.7-2.3,4.2-5.6,4.2-9.2c0-4.4-2.4-8.3-5.9-10.4
	c0-0.3,0.1-0.6,0.1-0.9c0-5-4.1-9.1-9.1-9.1c-2.4,0-4.7,1-6.4,2.6c-1.8-0.7-3.8-1.1-5.8-1.1c-8.5,0-15.5,7-15.5,15.5
	C41.2,45.5,43.5,50.1,47.3,53z M63.5,92.3L51.7,53.8h23.6L63.5,92.3z M68.9,27.8c2.6,0,4.8,2,5.1,4.6c-0.7-0.1-1.4-0.2-2.2-0.2
	c-0.7,0-1.4,0.1-2.2,0.2c-0.9-1.5-2.1-2.7-3.5-3.8C67,28,67.9,27.8,68.9,27.8z M56.7,29.3c4.3,0,8.3,2.4,10.2,6.3
	c0.4,0.9,1.5,1.3,2.4,1c0.8-0.3,1.7-0.4,2.5-0.4c4.4,0,8.1,3.6,8.1,8.1c0,2.1-0.9,4.2-2.4,5.7H49.7c-2.8-2.2-4.5-5.5-4.5-9.1
	C45.2,34.3,50.3,29.3,56.7,29.3z"/>
</svg>
