<?xml version="1.0" encoding="utf-8"?>
<!-- Generator: Adobe Illustrator 19.2.1, SVG Export Plug-In . SVG Version: 6.00 Build 0)  -->
<svg version="1.1" id="Layer_1" xmlns="http://www.w3.org/2000/svg" xmlns:xlink="http://www.w3.org/1999/xlink" x="0px" y="0px"
	 viewBox="0 0 125 125" style="enable-background:new 0 0 125 125;" xml:space="preserve">
<path d="M89.2,41.1c-0.1-0.1-0.2-0.2-0.4-0.2c-8.5-2.7-11.2-3.6-17.5-3.4c-0.2-0.3-0.4-0.5-0.5-0.7c-0.9-1.1-2.6-1.5-4.8-1.2
	c-3,0.3-4.1,1.9-4.5,2.7c-9.1,1.4-20.1,4.8-21.5,13.4c-1.8,10.2-1.9,19.6-1.9,20.5c0,0.1,0,0.2,0,0.3l-15.3,7.1
	c-1.3,0.5-3.6,1.9-3.4,3.7c0,1.9,2,2.5,2.9,2.8l0.2,0.1c3.1,0.8,20.7,3.2,35.7,3.2c5.7,0,10.6-0.4,14.2-1.2l0,0
	c1.4-0.3,13.9-4.2,15.8-5.4l0.6-0.4l0.1-0.1c1.5-0.9,3.6-2.3,4.2-4.2c2.9-0.6,5.4-1.2,7.9-1.9c0.7-0.2,1.2-0.9,1.2-1.7
	C101.9,74.3,101.8,49.5,89.2,41.1z M90.9,74.9c-0.2,0-0.3,0.1-0.4,0.2c-1.9,0.4-4,0.7-6.4,1c-0.5-5-2.8-26.5-3.8-30.8
	c-0.4-1.7-1.6-3.1-3.3-4.1c2.7,0.4,5.5,1.3,10.4,2.9c8.7,5.9,10.6,22.1,11.1,29.2c-2,0.5-4.3,1.1-7.1,1.7
	C91.2,74.9,91.1,74.9,90.9,74.9z M68.1,39.2c-0.3,0.2-0.9,0.4-1.9,0.4c-0.7,0-1.2-0.1-1.5-0.1c0,0,0,0-0.1,0
	c0.3-0.2,0.7-0.3,1.3-0.4C67.5,39,68,39.2,68.1,39.2z M75.8,76.8C67.3,77.3,60.9,77.3,56,77c-0.5-4.8,1.3-26.4,2-28.9
	c0.1-0.5,2.1-2.6,6.1-5.4c0.6,0.1,1.2,0.2,2.1,0.2c1.5,0,2.8-0.4,4-1.1c4.5,1.2,6.4,2.9,6.8,4.1c1,4.2,3.3,25.7,3.8,30.5
	C79.2,76.6,77.5,76.7,75.8,76.8z M59.2,42.2c-1.9,1.6-4,3.5-4.4,5.1c-0.4,1.3-2.6,21.7-2.1,29.5c-8-0.9-10.4-2.6-11-3.3
	c-0.3-0.4-0.4-0.6-0.4-0.7l0-0.3c0-0.4,0-9.9,1.8-20.1C44.1,46.3,52.5,43.5,59.2,42.2z M39.1,75.6c2.2,2.4,7.2,4,15,4.6
	c0.2,0.1,0.4,0.1,0.6,0.1c0.1,0,0.2,0,0.4,0c2.5,0.2,5.3,0.3,8.4,0.3c3.5,0,7.3-0.1,11.4-0.2l1.2,0c4.3-0.3,8.1-0.7,11.6-1.2
	c-0.2,0.1-0.4,0.3-0.6,0.4l-1,0.6c-1.6,1-13.4,4.6-14.7,5c-14.2,2.8-43.4-0.9-48.1-2.1c0.2-0.1,0.4-0.2,0.6-0.3L39.1,75.6z"/>
</svg>
