<?xml version="1.0" encoding="utf-8"?>
<!-- Generator: Adobe Illustrator 19.2.1, SVG Export Plug-In . SVG Version: 6.00 Build 0)  -->
<svg version="1.1" id="Layer_1" xmlns="http://www.w3.org/2000/svg" xmlns:xlink="http://www.w3.org/1999/xlink" x="0px" y="0px"
	 viewBox="0 0 125 125" style="enable-background:new 0 0 125 125;" xml:space="preserve">
<path class="st0" d="M82.4,89.4c0.1-0.1,0.1-0.1,0.2-0.2c1.3-0.9,2.4-2,3.5-3c0,0,0,0,0-0.1c6-6,9.7-14.4,9.7-23.5
	c0-18.4-14.9-33.4-33.4-33.4S29.2,44.1,29.2,62.5s14.9,33.4,33.4,33.4c6,0,11.6-1.6,16.4-4.4l0,0l1-0.7c0.2-0.1,0.5-0.3,0.8-0.5
	c0.1-0.1,0.2-0.2,0.5-0.2C81.7,89.8,82,89.6,82.4,89.4z M82.2,85.4c-0.2,0.2-0.5,0.3-0.7,0.6c-0.6,0.5-1.2,0.8-1.7,1.3
	c-0.1,0.1-0.2,0.1-0.2,0.2l-8.7-9.4l0,0c0.1,0,0.2-0.1,0.2-0.1c0.3-0.2,0.8-0.5,1.2-0.7c0.1,0,0.1-0.1,0.2-0.1
	c0.3-0.2,0.8-0.6,1.2-0.9c0,0,0,0,0.1-0.1c0.5-0.3,0.8-0.7,1.3-1.2l0,0c1.2-1.3,2.2-2.7,3-4.2l9.4,8.7c-1.2,1.7-2.5,3.4-4.1,4.7
	C83.2,84.7,82.7,85.1,82.2,85.4z M71.8,73.8c-0.2,0.1-0.5,0.3-0.6,0.5c-0.2,0.1-0.3,0.2-0.6,0.5c-0.1,0.1-0.3,0.2-0.5,0.3
	c-0.2,0.1-0.6,0.3-0.8,0.5c-0.1,0-0.2,0.1-0.3,0.1c-0.3,0.2-0.7,0.3-1.2,0.5c-1.6,0.7-3.5,1-5.3,1c-8.1,0-14.6-6.6-14.6-14.6
	s6.5-14.7,14.6-14.7s14.6,6.5,14.6,14.6c0,4.4-2,8.5-5.1,11.1C72.1,73.6,71.9,73.7,71.8,73.8z M89.2,76.9l-9.7-9
	c0.6-1.7,0.8-3.5,0.8-5.3c0-1.9-0.2-3.6-0.8-5.3l9.7-9c2.3,4.3,3.6,9.1,3.6,14.4C92.9,67.7,91.5,72.6,89.2,76.9z M87.6,45.5
	l-9.4,8.7c-1.6-3.1-4.2-5.6-7.3-7.3l8.7-9.4C82.7,39.6,85.5,42.4,87.6,45.5z M76.9,35.9l-9,9.7c-1.7-0.6-3.5-0.8-5.3-0.8
	S59,45,57.2,45.6l-9-9.7c4.3-2.3,9.1-3.6,14.4-3.6C67.8,32.2,72.6,33.5,76.9,35.9z M45.5,37.5l8.7,9.4c-3.1,1.6-5.6,4.2-7.3,7.3
	l-9.4-8.7C39.6,42.4,42.4,39.6,45.5,37.5z M35.9,48.1l9.7,9c-0.6,1.7-0.8,3.5-0.8,5.3c0,1.9,0.2,3.6,0.8,5.3l-9.7,8.9
	c-2.3-4.3-3.6-9.1-3.6-14.2C32.2,57.3,33.6,52.4,35.9,48.1z M37.5,79.5l9.4-8.7c1.6,3.1,4.2,5.7,7.3,7.3l-8.7,9.4
	C42.4,85.4,39.6,82.6,37.5,79.5z M62.6,92.8c-5.2,0-10.1-1.3-14.4-3.6l9-9.7c1.7,0.6,3.5,0.8,5.3,0.8c1.9,0,3.6-0.2,5.3-0.8l9,9.7
	C72.6,91.5,67.8,92.8,62.6,92.8z"/>
</svg>
