<?xml version="1.0" encoding="utf-8"?>
<!-- Generator: Adobe Illustrator 19.2.1, SVG Export Plug-In . SVG Version: 6.00 Build 0)  -->
<svg version="1.1" id="Layer_1" xmlns="http://www.w3.org/2000/svg" xmlns:xlink="http://www.w3.org/1999/xlink" x="0px" y="0px"
	 viewBox="0 0 125 125" style="enable-background:new 0 0 125 125;" xml:space="preserve">
<path d="M87.5,41.2c-0.1-0.2-0.2-0.3-0.3-0.4c-6.3-7.1-15.3-11.2-24.7-11.2c-18.1,0-32.9,14.8-32.9,32.9c0,7.9,2.9,15.6,8,21.5
	c0.1,0.2,0.2,0.3,0.3,0.4c6.3,7,15.2,11,24.5,11c9.3,0,18.2-4,24.5-10.9c0.3-0.2,0.5-0.4,0.6-0.7c5.1-5.9,7.8-13.5,7.8-21.3
	C95.4,54.7,92.6,47.1,87.5,41.2z M92.1,64.1c-0.3,6.2-2.6,12-6.5,16.9c-6.7-3-11.3-9.6-11.9-16.9H92.1z M83.2,83.6
	c-5.2,5.1-11.9,8.1-19.1,8.5V64.1h6.2C70.9,72.4,75.9,80,83.2,83.6z M64.1,60.9V32.9c7.2,0.4,14,3.4,19.1,8.5
	C75.8,45.2,71,52.6,70.4,60.9H64.1z M92.1,60.9H73.7c0.6-7.4,5.2-13.9,11.9-16.9C89.5,48.8,91.7,54.7,92.1,60.9z M51.6,64.1
	c-0.6,7.4-5.3,14-12.1,16.9c-3.9-4.9-6.2-10.7-6.5-16.9H51.6z M60.9,64.1v27.9c-7.2-0.4-14-3.4-19.2-8.5
	c7.5-3.7,12.5-11.1,13.2-19.4H60.9z M41.8,41.3c5.2-5,11.9-8,19-8.4v27.9h-6C54.3,52.5,49.3,45,41.8,41.3z M32.9,60.9
	c0.3-6.2,2.6-12.1,6.5-16.9c6.8,3,11.5,9.6,12.1,16.9H32.9z"/>
</svg>
