<?xml version="1.0" encoding="utf-8"?>
<!-- Generator: Adobe Illustrator 19.2.1, SVG Export Plug-In . SVG Version: 6.00 Build 0)  -->
<svg version="1.1" id="Layer_1" xmlns="http://www.w3.org/2000/svg" xmlns:xlink="http://www.w3.org/1999/xlink" x="0px" y="0px"
	 viewBox="0 0 125 125" style="enable-background:new 0 0 125 125;" xml:space="preserve">
<g>
	<path d="M56.8,52.7c-4.2,0-8.2,1.6-11.2,4.6c-2.9,2.9-4.6,7-4.6,11.2c0,4.2,1.6,8.2,4.6,11.2c2.9,2.9,7,4.6,11.2,4.6
		c4.1,0,8.1-1.6,11.2-4.6c2.9-2.9,4.6-7,4.6-11.2c0-4.2-1.6-8.2-4.6-11.2C65.1,54.4,61,52.7,56.8,52.7z M69.1,68.4
		c0,3.3-1.3,6.4-3.6,8.7c-2.3,2.4-5.3,3.7-8.7,3.7c-3.2,0-6.3-1.3-8.7-3.7c-2.3-2.3-3.6-5.4-3.6-8.7c0-3.3,1.3-6.4,3.6-8.7
		c2.3-2.4,5.3-3.7,8.7-3.7c3.2,0,6.3,1.3,8.7,3.7C67.8,62,69.1,65.1,69.1,68.4z"/>
	<path d="M56.8,57.6c-2.8,0-5.6,1.2-7.6,3.2c-2.1,2.1-3.2,4.7-3.2,7.5v0.1c0,1,0.7,1.8,1.8,1.8c0.9,0,1.8-0.9,1.8-1.8
		c0-1.9,0.8-3.7,2.2-5.2c1.2-1.4,3.1-2.1,5.1-2.1c1,0,1.8-0.7,1.8-1.8C58.6,58.3,57.9,57.6,56.8,57.6z"/>
	<path d="M98.9,64.2c0-4.4-3.3-7-5.5-8.7c-1.3-1.1-2.1-1.8-2.3-2c-0.1-1.1,0-2,0.1-3c0.3-2.6,0.5-5.5-0.9-8.9
		c-1.6-4-5.9-6.4-11.6-6.4c-2.4,0-4.8,0.5-7,1.5l-1.5,0.8c-0.7,0.4-1.5,0.7-2.1,0.9c-1.3,0.3-3.2-0.6-4.9-2.4
		c-0.5-0.5-1-1.1-1.5-1.7l-0.3-0.3c-0.3-0.3-0.5-0.6-0.8-0.9c-1.3-1.4-2.6-2.8-4.4-4c-2.3-1.5-4.9-2.2-7.8-2.2c-3.1,0-6.1,1-8.6,2.8
		c-4.8,3.4-6.8,9.9-4.8,15.4c0.3,0.8,0.5,1.6,0.9,2.2c0.1,0.3,0.2,0.5,0.4,0.8c0.2,0.4,0.3,0.7,0.4,1c0.9,2.4,0.1,5.5-2.5,9.7
		c-0.3,0.5-0.7,1.1-1,1.6c-0.2,0.4-0.5,0.8-0.8,1.2c-1.4,2.2-3,4.9-4.4,7.7c-1.6,3.5-3.1,8.6-1.4,13.8c1.4,4.8,5.5,8.7,10.6,10.2
		c1.7,0.4,3.6,0.7,5.5,0.7c1.3,0,2.5-0.1,3.7-0.2c0.5-0.1,1.1-0.1,1.6-0.1l0.3,0c1.5-0.1,2.9-0.2,4.4-0.2c1.2,0,2.2,0.1,3.2,0.4
		c1.7,0.4,3.5,1.3,5.2,2.1c2.8,1.4,5.7,2.9,9.2,3.1h1c3.1,0,6.4-1.1,10-3.2c0.2-0.1,0.4-0.2,0.4-0.2c0,0,0.1-0.1,0.2-0.1
		c3.5-2.9,5.7-6.1,6.4-9.3c0.1-0.4,0.1-0.8,0.2-1.2c0.1-0.4,0.1-0.9,0.2-1.3l0-0.1c0.5-2.8,0.6-3.6,3.5-5
		C99.5,74.3,99.1,65.8,98.9,64.2z M79.5,92.3c-3.5,2-6.2,2.9-9,2.6c-2.8-0.3-5.4-1.6-7.7-2.8c-1.7-0.9-3.7-1.9-6-2.5
		c-1.2-0.3-2.5-0.4-4.1-0.4c-0.6,0-1.1,0-1.7,0c-1.1,0-2.1,0.1-3.1,0l-0.1,0l-0.1,0c-3.2,0.5-6.4,0.6-9.5-0.2c-3.9-1.1-7-4-8.2-7.7
		c-1.2-4.1,0-8.4,1.3-11.3c1-2.3,2.3-4.4,3.6-6.5l0.5-0.8c0.3-0.5,0.6-1,0.9-1.4c0.3-0.5,0.6-0.9,0.9-1.4c3.1-5.3,4-9.2,2.8-12.6
		c-0.3-0.6-0.5-1.3-0.9-2.1c-0.2-0.5-0.5-1.1-0.7-1.7c-1.5-4,0.1-8.9,3.5-11.4c1.9-1.4,4.1-2.1,6.5-2.1c2.1,0,4.1,0.6,5.8,1.7
		c1.8,1.2,3.1,2.7,4.4,4.3l0.1,0.1c0.6,0.8,1.3,1.5,1.9,2.2c2.6,2.7,5.7,4,8.2,3.5c1.1-0.1,2.1-0.7,3-1.2c0.2-0.1,0.5-0.2,0.7-0.3
		c0.2-0.1,0.5-0.2,0.7-0.3c1.5-0.7,3.5-1.1,5.5-1.1c4,0,7.1,1.6,8.2,4.3c1.1,2.8,0.9,5,0.6,7.3c-0.1,1.2-0.1,2.2-0.1,3.5
		c0,1.7,1.5,2.9,3.1,4.3l0.4,0.3c2.1,1.6,4.3,3.3,4.3,5.9l0,0.2c0.2,1.8,0.4,7.7-4.7,10.1c-4.6,2.3-5,4.4-5.5,7.8l0,0.1
		c-0.1,0.8-0.3,1.5-0.4,2.4c-0.9,3.8-4.4,6.8-5.1,7.3L79.5,92.3z"/>
	<circle cx="48.4" cy="72" r="1.6"/>
	<path d="M40.8,44.4c0,0.9,0.7,1.6,1.6,1.6s1.6-0.7,1.6-1.6s-0.7-1.6-1.6-1.6c-0.1,0-0.1,0-0.2,0c0.1-0.1,0.2-0.2,0.3-0.3
		c0.3-0.4,0.5-0.9,0.4-1.4c-0.2-1.8,0.5-3.7,2-4.8c0.9-0.7,2.2-1,3.5-1c1.3,0,2.4,0.3,3.2,0.8c0.4,0.3,0.9,0.3,1.3,0.3
		c0.5-0.1,0.9-0.4,1.1-0.8c0.3-0.4,0.3-0.9,0.3-1.3c-0.1-0.5-0.4-0.9-0.8-1.1c-1.5-1-3.3-1.5-5.1-1.5c-2,0-4,0.6-5.5,1.8
		c-2.4,1.9-3.8,5.1-3.4,8.1c0.2,0.9,0.9,1.6,1.8,1.6h0.1v0c0,0,0,0,0,0C41,43.4,40.8,43.9,40.8,44.4z"/>
</g>
</svg>
