<?xml version="1.0" encoding="utf-8"?>
<!-- Generator: Adobe Illustrator 19.2.1, SVG Export Plug-In . SVG Version: 6.00 Build 0)  -->
<svg version="1.1" id="Layer_1" xmlns="http://www.w3.org/2000/svg" xmlns:xlink="http://www.w3.org/1999/xlink" x="0px" y="0px"
	 viewBox="0 0 125 125" style="enable-background:new 0 0 125 125;" xml:space="preserve">
<g>
	<path d="M62.5,29.5c-18.2,0-33,14.8-33,33s14.8,33,33,33c18.2,0,33-14.8,33-33S80.7,29.5,62.5,29.5z M92.2,62.5
		c0,16.4-13.3,29.7-29.7,29.7c-16.4,0-29.7-13.3-29.7-29.7s13.3-29.7,29.7-29.7C78.9,32.8,92.2,46.1,92.2,62.5z"/>
	<path d="M51.3,60.9c2.6,0,4.7-2.9,4.7-6.4c0-3.6-2.1-6.4-4.7-6.4c-2.6,0-4.7,2.8-4.7,6.4S48.7,60.9,51.3,60.9z M49.9,54.6
		c0-1.9,0.9-3.2,1.4-3.2c0.5,0,1.4,1.2,1.4,3.2c0,1.9-0.9,3.1-1.4,3.1C50.8,57.8,49.9,56.6,49.9,54.6z"/>
	<path d="M73.8,60.9c2.6,0,4.7-2.9,4.7-6.4c0-3.6-2.1-6.4-4.7-6.4c-2.6,0-4.7,2.8-4.7,6.4S71.1,60.9,73.8,60.9z M72.4,54.6
		c0-1.9,0.9-3.2,1.4-3.2s1.4,1.2,1.4,3.2c0,1.9-0.9,3.1-1.4,3.1S72.4,56.6,72.4,54.6z"/>
	<path d="M82.4,65.2c-0.9-0.3-1.7-0.1-2.2,0.6c0,0,0,0.1-0.1,0.1c-1.6,2.4-7.6,10.4-17.5,10.4c-9.9,0-15.9-7.9-17.5-10.4
		c0-0.1-0.1-0.1-0.1-0.1c-0.2-0.4-0.6-0.6-1-0.8c-0.4-0.1-0.9-0.1-1.3,0.2c-0.8,0.5-1.1,1.5-0.6,2.3l0.1,0.1
		c2.3,3.6,9,11.9,20.3,11.9c7.7,0,14.9-4.1,20.3-11.7c0.1-0.2,0.2-0.3,0.2-0.3l0.1-0.2C83.5,66.6,83.2,65.7,82.4,65.2z"/>
</g>
</svg>
