<?xml version="1.0" encoding="utf-8"?>
<!-- Generator: Adobe Illustrator 19.2.1, SVG Export Plug-In . SVG Version: 6.00 Build 0)  -->
<svg version="1.1" id="Layer_1" xmlns="http://www.w3.org/2000/svg" xmlns:xlink="http://www.w3.org/1999/xlink" x="0px" y="0px"
	 viewBox="0 0 125 125" style="enable-background:new 0 0 125 125;" xml:space="preserve">
<path class="st0" d="M93.6,36.4c-2.5-2.5-5.8-3.8-9.4-3.8c-3.6,0-6.9,1.4-9.4,3.8l-1.4,1.4l6.5,6.5H47l-4.3-11.8l-12.8-4.2
	c-1-0.3-2,0.3-2.3,1.2c-0.1,0.5-0.1,1,0.1,1.4c0.2,0.5,0.6,0.8,1.1,0.9l11.1,3.6l3.2,8.8H29.9l27.7,28.1v20.9h-8.8
	c-1,0-1.9,0.8-1.9,1.8c0,1,0.9,1.8,1.9,1.8h21.4c1,0,1.8-0.8,1.8-1.8c0-1-0.8-1.8-1.8-1.8h-8.9v-21l23.2-23.6l7.8,7.8l1.4-1.4
	c2.4-2.5,3.7-5.7,3.8-9.3v0c0,0,0,0,0,0v0C97.5,42.2,96.1,38.8,93.6,36.4z M92.1,40.3c0.7,1,1.1,2.2,1.5,3.5h-5L92.1,40.3z
	 M89.5,37.8L86,41.2v-4.9C87.2,36.5,88.4,37,89.5,37.8z M93.5,47.5c-0.2,1.3-0.7,2.5-1.4,3.5l-3.5-3.5H93.5z M38.7,47.8h5.7l2,5.6
	h-2.2L38.7,47.8z M71,57.1L59.4,68.8L47.9,57.1H71z M48.3,47.8h31.8l-5.5,5.6H50.3L48.3,47.8z M82.3,36.3v4.9l-3.5-3.5
	C80,37,81.1,36.5,82.3,36.3z"/>
</svg>
