<?xml version="1.0" encoding="utf-8"?>
<!-- Generator: Adobe Illustrator 19.2.1, SVG Export Plug-In . SVG Version: 6.00 Build 0)  -->
<svg version="1.1" id="Layer_1" xmlns="http://www.w3.org/2000/svg" xmlns:xlink="http://www.w3.org/1999/xlink" x="0px" y="0px"
	 viewBox="0 0 125 125" style="enable-background:new 0 0 125 125;" xml:space="preserve">
<path d="M40.2,53.6c-3,0-5.5,2.5-5.5,5.5s2.5,5.5,5.5,5.5s5.5-2.5,5.5-5.5S43.3,53.6,40.2,53.6z M40.2,61.6c-1.4,0-2.5-1.1-2.5-2.5
	s1.1-2.5,2.5-2.5c1.4,0,2.5,1.1,2.5,2.5C42.7,60.5,41.6,61.6,40.2,61.6z"/>
<path d="M95,62.4c1.8-1.9,3.8-4.4,5.1-7.1c0.6-1.3,1.2-2.9,0.6-4.5c-0.4-1.2-1.7-2.6-5.1-2.6l0,0c-3.6-0.2-7.1,1.3-9.3,2.5
	c-2.1,1.2-3.8,2.8-5.4,4.4c-3.7-6-12-9.2-19-10.3l3.3-7.6c0.2-0.5,0.1-1.1-0.2-1.5c-0.3-0.4-0.9-0.7-1.4-0.6
	c-4.9,0.7-10.2,3.3-14.5,7.2c-0.9,0.8-1.7,1.6-2.4,2.4c-0.1,0.2-0.3,0.3-0.4,0.5l0,0c-0.7,0.1-1.3,0.3-2,0.5
	c-2.4,0.6-4.7,1.4-6.8,2.3c-4.8,2-8.3,4.5-10.7,7.3c-2.7,3.2-3.5,7-2.3,10.5c1.2,3.2,3.8,6.1,8.1,8.7c3.8,2.3,8.2,4.1,13.1,5.2
	l0.3,0.1c0.1,0,0.2,0,0.3,0.1c0.4,0.5,0.8,0.9,1.2,1.3c0.8,0.9,1.7,1.7,2.6,2.5c1.6,1.3,3.3,2.4,5.1,3.4c3,1.6,5.8,2.5,8.3,2.9
	c0.1,0,0.1,0,0.2,0l0,0c0.8,0,1.5-0.7,1.5-1.5c0-0.3-0.1-0.6-0.2-0.8l-3.2-7.4c7-1.1,15.3-4.4,19-10.3c1.5,1.6,3.2,3.2,5.2,4.3
	c2.1,1.2,5.4,2.6,8.9,2.6c0.2,0,0.4,0,0.5,0h0.1l0,0c3.4,0,4.6-1.4,5.1-2.6c0.6-1.6,0-3.3-0.6-4.5C98.9,66.9,97.1,64.7,95,62.4z
	 M97.9,73c-0.2,0.4-1,0.6-2.3,0.6h-0.2c-0.2,0-0.3,0-0.5,0c-2.2,0-4.9-0.8-7.4-2.2c-1.8-1-3.3-2.6-4.9-4.2c-0.4-0.4-0.7-0.7-1.1-1.1
	c-0.4-0.4-0.9-0.5-1.4-0.4s-0.9,0.4-1.1,0.9c-2.8,6.6-12.3,9.9-19.6,10.7c-0.5,0.1-0.9,0.3-1.1,0.7c-0.2,0.4-0.3,0.9-0.1,1.4
	l2.9,6.7c-1.5-0.5-3-1.1-4.6-1.9c-1.6-0.9-3.2-1.9-4.6-3c-0.8-0.7-1.6-1.4-2.4-2.2c-0.4-0.4-0.7-0.8-1.1-1.2c-0.7-0.8-1.4-1-2-1.1
	h-0.2c-4.6-1-8.7-2.6-12.2-4.8c-3.7-2.3-5.9-4.6-6.8-7.2c-1.2-3.3,0.6-6.1,1.8-7.5c2.1-2.5,5.2-4.7,9.6-6.5c2-0.9,4.1-1.6,6.4-2.1
	c0.6-0.2,1.2-0.3,1.8-0.4h0.1c0.4-0.1,0.9-0.2,1.4-0.8c0.2-0.2,0.3-0.4,0.5-0.6c0.7-0.8,1.4-1.5,2.2-2.2c3-2.7,6.6-4.8,10.1-5.8
	l-2.9,6.7c-0.2,0.4-0.2,0.9,0.1,1.4c0.2,0.4,0.7,0.7,1.1,0.7c7.3,0.8,16.8,4.1,19.6,10.7c0.2,0.5,0.6,0.8,1.1,0.9
	c0.5,0.1,1-0.1,1.4-0.4c0.3-0.3,0.7-0.7,1-1c1.6-1.7,3.2-3.3,5.1-4.3s4.8-2.3,7.7-2.1c0,0,0.1,0,0.2,0c1.3,0,2.1,0.3,2.3,0.7
	c0.2,0.6-0.3,1.8-0.5,2.2c-1.2,2.6-3.3,4.9-5.6,7.4l0,0l0,0l0,0l0,0l0,0l0,0l0,0c-0.1,0.2-0.2,0.3-0.3,0.5l0,0l0,0l0,0l0,0l0,0l0,0
	l0,0l0,0l0,0l0,0l0,0l0,0l0,0l0,0l0,0l0,0l0,0l0,0l0,0l0,0l0,0l0,0l0,0l0,0l0,0l0,0l0,0l0,0l0,0l0,0l0,0l0,0l0,0l0,0l0,0l0,0l0,0
	l0,0l0,0l0,0l0,0l0,0l0,0l0,0l0,0l0,0l0,0l0,0l0,0l0,0l0,0l0,0l0,0l0,0l0,0l0,0l0,0l0,0l0,0l0,0l0,0l0,0l0,0l0,0l0,0l0,0l0,0l0,0
	l0,0l0,0l0,0l0,0l0,0l0,0l0,0l0,0l0,0l0,0l0,0l0,0l0,0l0,0l0,0l0,0l0,0l0,0l0,0l0,0l0,0l0,0l0,0l0,0l0,0l0,0l0,0l0,0l0,0l0,0l0,0
	l0,0l0,0l0,0l0,0c0,0.3,0,0.5,0.1,0.7l0,0l0,0l0,0l0,0l0,0l0,0l0,0l0,0l0,0l0,0l0,0l0,0l0,0l0,0l0,0l0,0l0,0l0,0l0,0l0,0l0,0l0,0
	l0,0c0.1,0.1,0.1,0.2,0.2,0.3l0,0c2.3,2.5,4.3,4.8,5.5,7.4C97.6,71.2,98.2,72.4,97.9,73z"/>
</svg>
