<?xml version="1.0" encoding="utf-8"?>
<!-- Generator: Adobe Illustrator 19.2.1, SVG Export Plug-In . SVG Version: 6.00 Build 0)  -->
<svg version="1.1" id="Layer_1" xmlns="http://www.w3.org/2000/svg" xmlns:xlink="http://www.w3.org/1999/xlink" x="0px" y="0px"
	 viewBox="0 0 125 125" style="enable-background:new 0 0 125 125;" xml:space="preserve">
<path d="M91.3,52.1h-6.9v-6c3.6-2,6.2-5.8,6.4-10.3c0.3-6.9-5-12.8-11.9-13.1c-5-0.2-9.5,2.5-11.7,6.7c-1.6-1.1-3.5-1.7-5.5-1.8l0,0
	c-1.7-0.1-3.4,0.2-5,0.9c-2.5-3-6.2-4.8-10.1-5c-7.8-0.4-14.5,5.7-14.9,13.5c-0.2,3.8,1.1,7.4,3.7,10.2c0.3,0.3,0.6,0.6,0.9,0.9V92
	l-1.8,7.8c-0.1,0.6,0,1.2,0.4,1.7c0.4,0.5,1,0.8,1.6,0.8h47.7c0.6,0,1.2-0.3,1.6-0.8s0.5-1.1,0.4-1.7L84.4,92v-7.8h6.9
	c1.1,0,2-0.9,2-2V54.1C93.3,53,92.4,52.1,91.3,52.1z M70.1,44.6c2.1,1.8,4.7,2.9,7.6,3c0.2,0,0.4,0,0.6,0c0.7,0,1.4-0.1,2.1-0.2V54
	v28.2v8h-40V50.7c1.5,0.7,3.2,1.1,4.9,1.1c0.2,0,0.4,0,0.7,0c3.7,0,7.2-1.5,9.9-4c1.5,0.8,3.1,1.3,4.9,1.4
	C64.5,49.5,68,47.6,70.1,44.6z M35.7,37.2c0.3-5.5,4.8-9.7,10.2-9.7c0.2,0,0.3,0,0.5,0c3.3,0.2,6.3,1.9,8.1,4.7
	c0.3,0.5,0.8,0.8,1.3,0.9c0.5,0.1,1.1,0,1.5-0.3c1.2-0.9,2.7-1.3,4.2-1.2c3.8,0.2,6.7,3.4,6.6,7.2c-0.2,3.8-3.4,6.7-7.2,6.6
	c-1.5-0.1-2.9-0.6-4.1-1.6c-0.4-0.3-0.9-0.5-1.5-0.5c-0.5,0.1-1,0.3-1.4,0.7c-2,2.6-5.2,4-8.5,3.9c-2-0.1-3.8-0.7-5.4-1.9
	c-0.2-0.4-0.6-0.7-1-0.8c-0.2-0.2-0.4-0.4-0.6-0.6C36.5,42.5,35.6,39.9,35.7,37.2z M39,98.3l0.9-4h40.8l0.9,4H39z M77.8,43.7
	c-2.4-0.1-4.5-1.2-6.1-3c0.1-0.6,0.2-1.1,0.2-1.7c0.1-2.4-0.6-4.7-1.8-6.5c1.2-3.5,4.6-5.9,8.5-5.7c4.7,0.2,8.3,4.2,8.1,8.9
	C86.5,40.3,82.6,43.9,77.8,43.7z M89.3,80.3h-4.9V56.1h4.9V80.3z"/>
<path d="M48.9,55.1c-1.1,0-2,0.9-2,2v26.6c0,1.1,0.9,2,2,2s2-0.9,2-2V57.1C50.9,56,50,55.1,48.9,55.1z"/>
<path d="M72.4,85.7c1.1,0,2-0.9,2-2V57.1c0-1.1-0.9-2-2-2s-2,0.9-2,2v26.6C70.4,84.8,71.3,85.7,72.4,85.7z"/>
<path d="M58.3,57.1v26.6c0,1.1,0.9,2,2,2s2-0.9,2-2V57.1c0-1.1-0.9-2-2-2S58.3,56,58.3,57.1z"/>
</svg>
