<?xml version="1.0" encoding="utf-8"?>
<!-- Generator: Adobe Illustrator 19.2.1, SVG Export Plug-In . SVG Version: 6.00 Build 0)  -->
<svg version="1.1" id="Layer_1" xmlns="http://www.w3.org/2000/svg" xmlns:xlink="http://www.w3.org/1999/xlink" x="0px" y="0px"
	 viewBox="0 0 125 125" style="enable-background:new 0 0 125 125;" xml:space="preserve">
<path d="M99.4,39.7H82.6l-2.4-7.5c-0.3-0.8-1-1.4-1.9-1.4H57.8c-0.9,0-1.6,0.6-1.9,1.4l-2.4,7.5H25.6c-1.1,0-2,0.9-2,2v45.9
	c0,1.1,0.9,2,2,2h28c0.1,0,0.1,0,0.2,0c4,3,8.9,4.8,14.2,4.8s10.2-1.8,14.2-4.8h17.2c1.1,0,2-0.9,2-2V41.7
	C101.4,40.6,100.5,39.7,99.4,39.7z M59.2,34.8h17.6l1.6,4.9H57.6L59.2,34.8z M68,90.4c-10.8,0-19.5-8.8-19.5-19.5S57.3,51.4,68,51.4
	s19.5,8.8,19.5,19.5S78.8,90.4,68,90.4z M97.4,85.6H86.3c3.3-4,5.2-9.2,5.2-14.7c0-13-10.6-23.5-23.5-23.5S44.5,57.9,44.5,70.8
	c0,5.6,2,10.7,5.2,14.7H27.6V43.7h27.3h26.3h16.3L97.4,85.6L97.4,85.6z"/>
<path d="M64.8,56.5c-5.9,1.9-10.4,6.8-11.6,12.9c-0.2,1.1,0.5,2.1,1.6,2.4c0.1,0,0.3,0,0.4,0c0.9,0,1.8-0.7,2-1.6
	c0.9-4.6,4.3-8.4,8.9-9.8c1.1-0.3,1.6-1.5,1.3-2.5C67,56.8,65.9,56.2,64.8,56.5z"/>
<path d="M45.1,45.9H31.9c-1.1,0-2,0.9-2,2v7.6c0,1.1,0.9,2,2,2h13.3c1.1,0,2-0.9,2-2v-7.6C47.1,46.8,46.2,45.9,45.1,45.9z
	 M43.1,53.6h-9.3V50h9.3V53.6z"/>
</svg>
