<?xml version="1.0" encoding="utf-8"?>
<!-- Generator: Adobe Illustrator 19.2.1, SVG Export Plug-In . SVG Version: 6.00 Build 0)  -->
<svg version="1.1" id="Layer_1" xmlns="http://www.w3.org/2000/svg" xmlns:xlink="http://www.w3.org/1999/xlink" x="0px" y="0px"
	 viewBox="0 0 125 125" style="enable-background:new 0 0 125 125;" xml:space="preserve">
<path d="M100.7,37.8l-25.3-4.7h-0.1c-0.1,0-0.1,0-0.2,0s-0.2,0-0.2,0h-0.1l-25,4.6l-25-4.6c-0.6-0.1-1.2,0-1.6,0.4
	c-0.4,0.4-0.7,0.9-0.7,1.5v52.8c0,1,0.7,1.8,1.6,2l25.3,4.7l0,0c0.1,0,0.2,0,0.4,0s0.2,0,0.4,0l0,0l25-4.6l25,4.6c0.1,0,0.2,0,0.4,0
	c0.5,0,0.9-0.2,1.3-0.5c0.5-0.4,0.7-0.9,0.7-1.5V39.7C102.3,38.8,101.7,37.9,100.7,37.8z M47.6,90.1l-21.3-3.9V37.5l21.3,3.9V90.1z
	 M72.9,86.2l-21.3,3.9V41.4l21.3-3.9V86.2z M98.3,90.1L77,86.2V37.5l21.3,3.9V90.1z"/>
<path d="M62.3,66.4c-2.9,0-5.3,2.4-5.3,5.3c0,2,2.5,7.8,3.5,10.1c0.3,0.7,1,1.2,1.8,1.2s1.5-0.5,1.8-1.2c1-2.3,3.5-8,3.5-10.1
	C67.7,68.8,65.3,66.4,62.3,66.4z M62.3,75.9C61.5,74,61,72.3,61,71.8c0-0.7,0.6-1.3,1.3-1.3s1.3,0.6,1.3,1.3
	C63.6,72.3,63,73.9,62.3,75.9z"/>
<path d="M55.7,50.7c0.1,0,0.2,0,0.4,0l13.2-2.4c1.1-0.2,1.8-1.2,1.6-2.3c-0.3-1.2-1.3-1.9-2.4-1.7l-13.2,2.5
	c-1.1,0.2-1.8,1.2-1.6,2.3C53.9,50,54.7,50.7,55.7,50.7z"/>
<path d="M55.7,57.3c0.1,0,0.2,0,0.4,0l13.1-2.5c1.1-0.2,1.8-1.2,1.6-2.3c-0.2-1.1-1.2-1.8-2.3-1.6l-13.2,2.4
	c-1.1,0.2-1.8,1.2-1.6,2.3C53.9,56.6,54.7,57.3,55.7,57.3z"/>
<path d="M55.7,63.7c0.1,0,0.2,0,0.4,0l13.2-2.4c1.1-0.2,1.8-1.2,1.6-2.3c-0.3-1.2-1.3-1.9-2.4-1.7l-13.2,2.4
	c-1.1,0.2-1.8,1.2-1.6,2.3C53.9,63,54.7,63.7,55.7,63.7z"/>
<path d="M36.8,61.5c0.8,0,1.5-0.5,1.8-1.2c1.1-2.4,3.5-8.1,3.5-10.1c0-2.9-2.4-5.3-5.3-5.3c-2.9,0-5.3,2.4-5.3,5.3
	c0,2,2.5,7.8,3.5,10.1C35.3,61.1,36,61.5,36.8,61.5z M36.8,48.9c0.7,0,1.3,0.6,1.3,1.3c0,0.6-0.6,2.2-1.3,4.1
	c-0.8-1.9-1.3-3.6-1.3-4.1C35.5,49.5,36.1,48.9,36.8,48.9z"/>
<path d="M29.9,68.9l13.2,2.4c0.1,0,0.2,0,0.4,0c0.9,0,1.8-0.7,2-1.6c0.2-1.1-0.5-2.1-1.6-2.3L30.6,65c-1.1-0.2-2.1,0.5-2.3,1.6
	C28.1,67.7,28.8,68.7,29.9,68.9z"/>
<path d="M29.9,75.5l6.6,1.2c0.1,0,0.2,0,0.4,0c0.9,0,1.8-0.7,2-1.6c0.2-1.1-0.5-2.1-1.6-2.3l-6.7-1.2c-1.1-0.2-2.1,0.5-2.3,1.6
	C28.1,74.2,28.8,75.3,29.9,75.5z"/>
<path d="M29.9,81.9l9.9,1.8c0.1,0,0.2,0,0.4,0c0.9,0,1.8-0.7,2-1.6c0.2-1.1-0.5-2.1-1.6-2.3l-10-1.9c-1.1-0.2-2.1,0.5-2.3,1.6
	C28.1,80.6,28.8,81.7,29.9,81.9z"/>
<path d="M87.7,61.5c0.8,0,1.5-0.5,1.8-1.2c1.1-2.4,3.5-8.1,3.5-10.1c0-2.9-2.4-5.3-5.3-5.3s-5.3,2.4-5.3,5.3c0,2,2.5,7.8,3.5,10.1
	C86.2,61.1,86.8,61.5,87.7,61.5z M87.7,48.9c0.7,0,1.3,0.6,1.3,1.3c0,0.6-0.6,2.2-1.3,4.1c-0.8-1.9-1.3-3.6-1.3-4.1
	C86.3,49.5,87,48.9,87.7,48.9z"/>
<path d="M80.7,68.9L91,70.8c0.1,0,0.2,0,0.4,0c0.9,0,1.8-0.7,2-1.6c0.2-1.1-0.5-2.1-1.6-2.3L81.5,65c-1.1-0.2-2.1,0.5-2.3,1.6
	C78.8,67.7,79.7,68.7,80.7,68.9z"/>
<path d="M80.7,75.5L94.3,78c0.1,0,0.2,0,0.4,0c0.9,0,1.8-0.7,2-1.6c0.2-1.1-0.5-2.1-1.6-2.3l-13.6-2.5c-1.1-0.2-2.1,0.5-2.3,1.6
	C78.8,74.2,79.7,75.3,80.7,75.5z"/>
<path d="M80.7,81.9l5.8,1.1c0.1,0,0.2,0,0.4,0c0.9,0,1.8-0.7,2-1.6c0.2-1.1-0.5-2.1-1.6-2.3L81.5,78c-1.1-0.2-2.1,0.5-2.3,1.6
	C78.8,80.6,79.7,81.7,80.7,81.9z"/>
</svg>
