<?xml version="1.0" encoding="utf-8"?>
<!-- Generator: Adobe Illustrator 19.2.1, SVG Export Plug-In . SVG Version: 6.00 Build 0)  -->
<svg version="1.1" id="Layer_1" xmlns="http://www.w3.org/2000/svg" xmlns:xlink="http://www.w3.org/1999/xlink" x="0px" y="0px"
	 viewBox="0 0 125 125" style="enable-background:new 0 0 125 125;" xml:space="preserve">
<path d="M38.9,37.6l13.7,3.7l0.2,0.7h-1.2c-0.6,0-1.1,0.2-1.5,0.6c-0.4,0.4-0.6,0.9-0.5,1.5l2.8,46.8c0.1,1.1,0.9,1.9,2,1.9h18.4
	c1.1,0,1.9-0.8,2-1.9l2.2-35c6-0.6,10.6-5.7,10.6-11.8c0-6.6-5.3-11.9-11.9-11.9c-5.9,0-10.8,4.3-11.7,9.9h-7.1l-0.8-2.9l0,0
	c0-0.1,0-0.1-0.1-0.2c0-0.1,0-0.1-0.1-0.2c0-0.1-0.1-0.1-0.1-0.1c0-0.1-0.1-0.1-0.1-0.2l-0.1-0.1c-0.1-0.1-0.1-0.1-0.2-0.2l-0.1-0.1
	c-0.1,0-0.1-0.1-0.2-0.1c0,0-0.1,0-0.1-0.1c-0.1,0-0.2-0.1-0.2-0.1l0,0l-14.8-4c-1.1-0.3-2.2,0.3-2.5,1.4
	C37.2,36.2,37.8,37.3,38.9,37.6z M70.9,88.8H56.3l-1.6-25.6c1.2-0.2,2.6-0.1,4.1,0L65.7,87c0.3,0.9,1.1,1.4,1.9,1.4
	c0.2,0,0.4,0,0.6-0.1c1.1-0.3,1.7-1.4,1.4-2.5l-6.4-22.1c2.3,0.4,4.7,0.7,6.9,0.7c0.8,0,1.6-0.1,2.4-0.2L70.9,88.8z M73.2,51.5
	c-2.5-0.8-4.5-2.9-5.2-5.5h5.6L73.2,51.5z M75.7,36.1c4.4,0,7.9,3.5,7.9,7.9c0,3.8-2.7,7-6.4,7.7l0.5-7.6c0-0.6-0.2-1.1-0.5-1.5
	c-0.3-0.4-0.9-0.6-1.5-0.6h-7.6C69,38.6,72,36.1,75.7,36.1z M64,46c0.8,4.7,4.4,8.5,9,9.6l-0.3,4.6c-2.3,0.6-5.8,0.1-9.3-0.4
	c-0.5-0.1-1-0.1-1.5-0.2L58,46C58,46,64,46,64,46z M53.9,46l3.8,13.1c-1.1-0.1-2.2-0.1-3.2,0L53.7,46H53.9z"/>
</svg>
