<?xml version="1.0" encoding="utf-8"?>
<!-- Generator: Adobe Illustrator 19.2.1, SVG Export Plug-In . SVG Version: 6.00 Build 0)  -->
<svg version="1.1" id="Layer_1" xmlns="http://www.w3.org/2000/svg" xmlns:xlink="http://www.w3.org/1999/xlink" x="0px" y="0px"
	 viewBox="0 0 125 125" style="enable-background:new 0 0 125 125;" xml:space="preserve">
<path d="M93.8,59.9C92.3,43,77.7,34,64.7,32.9c0,0,0,0-0.1,0l0,0l0,0c-12.4-1.1-28.6,4-33.5,21.8l0,0c0,0.1,0,0.1,0,0.2
	c0,0.1,0,0.1,0,0.2c0,0.1,0,0.1,0,0.2c0,0.1,0,0.1,0,0.2c0,0.1,0,0.1,0,0.2c0,0.1,0,0.1,0,0.2c0,0.1,0.1,0.1,0.1,0.2
	c0,0.1,0.1,0.1,0.1,0.2l0.1,0.1c0,0.1,0.1,0.1,0.1,0.2l0,0c2.6,2.7,4.7,3.3,6.5,3.6c0.6,0.1,1.2,0.2,1.7,0.2c1.1,0,2-0.2,2.7-0.4
	c1.6,1.6,4.1,2.4,6,2.7c0.7,0.1,1.5,0.1,2.2,0.1c1.4,0,2.8-0.2,4.1-0.4c1.4,0.9,3.5,1.5,5.2,1.7l-1.8,31.7c-0.1,1.1,0.8,2,1.9,2.1
	h0.1c1.1,0,1.9-0.8,2-1.9L64,64.3c2-0.1,3.6-0.5,5-1.1c2.3,1.3,5.1,1.4,7.9,1.5c0,0,0,0,0.1,0c1.9,0,3.6-0.4,5.1-1.3
	c1.4,0.5,3.2,0.9,4.8,0.9c0.3,0,0.7,0,1,0c2.3-0.2,4.2-1.2,5.6-2.8l0,0l0,0c0,0,0,0,0-0.1c0.1-0.1,0.1-0.2,0.2-0.2
	c0-0.1,0-0.1,0.1-0.2c0-0.1,0.1-0.1,0.1-0.2c0-0.1,0-0.1,0-0.2c0-0.1,0-0.1,0-0.2C93.8,60.2,93.8,60.1,93.8,59.9L93.8,59.9
	L93.8,59.9L93.8,59.9z M41.5,56.1c-0.7,0.2-1.6,0.3-2.7,0.1c-1-0.2-2.1-0.4-3.5-1.7c3.5-11,11.5-15.4,18.3-17
	C48.7,41.1,43.4,46.8,41.5,56.1z M53.5,58.6c-1.2,0.2-2.9,0.3-4.4,0.1c-1.3-0.2-2.9-0.8-3.8-1.6c2.2-11,9.4-16.2,14.4-18.6
	C57,44.1,54.4,52.1,53.5,58.6z M67.2,59.6c-1.3,0.5-3,0.8-5.1,0.8c-1.4,0-3.6-0.6-4.7-1.1c1-7.3,4.1-15.8,6.7-20.3
	C65.7,43.9,67.3,52.6,67.2,59.6z M76.9,60.6c-2.5,0-4.4-0.2-5.7-0.8c0.2-6.5-1.1-14.5-2.7-20.2c4.7,3.5,11.2,10.1,11.4,20.4
	C79,60.4,78,60.6,76.9,60.6z M87.3,60.2c-1,0.1-2.4-0.1-3.5-0.4c-0.3-9.1-4.6-15.6-9.1-20C81.5,43,88.3,49,89.6,59.4
	C89.1,59.8,88.3,60.1,87.3,60.2z"/>
</svg>
