<?xml version="1.0" encoding="utf-8"?>
<!-- Generator: Adobe Illustrator 19.2.1, SVG Export Plug-In . SVG Version: 6.00 Build 0)  -->
<svg version="1.1" id="Layer_1" xmlns="http://www.w3.org/2000/svg" xmlns:xlink="http://www.w3.org/1999/xlink" x="0px" y="0px"
	 viewBox="0 0 125 125" style="enable-background:new 0 0 125 125;" xml:space="preserve">
<g>
	<path d="M92,60.1h-5v-5.7c0-1-0.8-1.9-1.9-1.9H39.9c-1,0-1.9,0.8-1.9,1.9v13c0,8.5,4.4,16.3,11.5,20.8h-2.1c-1,0-1.9,0.8-1.9,1.9
		s0.8,1.9,1.9,1.9h30.2c1,0,1.9-0.8,1.9-1.9s-0.8-1.9-1.9-1.9h-2.1c5.4-3.4,9.2-8.6,10.8-14.8H92c3.7,0,6.7-3,6.7-6.7
		C98.7,63.1,95.7,60.1,92,60.1z M92,69.7h-5.1C87,69,87,68.2,87,67.5v-3.6h5c1.6,0,2.9,1.3,2.9,2.9C95,68.4,93.6,69.7,92,69.7z
		 M62.5,88.3c-11.5,0-20.8-9.3-20.8-20.8v-3.6h41.6v3.6C83.3,79,74,88.3,62.5,88.3z M83.3,56.3v3.8H41.7v-3.8H83.3z"/>
	<path d="M62.6,46.3c-0.7,0.7-0.7,1.9,0,2.6c0.4,0.4,0.8,0.5,1.3,0.5s1-0.2,1.3-0.5c3.7-3.7,2-8.5,0.6-12.9c-1.3-3.9-2-6.3-0.6-7.7
		c0.7-0.7,0.7-1.9,0-2.6c-0.7-0.7-1.9-0.7-2.6,0c-3.1,3.1-1.7,7.4-0.3,11.6C63.4,40.8,64.6,44.2,62.6,46.3z"/>
	<path d="M54.3,42.8c-0.7,0.7-0.7,1.9,0,2.6c0.4,0.4,0.8,0.5,1.3,0.5s1-0.2,1.3-0.5c2.2-2.2,1.4-4.9,0.8-6.7
		c-0.6-1.9-0.6-2.5-0.1-2.9c0.7-0.7,0.7-1.9,0-2.6c-0.7-0.7-1.9-0.7-2.6,0c-2.2,2.2-1.4,4.9-0.8,6.7C54.8,41.8,54.8,42.4,54.3,42.8z
		"/>
	<path d="M70.8,42.8L70.8,42.8c-0.7,0.7-0.7,1.9,0,2.6c0.4,0.4,0.8,0.5,1.3,0.5s1-0.2,1.3-0.5c2.2-2.2,1.4-4.9,0.8-6.7
		c-0.6-1.9-0.6-2.5-0.1-2.9c0.7-0.7,0.7-1.9,0-2.6c-0.7-0.7-1.9-0.7-2.6,0c-2.2,2.2-1.4,4.9-0.8,6.7C71.3,41.8,71.3,42.4,70.8,42.8z
		"/>
</g>
</svg>
