<?xml version="1.0" encoding="utf-8"?>
<!-- Generator: Adobe Illustrator 19.2.1, SVG Export Plug-In . SVG Version: 6.00 Build 0)  -->
<svg version="1.1" id="Layer_1" xmlns="http://www.w3.org/2000/svg" xmlns:xlink="http://www.w3.org/1999/xlink" x="0px" y="0px"
	 viewBox="0 0 80 80" style="enable-background:new 0 0 80 80;" xml:space="preserve">
<style type="text/css">
	.st0{fill:#25336D;}
</style>
<g>
	<path class="st0" d="M42.5,57.8c-6.9,0-13.2-4-16.1-10.3c-2-4.3-2.2-9.1-0.6-13.6c1.6-4.5,4.9-8,9.2-10c1.8-0.9,3.8-1.4,5.8-1.6
		c0.4,0,0.9,0.2,1,0.6c0.2,0.4,0.1,0.9-0.2,1.2c-4.7,4.7-6,11.8-3.2,17.8c2.6,5.5,8.2,9.1,14.2,9.1c0.5,0,1,0,1.5-0.1
		c0.4,0,0.9,0.2,1,0.6c0.2,0.4,0.1,0.9-0.2,1.2C53.5,54,51.8,55.3,50,56C47.6,57.1,45.1,57.8,42.5,57.8z"/>
</g>
</svg>
