<svg xmlns="http://www.w3.org/2000/svg" xmlns:xlink="http://www.w3.org/1999/xlink" preserveAspectRatio="xMidYMid" width="60.437" height="69.75" viewBox="0 0 60.437 69.75">
  <defs>
    <style>
      .cls-1 {
        fill: #61ba46;
        fill-rule: evenodd;
      }
    </style>
  </defs>
  <path d="M58.630,5.840 C57.670,7.206 56.540,8.541 55.240,9.751 C52.360,12.431 49.067,14.115 45.382,14.358 C37.743,14.861 34.816,15.534 31.598,17.487 L30.469,18.173 C30.467,19.033 30.452,19.877 30.428,20.697 C30.425,20.776 30.423,20.828 30.421,20.899 C36.081,20.422 38.505,16.807 47.154,20.343 C56.394,24.121 58.417,31.408 58.417,37.541 C58.417,46.671 49.999,65.831 36.524,69.502 C34.727,69.992 31.477,68.453 29.212,68.453 C26.947,68.453 23.923,70.445 21.452,69.502 C9.089,64.786 0.007,46.165 0.007,37.541 C0.007,31.459 3.494,22.898 11.265,19.866 C18.541,17.026 22.098,20.455 27.979,20.903 C27.982,20.809 27.985,20.734 27.989,20.625 C28.079,17.654 28.026,14.339 27.724,11.223 C27.299,6.832 26.424,3.645 25.164,2.348 C24.697,1.868 24.713,1.105 25.200,0.645 C25.686,0.184 26.458,0.200 26.924,0.680 C28.696,2.504 29.677,6.076 30.153,10.994 C30.250,11.991 30.322,13.005 30.372,14.021 C32.137,9.113 36.801,2.825 41.932,0.916 C43.852,0.202 46.046,-0.079 48.450,0.001 C51.380,0.098 54.394,0.711 57.226,1.599 C58.137,1.885 60.441,2.787 60.441,2.787 C60.441,2.787 59.208,5.016 58.630,5.840 ZM29.212,23.359 C25.550,23.359 21.465,21.976 21.226,21.910 C17.527,20.892 15.412,20.837 12.162,22.106 C6.262,24.408 2.447,31.196 2.447,37.541 C2.447,47.010 12.372,63.456 22.331,67.255 C23.966,67.684 26.419,66.044 29.212,66.044 C32.005,66.044 34.895,67.427 35.875,67.180 C45.959,64.643 55.977,48.165 55.977,37.541 C55.977,30.526 53.210,25.426 46.220,22.568 C41.991,20.839 39.917,20.860 36.208,22.017 C35.960,22.095 32.874,23.359 29.212,23.359 ZM24.406,57.207 L24.406,56.485 C24.406,56.485 24.406,52.390 29.286,52.390 C34.166,52.390 34.166,56.485 34.166,56.485 L34.166,57.207 C34.166,57.207 31.726,57.797 29.286,57.797 C26.846,57.797 24.406,57.207 24.406,57.207 ZM18.306,45.271 C16.700,45.271 15.602,44.405 15.045,43.085 C15.029,43.046 15.013,43.006 14.998,42.967 C14.822,43.048 14.636,43.123 14.440,43.189 C13.023,43.668 11.601,43.466 10.390,42.347 C10.046,42.029 10.028,41.495 10.350,41.155 C10.673,40.816 11.213,40.798 11.557,41.116 C12.270,41.775 13.030,41.883 13.887,41.594 C14.167,41.499 14.425,41.375 14.647,41.244 C14.647,41.221 14.647,41.199 14.647,41.176 L14.647,40.213 C14.647,39.548 15.193,39.009 15.866,39.009 C16.540,39.009 17.086,39.548 17.086,40.213 L17.086,41.176 C17.086,41.393 17.143,41.791 17.297,42.158 C17.503,42.645 17.778,42.862 18.306,42.862 C18.835,42.862 19.110,42.645 19.315,42.158 C19.470,41.791 19.526,41.393 19.526,41.176 L19.526,40.213 C19.526,39.548 20.073,39.009 20.746,39.009 C21.420,39.009 21.966,39.548 21.966,40.213 L21.966,41.176 C21.966,41.683 21.870,42.369 21.567,43.085 C21.010,44.405 19.913,45.271 18.306,45.271 ZM37.826,39.009 C38.499,39.009 39.046,39.548 39.046,40.213 L39.046,41.176 C39.046,41.393 39.102,41.791 39.257,42.158 C39.462,42.645 39.737,42.862 40.265,42.862 C40.794,42.862 41.069,42.645 41.274,42.158 C41.429,41.791 41.485,41.393 41.485,41.176 L41.485,40.213 C41.485,39.548 42.032,39.009 42.705,39.009 C43.379,39.009 43.925,39.548 43.925,40.213 L43.925,41.176 C43.925,41.208 43.925,41.239 43.924,41.272 C44.135,41.392 44.377,41.506 44.637,41.594 C45.493,41.883 46.253,41.775 46.966,41.116 C47.310,40.798 47.850,40.816 48.173,41.155 C48.495,41.495 48.478,42.029 48.133,42.347 C46.922,43.466 45.500,43.668 44.083,43.189 C43.903,43.128 43.731,43.060 43.567,42.986 C43.554,43.019 43.540,43.052 43.526,43.085 C42.969,44.405 41.872,45.271 40.265,45.271 C38.659,45.271 37.562,44.405 37.005,43.085 C36.702,42.369 36.606,41.683 36.606,41.176 L36.606,40.213 C36.606,39.548 37.152,39.009 37.826,39.009 Z" class="cls-1"/>
</svg>
