<svg xmlns="http://www.w3.org/2000/svg" xmlns:xlink="http://www.w3.org/1999/xlink" preserveAspectRatio="xMidYMid" width="32" height="48.03" viewBox="0 0 32 48.03">
  <defs>
    <style>
      .cls-1 {
        fill: #d21137;
        fill-rule: evenodd;
      }
    </style>
  </defs>
  <path d="M30.605,5.449 L29.311,5.449 L28.109,1.010 C27.925,0.376 27.370,0.014 26.816,0.014 L5.189,0.014 C4.542,0.014 3.987,0.467 3.895,1.010 L2.694,5.449 L1.399,5.449 C0.660,5.449 0.013,6.083 0.013,6.807 L0.013,11.155 C0.013,11.880 0.660,12.514 1.399,12.514 L1.677,12.514 L2.416,18.674 C2.047,18.674 1.677,18.855 1.492,19.127 C1.215,19.398 1.122,19.851 1.122,20.214 L3.340,38.058 C3.433,38.783 3.987,39.236 4.727,39.236 L4.912,39.236 L5.836,46.845 C5.929,47.570 6.483,48.022 7.222,48.022 L24.690,48.022 C25.429,48.022 25.984,47.479 26.076,46.845 L27.001,39.236 L27.278,39.236 C28.017,39.236 28.572,38.692 28.664,38.058 L30.882,20.214 C30.975,19.851 30.790,19.398 30.513,19.127 C30.236,18.855 29.958,18.674 29.588,18.674 L30.328,12.514 L30.605,12.514 C31.344,12.514 31.991,11.880 31.991,11.155 L31.991,6.807 C31.991,6.083 31.437,5.449 30.605,5.449 ZM6.298,2.731 L25.706,2.731 L26.446,5.449 L5.558,5.449 L6.298,2.731 ZM28.294,8.166 L29.311,8.166 L29.311,9.797 L29.218,9.797 L2.878,9.797 L2.786,9.797 L2.786,8.166 L3.803,8.166 L28.294,8.166 ZM4.357,12.514 L27.555,12.514 L26.816,18.583 L5.189,18.583 L4.357,12.514 ZM23.488,45.305 L8.516,45.305 L7.777,39.236 L24.320,39.236 L23.488,45.305 ZM26.076,36.519 L5.929,36.519 L3.987,21.301 L28.017,21.301 L26.076,36.519 Z" class="cls-1"/>
</svg>
