<svg xmlns="http://www.w3.org/2000/svg" xmlns:xlink="http://www.w3.org/1999/xlink" preserveAspectRatio="xMidYMid" width="56.97" height="57" viewBox="0 0 56.97 57">
  <defs>
    <style>
      .cls-1 {
        fill: #f564b7;
        fill-rule: evenodd;
      }
    </style>
  </defs>
  <path d="M56.955,32.528 L56.955,48.967 C56.955,53.395 52.653,56.995 47.364,56.995 L13.199,56.995 C7.910,56.995 3.607,53.395 3.607,48.967 L3.607,32.521 L3.607,30.530 L3.607,23.413 L0.061,14.777 C-0.068,14.462 -0.056,14.107 0.095,13.801 C0.246,13.494 0.520,13.269 0.849,13.180 L49.196,0.035 C49.777,-0.121 50.378,0.176 50.606,0.729 L54.241,9.586 C54.371,9.902 54.359,10.257 54.208,10.562 C54.058,10.868 53.784,11.094 53.455,11.183 L13.688,21.995 L55.769,21.995 C56.425,21.995 56.956,22.527 56.956,23.182 L56.956,32.521 C56.956,32.524 56.955,32.526 56.955,32.528 ZM5.982,48.967 C5.982,52.085 9.219,54.620 13.199,54.620 L47.364,54.620 C51.342,54.620 54.581,52.085 54.581,48.967 L54.581,33.709 L5.982,33.709 L5.982,48.967 ZM5.982,30.530 L5.982,31.334 L11.617,31.334 L5.982,25.112 L5.982,30.530 ZM5.494,21.761 L10.727,20.338 L3.122,15.984 L5.494,21.761 ZM48.806,2.602 L47.976,2.828 L49.183,3.519 L48.806,2.602 ZM48.116,10.173 L51.532,9.244 L50.652,7.099 L44.742,3.713 C44.740,3.712 44.739,3.710 44.737,3.709 L39.428,5.152 L47.965,10.041 C48.025,10.076 48.064,10.130 48.116,10.173 ZM39.564,12.498 L44.928,11.040 L36.193,6.037 C36.191,6.036 36.190,6.034 36.188,6.033 L30.877,7.477 L39.414,12.366 C39.474,12.401 39.512,12.455 39.564,12.498 ZM31.013,14.823 L36.377,13.365 L27.643,8.362 C27.641,8.361 27.640,8.358 27.638,8.357 L22.326,9.802 L30.861,14.690 C30.922,14.725 30.961,14.780 31.013,14.823 ZM22.463,17.147 L27.826,15.689 L19.091,10.686 C19.089,10.685 19.088,10.683 19.087,10.682 L13.775,12.126 L22.313,17.015 C22.373,17.050 22.411,17.104 22.463,17.147 ZM13.761,19.341 C13.822,19.375 13.860,19.429 13.912,19.472 L19.276,18.014 L10.541,13.011 C10.539,13.010 10.538,13.008 10.536,13.007 L5.223,14.452 L13.761,19.341 ZM8.516,24.370 L14.716,31.216 C14.748,31.251 14.759,31.296 14.786,31.334 L20.630,31.334 L14.323,24.370 L8.516,24.370 ZM17.529,24.370 L23.730,31.216 C23.762,31.251 23.773,31.296 23.800,31.334 L29.646,31.334 L23.340,24.370 L17.529,24.370 ZM26.545,24.370 L32.745,31.216 C32.777,31.251 32.788,31.296 32.815,31.334 L38.661,31.334 L32.354,24.370 L26.545,24.370 ZM35.558,24.370 L41.759,31.216 C41.791,31.251 41.802,31.296 41.829,31.334 L47.675,31.334 L41.368,24.370 L35.558,24.370 ZM54.582,24.370 L53.587,24.370 L54.582,25.468 L54.582,24.370 ZM54.582,29.007 L50.383,24.370 L44.572,24.370 L50.773,31.216 C50.805,31.251 50.816,31.296 50.843,31.334 L54.581,31.334 L54.581,30.530 C54.581,30.527 54.582,30.525 54.582,30.523 L54.582,29.007 ZM30.282,52.498 C29.625,52.498 29.095,51.967 29.095,51.311 L29.095,37.245 C29.095,36.589 29.625,36.058 30.282,36.058 C30.938,36.058 31.469,36.589 31.469,37.245 L31.469,51.311 C31.469,51.967 30.938,52.498 30.282,52.498 Z" class="cls-1"/>
</svg>
