<svg xmlns="http://www.w3.org/2000/svg" xmlns:xlink="http://www.w3.org/1999/xlink" preserveAspectRatio="xMidYMid" width="58" height="63" viewBox="0 0 58 63">
  <defs>
    <style>
      .cls-1 {
        fill: #ff471a;
        fill-rule: evenodd;
      }
    </style>
  </defs>
  <path d="M54.453,22.644 C55.860,27.732 54.190,33.084 50.235,36.506 C47.774,38.612 44.698,39.753 41.446,39.753 C41.358,39.753 41.182,39.753 41.095,39.753 L1.897,62.827 C1.721,62.915 1.457,63.003 1.282,63.003 C0.930,63.003 0.667,62.827 0.403,62.652 C0.051,62.213 -0.124,61.687 0.139,61.160 L19.826,19.485 C20.353,16.239 21.935,13.344 24.396,11.238 C26.593,9.308 29.317,8.167 32.218,7.992 C33.009,6.237 34.239,4.570 35.733,3.254 C38.194,1.148 41.270,0.008 44.522,0.008 C48.389,0.008 52.168,1.675 54.717,4.658 C59.199,9.922 59.023,17.643 54.453,22.644 ZM37.315,39.051 C35.030,38.261 32.921,36.945 31.251,35.015 C31.163,34.927 31.163,34.839 31.076,34.752 C30.900,34.752 30.812,34.664 30.636,34.664 L28.087,39.402 L31.427,42.472 L37.315,39.051 ZM28.175,33.962 C26.681,33.348 25.275,32.470 24.044,31.330 L22.638,34.137 L26.241,37.559 L28.175,33.962 ZM25.011,46.245 L29.230,43.701 L26.945,41.595 L24.660,45.894 L25.011,46.245 ZM25.011,39.840 L21.408,36.506 L19.211,40.893 L22.726,44.139 L25.011,39.840 ZM20.178,49.140 C20.265,49.053 20.265,48.965 20.265,48.965 L21.584,46.421 L18.156,43.174 L16.574,46.333 L19.738,49.316 L20.178,49.140 ZM17.453,50.632 L15.344,48.614 L13.059,53.264 L17.453,50.632 ZM4.182,58.528 L9.719,55.282 C9.631,55.019 9.631,54.668 9.807,54.405 L9.895,54.141 L7.346,51.773 L4.182,58.528 ZM8.489,49.228 L11.037,51.685 L13.498,46.772 L10.861,44.315 L8.489,49.228 ZM11.828,42.034 L14.552,44.578 L16.135,41.420 L13.410,38.787 L11.828,42.034 ZM14.552,36.418 L17.365,39.051 L19.562,34.664 L16.662,31.944 L14.552,36.418 ZM17.804,29.663 L20.705,32.383 L22.199,29.400 C21.232,27.996 20.529,26.504 20.089,24.837 L17.804,29.663 ZM52.784,6.325 C50.674,3.868 47.686,2.464 44.434,2.464 C41.797,2.464 39.249,3.342 37.228,5.096 C35.821,6.325 34.679,7.904 34.063,9.659 C33.888,10.098 33.448,10.448 32.921,10.448 C30.372,10.448 27.824,11.414 25.890,13.080 C23.693,15.011 22.287,17.730 22.111,20.626 C21.935,23.521 22.814,26.416 24.748,28.610 C26.593,30.628 29.054,31.944 31.778,32.295 C32.130,32.295 32.482,32.470 32.657,32.734 L32.745,32.909 C32.833,32.997 32.921,33.172 33.009,33.260 C35.118,35.717 38.106,37.120 41.358,37.120 C43.995,37.120 46.543,36.243 48.565,34.488 C51.993,31.593 53.311,26.943 51.729,22.732 C51.641,22.293 51.729,21.766 52.080,21.416 C56.299,17.380 56.562,10.712 52.784,6.325 ZM48.038,8.869 C46.895,8.167 45.577,7.992 44.346,8.343 C43.116,8.606 42.061,9.396 41.358,10.536 C41.182,10.975 40.743,11.150 40.304,11.150 C40.128,11.150 39.864,11.062 39.688,10.975 C39.073,10.624 38.897,9.922 39.249,9.308 C40.216,7.641 41.797,6.500 43.731,5.974 C45.577,5.447 47.598,5.798 49.268,6.763 C49.795,7.114 50.059,7.904 49.708,8.430 C49.356,9.044 48.653,9.220 48.038,8.869 ZM47.334,20.450 C47.950,20.801 48.125,21.591 47.774,22.118 C47.422,22.732 46.719,22.907 46.104,22.556 C44.962,21.854 43.643,21.679 42.413,22.030 C41.182,22.293 40.128,23.082 39.425,24.223 C39.249,24.662 38.809,24.837 38.370,24.837 C38.194,24.837 37.930,24.750 37.755,24.662 C37.140,24.311 36.964,23.609 37.315,22.995 C38.282,21.328 39.864,20.187 41.797,19.661 C43.643,19.134 45.665,19.485 47.334,20.450 ZM34.591,16.327 C33.448,15.888 32.130,15.888 30.900,16.414 C29.757,16.853 28.791,17.818 28.351,19.046 C28.175,19.573 27.736,19.836 27.208,19.836 C27.033,19.836 26.945,19.836 26.769,19.748 C26.154,19.573 25.802,18.784 26.066,18.169 C26.769,16.327 28.175,14.923 29.933,14.133 C31.778,13.344 33.712,13.344 35.558,14.046 C36.261,14.309 36.524,15.098 36.173,15.625 C35.997,16.239 35.206,16.590 34.591,16.327 Z" class="cls-1"/>
</svg>
