<!-- Generator: Adobe Illustrator 19.1.0, SVG Export Plug-In  -->
<svg version="1.1"
	 xmlns="http://www.w3.org/2000/svg" xmlns:xlink="http://www.w3.org/1999/xlink" xmlns:a="http://ns.adobe.com/AdobeSVGViewerExtensions/3.0/"
	 x="0px" y="0px" width="104.5px" height="48.6px" viewBox="0 0 104.5 48.6"
	 style="overflow:scroll;enable-background:new 0 0 104.5 48.6;" xml:space="preserve">
<style type="text/css">
	.st0{fill:#080808;}
</style>
<defs>
</defs>
<g>
	<g>
		<g>
			<path class="st0" d="M5.3,26.6h0.8v-2.1H2.8v2.1h0.8v1.7H0l0-1.7h0.8v-5.2H0l0-1.7h3.6v1.7H2.8V23h3.3v-1.6H5.3v-1.7H9v1.7H8.1
				v5.2H9v1.7H5.3V26.6z"/>
			<path class="st0" d="M13.4,19.7h3.3l2.6,7h0.8v1.5h-3.6v-1.5h0.6l-0.2-0.6h-2.8L14,26.8h0.5v1.5h-3.3v-1.5H12l2.1-5.5h-0.7V19.7z
				 M14.5,24.8h2l-1-2.9L14.5,24.8z"/>
		</g>
	</g>
	<g>
		<path class="st0" d="M28.1,31.6l1.6-3.2l-2.2-0.6l1.6-3.2l2.4,1.2c-0.1-0.8-0.1-2.7-0.2-4.3l-3.9,0l-1.6,3.3
			c-1.2,2.4-0.2,5.5,2.2,6.7L28.1,31.6z"/>
		<path class="st0" d="M25.8,24.8l1.6-3.3l3.9,0c0,1.6,0.1,3.5,0.2,4.3L29,24.6l-1.6,3.2l2.2,0.6l-1.6,3.2L28,31.5
			C25.5,30.2,24.5,27.2,25.8,24.8z"/>
		<path class="st0" d="M35.5,42.4c-0.1-0.4-0.2-0.8-0.2-1.1c0,0,0,0,0,0c0,0,0,0,0-0.1l0-0.1l-0.1,0C34,41,33,40,33,38.8v-0.1
			l-1.5,0v0.1c0,1.3-1.1,2.4-2.4,2.4c-0.6,0-1.2-0.2-1.7-0.7c-0.5-0.5-0.7-1.1-0.7-1.7v-0.1l-1.5,0v0.1c0,2.1,1.7,3.8,3.8,3.8
			c1.3,0,2.4-0.6,3.1-1.6c0.7,1,1.9,1.6,3.2,1.6c0,0,0,0,0,0l0.1,0L35.5,42.4z"/>
		<path class="st0" d="M49.8,33.1l2.3-1.3l9.2,2.7l-1.7-3.4c-0.8-1.7-2.4-2.7-4.2-2.9c1-1.5,1.1-3.5,0.3-5.1L54,19.7l-3.5,9
			l-2.3,1.1l-1.8-3.7c-0.2-0.4-0.3-0.9-0.3-1.5l0-16.6l0.1,0c0.5,0.1,1.5,0.3,2.2,0.3c0,0,0,0,0,0c1.6,0,3.1-1.1,3.7-2.7l0.1-0.2
			h-6.1l0-1.5l0.1,0c0.6-0.2,1.9-0.7,2.6-0.8c3.7-0.8,7.6,0,10.6,2.4l0.1,0.1l0.3-0.3l-0.1-0.1c-3.1-4.1-8.3-6-13.3-4.8
			c-1,0.2-2,0.6-3,1.1c-0.5,0.3-1,0.6-1.7,1l-8.3,5.7l0.9,1.7h2.3l0,0.1c-0.3,1.5-1.7,2.3-2.1,2.5l0.1,0.3l0.1,0
			c2,0,3.9-1.1,5.1-2.8l0,0h1.8l-5.1,6.3l1.8,3.6h2.5v1.1h-3.2l0,0l-3.3-6.6h-3.6c0,0,0,0-0.1,0c-2.7,0-4.9,2.2-5,4.9l0,0.2h3.6
			l-0.4-2.2h3.5v4.4c0,4.2,0.3,5,0.3,5c0,0.1,0.1,0.3,0.1,0.4C33.3,28,34,29.1,35,30l4.5,4l3.3,3l1.9,1.7c0.4,0.3,0.6,0.7,0.7,1.2
			c0.1,0.2,0.1,0.4,0.1,0.6c0,0.7-0.3,1.3-0.8,1.8c-0.5,0.5-1.2,0.7-1.8,0.6c-1.2-0.1-2.2-1.3-2.1-2.6c0.1-1,0.5-1.9,1.2-2.6
			l-3.2-2.9c-1.8,1.7-2.6,4-2.4,6.5c0,0,0,0.1,0,0.1c0,0.4,0.1,0.7,0.2,1.1c0.9,3.5,4.1,6.1,7.8,6.1l0,0c2.4,0,4.6-1,6.2-2.9
			c1.1-1.3,1.7-2.9,1.8-4.5c0.1-1.6-0.1-2.9-0.6-4.1L49.8,33.1z M42.7,7.5c-0.2,0.2-0.5,0.3-0.8,0.3c-0.3,0-0.6-0.1-0.8-0.3
			c-0.2-0.2-0.3-0.5-0.3-0.8c0-0.3,0.1-0.6,0.3-0.8c0.2-0.2,0.5-0.3,0.8-0.3c0.3,0,0.6,0.1,0.8,0.3C42.9,6.1,43,6.4,43,6.7
			S42.9,7.2,42.7,7.5z"/>
	</g>
	<g>
		<path class="st0" d="M68.7,26.6h0.8v-2.1h-3.3v2.1H67v1.7h-3.6v-1.7h0.8v-5.2h-0.8v-1.7H67v1.7h-0.8V23h3.3v-1.6h-0.8v-1.7h3.6
			v1.7h-0.8v5.2h0.8v1.7h-3.6V26.6z"/>
		<path class="st0" d="M76.7,19.7H80l2.6,7h0.8v1.5h-3.6v-1.5h0.6l-0.2-0.6h-2.8l-0.2,0.6h0.5v1.5h-3.3v-1.5h0.8l2.1-5.5h-0.7V19.7z
			 M77.9,24.8h2l-1-2.9L77.9,24.8z"/>
		<path class="st0" d="M85.7,19.7h7.5v2.9h-1.7v-1.3h-3v1.9h1.9c0.7,0,3.4-0.2,3.4,2.5c0,1.7-1.3,2.6-3.4,2.6h-4.8v-1.7h0.8v-5.2
			h-0.8V19.7z M88.5,26.6H90c0.8,0,1.6-0.2,1.6-1c0-1-1-1-1.6-1h-1.6V26.6z"/>
		<path class="st0" d="M102.6,22.6v-1.2h-3.1v1.7h2.6v1.6h-2.6v1.9h3.3v-1.7h1.7v3.3h-7.8v-1.7h0.8v-5.2h-0.8v-1.7h7.6v2.9H102.6z"
			/>
	</g>
</g>
</svg>
