<?xml version="1.0" encoding="utf-8"?>
<!-- Generator: Adobe Illustrator 19.2.1, SVG Export Plug-In . SVG Version: 6.00 Build 0)  -->
<svg version="1.1" id="Layer_1" xmlns="http://www.w3.org/2000/svg" xmlns:xlink="http://www.w3.org/1999/xlink" x="0px" y="0px"
	 viewBox="0 0 85.5 90" style="enable-background:new 0 0 85.5 90;" xml:space="preserve" width="85.5" height="90">
<style type="text/css">
	.st0{fill:#61BA46;}
</style>
<path class="st0" d="M73.5,87v-6c0-0.8-0.7-1.5-1.5-1.5s-1.5,0.7-1.5,1.5v6H69v-3c0-0.8-0.7-1.5-1.5-1.5c-0.8,0-1.5,0.7-1.5,1.5v3
	h-1.5v-6c0-0.8-0.7-1.5-1.5-1.5c-0.8,0-1.5,0.7-1.5,1.5v6h-1.5c-0.2-7.2-2-38.4-13.6-57.6c2.7-1.1,4.6-3.8,4.6-6.9
	c0-0.3-0.1-0.6-0.1-0.8l4.1-1.1l0.9-2.3l2,1.5l17.4-4.7l-0.4-1.5c-1-3.7-6.4-6.1-13.5-6.1c-2.7,0-5.4,0.4-8.1,1.1
	c-4.9,1.3-9.5,3.8-12.6,6.9c-0.1,0-0.1,0-0.2,0.1c-1.9-4.2-5.9-8.4-10.7-11.3C25.3,1.6,20.1,0,15.6,0C11.8,0,9,1.1,7.7,3.2L6.9,4.5
	l15.4,9.3l2.3-0.9l0.3,2.5l1.9,1.1c-2.6,0-5.3,0.4-7.9,1.1c-4.7,1.3-9,3.6-12.2,6.5c-3.2,3-4.6,6.1-3.9,8.7l0.4,1.5l17.4-4.7
	l0.9-2.3l2,1.5l3.9-1C27.2,28.4,27,29.2,27,30c0,4.1,3.4,7.5,7.5,7.5c1.7,0,3.3-0.6,4.5-1.5c0.3,1.7,0.6,3.4,0.8,5.1
	c0,0.3,0.1,0.5,0.1,0.8c0.3,2.2,0.6,4.3,0.9,6.4c0,0,0,0,0,0c2.3,19.5,0.9,33.2-4,38.8H36v-4.5c0-0.8-0.7-1.5-1.5-1.5
	c-0.8,0-1.5,0.7-1.5,1.5V87h-4.5c0.9-1.3,1.5-2.8,1.5-4.5c0-4.1-3.4-7.5-7.5-7.5S15,78.4,15,82.5c0,1.7,0.6,3.2,1.5,4.5H0v3h37.5h21
	h27v-3L73.5,87L73.5,87z M18,82.5c0-2.5,2-4.5,4.5-4.5s4.5,2,4.5,4.5c0,2.5-2,4.5-4.5,4.5S18,85,18,82.5z M41.5,32.7
	c0-0.1,0.1-0.2,0.1-0.3c0.1-0.3,0.2-0.6,0.3-1c0.1-0.5,0.1-0.9,0.1-1.4c0,0,0-0.1,0-0.1c0,0,0.1,0,0.1,0c0.4,0.1,0.7,0.1,1.1,0.1
	c0.6,1,1.2,2,1.8,3h-3.4C41.5,32.9,41.5,32.8,41.5,32.7z M42.1,36h4.4c0,0.1,0.1,0.2,0.1,0.3c0.3,0.6,0.6,1.2,0.8,1.9
	c0.1,0.2,0.2,0.4,0.3,0.6c0.2,0.6,0.5,1.1,0.7,1.7c0.1,0.2,0.2,0.5,0.3,0.7c0.2,0.6,0.5,1.3,0.7,1.9c0.2,0.6,0.4,1.2,0.6,1.9
	c0.1,0.2,0.1,0.4,0.2,0.7c0.1,0.3,0.2,0.5,0.3,0.8h-6.8C43.2,42.9,42.7,39.4,42.1,36L42.1,36z M44,49.5h7.4c1,3.5,1.8,7,2.4,10.5h-9
	C44.7,56.6,44.4,53,44,49.5z M45,63h9.4c0.6,3.7,1.1,7.3,1.5,10.5H44.5C44.9,70.2,45,66.7,45,63z M43.9,27C43.9,27,43.9,27,43.9,27
	l-0.4,0c-1.3,0-2.2-0.6-2.8-1c-0.4-0.4-0.8-0.8-1.1-1.3c0,0,0,0,0,0c-0.2-0.3-0.3-0.7-0.4-1.1l0-0.3c0-0.2-0.1-0.5-0.1-0.7
	c0-0.2,0-0.4,0.1-0.7c0-0.1,0-0.3,0.1-0.4l0-0.1c0-0.2,0.1-0.4,0.2-0.6c0.1-0.2,0.2-0.4,0.3-0.5c0,0,0-0.1,0.1-0.1
	c0.3-0.4,0.6-0.8,1.1-1.2l0.3-0.2c0.2-0.1,0.4-0.2,0.6-0.3l0.4-0.1c0.3-0.1,0.5-0.1,0.7-0.2c0.3,0,0.5-0.1,0.7-0.1
	c0.3,0,0.5,0,0.8,0.1c0.1,0,0.2,0,0.3,0.1c0.1,0,0.3,0.1,0.4,0.1c0.1,0,0.2,0.1,0.4,0.1c0.1,0,0.2,0.1,0.3,0.2
	c0.9,0.5,1.7,1.4,2,2.5l0.1,0.2c0.1,0.4,0.2,0.8,0.2,1.2C48,24.8,46.2,26.7,43.9,27z M54.2,11.5c2.4-0.6,4.9-1,7.3-1
	c4.6,0,8.1,1.2,9.7,2.6l-12.5,3.4l-3.9-3.1L52.8,18L50,18.8c0,0,0-0.1-0.1-0.1c-0.2-0.3-0.4-0.6-0.6-0.9c-0.1-0.1-0.1-0.2-0.2-0.3
	c-0.2-0.2-0.4-0.5-0.7-0.7c-0.1-0.1-0.2-0.2-0.4-0.3c-0.2-0.2-0.5-0.3-0.7-0.5c-0.2-0.1-0.3-0.2-0.5-0.3c-0.2-0.1-0.5-0.2-0.7-0.3
	c-0.1,0-0.2-0.1-0.3-0.1C48.1,13.6,51.1,12.3,54.2,11.5z M22.6,10.5L11.5,3.7c1-0.5,2.4-0.7,4.1-0.7c4,0,8.6,1.4,12.7,3.9
	c5.3,3.2,8.5,7.5,9.8,10.5c-0.1,0.1-0.2,0.3-0.3,0.4c-0.1,0.1-0.2,0.3-0.3,0.4c-0.1,0.1-0.2,0.3-0.3,0.5c0,0,0,0.1-0.1,0.1
	c-0.7-0.4-1.6-0.8-2.5-1.1l-6.7-4.1l-0.5-5L22.6,10.5z M20.2,22.4L18.3,27L5.8,30.4c0.4-1.2,1.5-2.7,3-4.1c2.7-2.6,6.7-4.7,10.9-5.8
	c2.4-0.6,4.9-1,7.3-1c2.3,0,4.4,0.3,6.2,0.9l2.9,1.7c0,0.1,0,0.1,0,0.2l-0.9,0.2c0,0-0.1,0-0.1,0c-0.2,0-0.3,0-0.5,0
	c-0.1,0-0.2,0-0.3,0c-0.3,0-0.7,0-1,0.1c-0.1,0-0.2,0-0.4,0.1c-0.3,0.1-0.6,0.2-0.9,0.3c-0.2,0.1-0.4,0.1-0.6,0.2
	c-0.1,0-0.2,0.1-0.3,0.2c-0.3,0.2-0.6,0.3-0.9,0.5l-6.1,1.6L20.2,22.4z M34.5,34.5c-2.5,0-4.5-2-4.5-4.5c0-1.4,0.7-2.7,1.7-3.5
	l0.1,0c0.2-0.1,0.4-0.3,0.6-0.4c0,0,0.1,0,0.1-0.1c0.2-0.1,0.3-0.1,0.5-0.2c0.1,0,0.3-0.1,0.4-0.1c0.1,0,0.2,0,0.3-0.1
	c0.2,0,0.3,0,0.5,0c0.2,0,0.4,0,0.6,0l0.5,0.1h0c0.6,0.1,1.2,0.4,1.8,0.8c0,0,0,0,0,0c0.2,0.3,0.4,0.5,0.6,0.8
	c0.1,0.1,0.1,0.1,0.2,0.2c0.2,0.2,0.4,0.4,0.6,0.7c0.1,0.2,0.2,0.5,0.3,0.7c0,0.1,0,0.1,0.1,0.2c0.1,0.3,0.1,0.7,0.1,1
	c0,0.6-0.1,1.3-0.4,1.9c0,0,0,0,0,0C37.8,33.4,36.3,34.5,34.5,34.5z M40.6,87c1.7-2.8,2.9-6.4,3.6-10.5h12c0.5,4.8,0.7,8.5,0.7,10.5
	H40.6z"/>
</svg>
