<?xml version="1.0" encoding="utf-8"?>
<!-- Generator: Adobe Illustrator 19.2.1, SVG Export Plug-In . SVG Version: 6.00 Build 0)  -->
<svg version="1.1" id="Layer_1" xmlns="http://www.w3.org/2000/svg" xmlns:xlink="http://www.w3.org/1999/xlink" x="0px" y="0px"
	 viewBox="0 0 80 80" style="enable-background:new 0 0 80 80;" xml:space="preserve" width="36" height="36">
<style type="text/css">
	.st0{fill:#7686FF;}
</style>
<g>
	<g>
		<path class="st0" d="M31.9,27.9c0.1,0,0.2,0.1,0.2,0.1c5.2,3.3,10.4,3.3,15.6,0.1c0.2-0.1,0.5-0.1,0.7,0c0.6,0.3,1.2,0.7,1.8,1
			c4.6,2,9,1.7,13.3-0.9c0.4-0.3,0.7-0.3,1.1,0c0.7,0.4,1.4,0.8,2.2,1.2c1.6,0.7,3.4,1.1,5.2,1.1c0-1.5,0-3,0-4.5
			c-3.5-0.2-6.1-1.7-7.9-4.7c-1.9,3-4.5,4.6-8,4.6c-3.5,0-6.1-1.7-8-4.6c-1.9,3-4.5,4.6-8,4.7c-3.5,0-6.1-1.7-8-4.6
			c-1.9,2.9-4.5,4.6-8,4.6c-3.5,0-6.1-1.7-8-4.6c-1.9,3-4.5,4.5-7.9,4.7c0,1.5,0,3,0,4.5c2.6,0,5-0.7,7.1-2.1c0.6-0.4,1-0.4,1.6,0
			c2.2,1.4,4.6,2.1,7.2,2.1C26.9,30.4,29.5,29.6,31.9,27.9z"/>
		<path class="st0" d="M31.9,27.9c-2.4,1.6-5,2.5-8,2.5c-2.6,0-5-0.7-7.2-2.1c-0.6-0.4-1-0.4-1.6,0c-2.2,1.4-4.5,2-7.1,2.1
			c0-1.5,0-3,0-4.5c3.4-0.2,6.1-1.7,7.9-4.7c1.9,2.9,4.5,4.6,8,4.6c3.5,0,6.1-1.6,8-4.6c1.9,2.9,4.5,4.6,8,4.6c3.5,0,6.1-1.7,8-4.7
			c1.9,2.9,4.5,4.6,8,4.6c3.5,0,6.1-1.6,8-4.6c1.8,2.9,4.5,4.5,7.9,4.7c0,1.5,0,3,0,4.5c-1.8,0-3.5-0.3-5.2-1.1
			c-0.8-0.3-1.5-0.7-2.2-1.2c-0.4-0.3-0.7-0.3-1.1,0c-4.2,2.7-8.7,3-13.3,0.9c-0.6-0.3-1.2-0.7-1.8-1c-0.2-0.1-0.5-0.1-0.7,0
			c-5.2,3.2-10.4,3.2-15.6-0.1C32.1,28,32,28,31.9,27.9z"/>
	</g>
</g>
<g>
	<g>
		<path class="st0" d="M31.9,42c0.1,0,0.2,0.1,0.2,0.1c5.2,3.3,10.4,3.3,15.6,0.1c0.2-0.1,0.5-0.1,0.7,0c0.6,0.3,1.2,0.7,1.8,1
			c4.6,2,9,1.7,13.3-0.9c0.4-0.3,0.7-0.3,1.1,0c0.7,0.4,1.4,0.8,2.2,1.2c1.6,0.7,3.4,1.1,5.2,1.1c0-1.5,0-3,0-4.5
			c-3.5-0.2-6.1-1.7-7.9-4.7c-1.9,3-4.5,4.6-8,4.6c-3.5,0-6.1-1.7-8-4.6c-1.9,3-4.5,4.6-8,4.7c-3.5,0-6.1-1.7-8-4.6
			c-1.9,2.9-4.5,4.6-8,4.6c-3.5,0-6.1-1.7-8-4.6c-1.9,3-4.5,4.5-7.9,4.7c0,1.5,0,3,0,4.5c2.6,0,5-0.7,7.1-2.1c0.6-0.4,1-0.4,1.6,0
			c2.2,1.4,4.6,2.1,7.2,2.1C26.9,44.6,29.5,43.7,31.9,42z"/>
		<path class="st0" d="M31.9,42c-2.4,1.6-5,2.5-8,2.5c-2.6,0-5-0.7-7.2-2.1c-0.6-0.4-1-0.4-1.6,0c-2.2,1.4-4.5,2-7.1,2.1
			c0-1.5,0-3,0-4.5c3.4-0.2,6.1-1.7,7.9-4.7c1.9,2.9,4.5,4.6,8,4.6c3.5,0,6.1-1.6,8-4.6c1.9,2.9,4.5,4.6,8,4.6c3.5,0,6.1-1.7,8-4.7
			c1.9,2.9,4.5,4.6,8,4.6c3.5,0,6.1-1.6,8-4.6c1.8,2.9,4.5,4.5,7.9,4.7c0,1.5,0,3,0,4.5c-1.8,0-3.5-0.3-5.2-1.1
			c-0.8-0.3-1.5-0.7-2.2-1.2c-0.4-0.3-0.7-0.3-1.1,0c-4.2,2.7-8.7,3-13.3,0.9c-0.6-0.3-1.2-0.7-1.8-1c-0.2-0.1-0.5-0.1-0.7,0
			c-5.2,3.2-10.4,3.2-15.6-0.1C32.1,42.1,32,42.1,31.9,42z"/>
	</g>
</g>
<g>
	<g>
		<path class="st0" d="M31.9,56.2c0.1,0,0.2,0.1,0.2,0.1c5.2,3.3,10.4,3.3,15.6,0.1c0.2-0.1,0.5-0.1,0.7,0c0.6,0.3,1.2,0.7,1.8,1
			c4.6,2,9,1.7,13.3-0.9c0.4-0.3,0.7-0.3,1.1,0c0.7,0.4,1.4,0.8,2.2,1.2c1.6,0.7,3.4,1.1,5.2,1.1c0-1.5,0-3,0-4.5
			c-3.5-0.2-6.1-1.7-7.9-4.7c-1.9,3-4.5,4.6-8,4.6c-3.5,0-6.1-1.7-8-4.6c-1.9,3-4.5,4.6-8,4.7c-3.5,0-6.1-1.7-8-4.6
			c-1.9,2.9-4.5,4.6-8,4.6c-3.5,0-6.1-1.7-8-4.6c-1.9,3-4.5,4.5-7.9,4.7c0,1.5,0,3,0,4.5c2.6,0,5-0.7,7.1-2.1c0.6-0.4,1-0.4,1.6,0
			c2.2,1.4,4.6,2.1,7.2,2.1C26.9,58.7,29.5,57.8,31.9,56.2z"/>
		<path class="st0" d="M31.9,56.2c-2.4,1.6-5,2.5-8,2.5c-2.6,0-5-0.7-7.2-2.1c-0.6-0.4-1-0.4-1.6,0c-2.2,1.4-4.5,2-7.1,2.1
			c0-1.5,0-3,0-4.5c3.4-0.2,6.1-1.7,7.9-4.7c1.9,2.9,4.5,4.6,8,4.6c3.5,0,6.1-1.6,8-4.6c1.9,2.9,4.5,4.6,8,4.6c3.5,0,6.1-1.7,8-4.7
			c1.9,2.9,4.5,4.6,8,4.6c3.5,0,6.1-1.6,8-4.6c1.8,2.9,4.5,4.5,7.9,4.7c0,1.5,0,3,0,4.5c-1.8,0-3.5-0.3-5.2-1.1
			c-0.8-0.3-1.5-0.7-2.2-1.2c-0.4-0.3-0.7-0.3-1.1,0c-4.2,2.7-8.7,3-13.3,0.9c-0.6-0.3-1.2-0.7-1.8-1c-0.2-0.1-0.5-0.1-0.7,0
			c-5.2,3.2-10.4,3.2-15.6-0.1C32.1,56.2,32,56.2,31.9,56.2z"/>
	</g>
</g>
</svg>
